<svg width="235" height="250" fill="none" xmlns="http://www.w3.org/2000/svg"><path fill-rule="evenodd" clip-rule="evenodd" d="M138.617 222.689c-11.365 9.364-27.507 6.948-41.734 10.747-17.055 4.555-34.132 21.809-49.813 13.7-15.638-8.086-9.624-32.707-17.446-48.479-7.922-15.975-25.617-26.202-28.328-43.826-3.289-21.388 3.695-42.206 12.026-62.177 13.621-32.649 17.981-78.28 51.406-89.868 32.163-11.152 61.432 23.667 91.03 40.483 28.629 16.265 77.892 22.93 78.526 55.85.742 38.562-52.23 53.103-75.84 83.601-9.333 12.055-8.06 30.276-19.827 39.969z" fill="url(#paint0_linear)"/><defs><linearGradient id="paint0_linear" x1="167.033" y1="195.408" x2="18.732" y2="41.497" gradientUnits="userSpaceOnUse"><stop stop-color="#ED017F"/><stop offset="1" stop-color="#7F33B5"/></linearGradient></defs></svg>