<svg width="247" height="214" fill="none" xmlns="http://www.w3.org/2000/svg"><path fill-rule="evenodd" clip-rule="evenodd" d="M162.61.07c14.682 1.144 24.63 14.084 37.511 21.22 15.442 8.554 39.711 7.979 45.376 24.697 5.651 16.674-15.763 30.231-21.075 47.016-5.379 17 .267 36.643-10.01 51.215-12.471 17.684-31.945 27.829-51.802 36.43-32.462 14.06-67.263 43.894-99.373 29.047-30.9-14.287-27.816-59.669-37.462-92.316-9.33-31.576-40.18-70.557-17.795-94.703 26.221-28.284 74.457-2 112.62-7.58 15.085-2.205 26.811-16.209 42.01-15.025z" fill="url(#paint0_linear)"/><defs><linearGradient id="paint0_linear" x1="0" y1="106.867" x2="246.439" y2="106.867" gradientUnits="userSpaceOnUse"><stop stop-color="#6647B8"/><stop offset="1" stop-color="#BD4495"/></linearGradient></defs></svg>