<svg width="70" height="70" fill="none" xmlns="http://www.w3.org/2000/svg"><path d="M35 67.813a32.812 32.812 0 110-65.625 32.812 32.812 0 010 65.624zm0-63.438a30.625 30.625 0 100 61.25 30.625 30.625 0 000-61.25z" fill="url(#paint0_linear)"/><path d="M35 61.25c14.498 0 26.25-11.752 26.25-26.25C61.25 20.503 49.498 8.75 35 8.75 20.503 8.75 8.75 20.503 8.75 35c0 14.498 11.753 26.25 26.25 26.25z" fill="url(#paint1_linear)"/><path d="M38.005 45.887l-8.55 5.343 2.138-5.343A12.824 12.824 0 0118.77 33.064v-1.069a12.823 12.823 0 0112.823-12.823h6.412a12.823 12.823 0 0112.823 12.823v1.069a12.824 12.824 0 01-12.823 12.823z" fill="#fff"/><path d="M39.608 36.27v1.068a12.823 12.823 0 01-9.554 12.396l1.54-3.847A12.824 12.824 0 0118.77 33.064v-1.069a12.764 12.764 0 013.27-8.549h4.744A12.824 12.824 0 0139.608 36.27z" fill="#CECFFF"/><path d="M34.8 29.536a4.58 4.58 0 00-2.226-.567 4.513 4.513 0 00-3.12 1.206 3.934 3.934 0 00-.76 4.888c.205.355.461.678.76.959l5.346 5.014 5.346-5.008c.3-.28.557-.603.76-.96a3.898 3.898 0 00.53-1.966 3.976 3.976 0 00-1.29-2.927 4.628 4.628 0 00-5.346-.64z" fill="url(#paint2_linear)"/><path d="M36.007 34.912c0 .69-.183 1.37-.531 1.967-.203.356-.46.68-.76.959l-1.666 1.557-3.62-3.367a4.186 4.186 0 01-.76-.96 3.885 3.885 0 01.097-4.006c.21.075.412.17.603.284a4.628 4.628 0 015.346.64 3.975 3.975 0 011.29 2.926z" fill="#883089"/><defs><linearGradient id="paint0_linear" x1="35" y1="2.188" x2="35" y2="67.813" gradientUnits="userSpaceOnUse"><stop stop-color="#ED017F"/><stop offset="1" stop-color="#7F33B5"/></linearGradient><linearGradient id="paint1_linear" x1="35" y1="8.75" x2="35" y2="61.25" gradientUnits="userSpaceOnUse"><stop stop-color="#FFE5FF"/><stop offset="1" stop-color="#FF1EA5" stop-opacity=".14"/></linearGradient><linearGradient id="paint2_linear" x1="34.8" y1="28.965" x2="34.8" y2="41.036" gradientUnits="userSpaceOnUse"><stop stop-color="#EB3A67"/><stop offset="1" stop-color="#822F8B"/></linearGradient></defs></svg>