<svg width="24" height="18" fill="none" xmlns="http://www.w3.org/2000/svg"><path d="M1.09 3.83h0a.784.784 0 00-.228.574c0 .267.134.503.337.645l2.856 2.867h0a.786.786 0 001.112.003h0a.786.786 0 00.002-1.112s0 0 0 0L3.559 5.19h13.06a5.074 5.074 0 015.07 5.068 5.074 5.074 0 01-5.07 5.069H1.65a.786.786 0 000 1.572h14.97a6.649 6.649 0 006.642-6.64 6.649 6.649 0 00-6.641-6.642H3.523l1.646-1.653s0 0 0 0A.786.786 0 004.055.854L1.09 3.83zm-.228.558h0z" fill="#ED017F" stroke="#ED017F" stroke-width=".277"/></svg>