<svg width="20" height="20" fill="none" xmlns="http://www.w3.org/2000/svg"><g clip-path="url(#clip0)"><path d="M3.793 13.793a6.207 6.207 0 1012.414 0c0-3.448-1.724-6.207-.568-8.62 0 0-1.846.344-2.88 3.103 0 0-3.449-3.448-2.008-8.276 0 0-3.51 1.38-3.143 5.862.315 3.844-.367 4.483-.367 4.483 0-3.104-2.426-4.483-2.426-4.483.702 3.793-1.022 4.828-1.022 7.931z" fill="#FFB446"/><path d="M14.48 15.263c0 2.582-1.993 4.786-4.574 4.736-2.43-.047-4.237-1.895-4.044-4.31.087-1.077.905-2.823 2.242-4.59l.89.539C8.966 9.454 10 6.552 10 6.552c.68 3.058 4.48 3.85 4.48 8.711z" fill="#FFDC64"/><path d="M8.276 13.103c-.345 2.07-1.035 2.823-1.035 4.138 0 1.38 1.236 2.759 2.76 2.759 1.534 0 2.762-1.254 2.758-2.788-.012-4.122-2.414-6.178-2.414-6.178.345 2.07-.69 3.104-.69 3.104-.43-.646-1.379-1.035-1.379-1.035z" fill="#fff"/></g><defs><clipPath id="clip0"><path fill="#fff" d="M0 0h20v20H0z"/></clipPath></defs></svg>