<svg width="21" height="21" fill="none" xmlns="http://www.w3.org/2000/svg"><g opacity=".6" clip-path="url(#clip0)"><path d="M18.733 14.163v2.5a1.667 1.667 0 01-1.816 1.666 16.492 16.492 0 01-7.192-2.558 16.25 16.25 0 01-5-5 16.492 16.492 0 01-2.558-7.225 1.666 1.666 0 011.658-1.817h2.5a1.667 1.667 0 011.667 1.434c.105.8.301 1.585.583 2.341A1.667 1.667 0 018.2 7.263L7.142 8.32a13.333 13.333 0 005 5l1.058-1.058a1.667 1.667 0 011.759-.375 10.7 10.7 0 002.341.583 1.667 1.667 0 011.433 1.692z" stroke="#333" stroke-width="2" stroke-linecap="round" stroke-linejoin="round"/></g><defs><clipPath id="clip0"><path fill="#fff" transform="translate(.4 .063)" d="M0 0h20v20H0z"/></clipPath></defs></svg>