<svg width="32" height="32" xmlns="http://www.w3.org/2000/svg"><path d="M0 16C0 7.163 7.163 0 16 0s16 7.163 16 16-7.163 16-16 16S0 24.837 0 16z" fill="#fff"/><mask id="a" maskUnits="userSpaceOnUse" x="0" y="0" width="32" height="32"><path fill-rule="evenodd" clip-rule="evenodd" d="M0 16C0 7.163 7.163 0 16 0s16 7.163 16 16-7.163 16-16 16S0 24.837 0 16z" fill="#fff"/></mask><g mask="url(#a)"><path fill-rule="evenodd" clip-rule="evenodd" d="M16 7.467c-2.317 0-2.608.01-3.518.051-.908.042-1.528.186-2.07.397a4.178 4.178 0 00-1.513.984 4.19 4.19 0 00-.984 1.511c-.212.543-.356 1.163-.397 2.071-.04.91-.051 1.202-.051 3.52 0 2.317.01 2.607.051 3.517.042.908.186 1.529.397 2.071.218.561.51 1.037.984 1.512.474.474.95.767 1.511.985.543.21 1.163.355 2.072.396.91.041 1.2.052 3.518.052 2.317 0 2.607-.01 3.518-.052.908-.041 1.529-.185 2.072-.396a4.173 4.173 0 001.51-.985c.475-.475.767-.95.985-1.512.21-.542.354-1.163.397-2.07.04-.911.051-1.201.051-3.519 0-2.317-.01-2.608-.051-3.518-.043-.909-.187-1.529-.397-2.071a4.187 4.187 0 00-.985-1.512 4.17 4.17 0 00-1.51-.984c-.545-.211-1.165-.355-2.074-.397-.91-.041-1.2-.051-3.518-.051h.003zm-.284 1.538h.285c2.278 0 2.548.008 3.448.049.832.038 1.284.177 1.584.294.399.154.682.34.981.638.299.298.484.583.639.981.116.3.256.752.293 1.584.041.9.05 1.17.05 3.447 0 2.278-.009 2.548-.05 3.447-.038.832-.177 1.284-.293 1.584-.155.399-.34.682-.639.98a2.638 2.638 0 01-.98.639c-.301.117-.753.256-1.585.294-.9.04-1.17.05-3.448.05-2.279 0-2.549-.01-3.448-.05-.832-.038-1.284-.177-1.585-.294a2.643 2.643 0 01-.981-.639 2.644 2.644 0 01-.639-.98c-.117-.3-.256-.752-.294-1.584-.04-.9-.049-1.17-.049-3.449s.008-2.547.05-3.447c.037-.832.176-1.284.293-1.584.155-.399.34-.683.639-.982a2.65 2.65 0 01.981-.638c.3-.118.753-.256 1.585-.295.787-.035 1.092-.046 2.682-.048v.003h.481zm3.816 2.44a1.024 1.024 0 112.048 0 1.024 1.024 0 01-2.048 0zM16 11.618a4.382 4.382 0 100 8.765 4.382 4.382 0 000-8.765zM18.845 16a2.845 2.845 0 10-5.689 0 2.845 2.845 0 005.69 0z"/></g></svg>