<svg width="14" height="14" fill="none" xmlns="http://www.w3.org/2000/svg"><path d="M12.833 9.87v1.75a1.165 1.165 0 01-1.271 1.167 11.544 11.544 0 01-5.034-1.791 11.375 11.375 0 01-3.5-3.5 11.544 11.544 0 01-1.791-5.058 1.167 1.167 0 011.16-1.271h1.75A1.167 1.167 0 015.314 2.17c.074.56.211 1.11.409 1.64a1.167 1.167 0 01-.263 1.23l-.74.74a9.333 9.333 0 003.5 3.5l.74-.74a1.167 1.167 0 011.23-.262c.53.197 1.08.334 1.64.408a1.166 1.166 0 011.003 1.184z" stroke="#fff" stroke-width="1.5" stroke-linecap="round" stroke-linejoin="round"/></svg>