<svg width="32" height="32" fill="none" xmlns="http://www.w3.org/2000/svg"><path d="M16 31.869c8.837 0 16-7.134 16-15.935C32 7.134 24.837 0 16 0S0 7.134 0 15.934c0 8.8 7.163 15.935 16 15.935z" fill="#fff"/><path d="M16 0C7.164 0 0 7.134 0 15.934 0 22.69 4.214 28.46 10.166 30.78c-.145-1.259-.263-3.2.053-4.577.29-1.246 1.87-7.921 1.87-7.921s-.474-.957-.474-2.36c0-2.217 1.29-3.87 2.897-3.87 1.37 0 2.028 1.023 2.028 2.243 0 1.364-.87 3.41-1.33 5.312-.382 1.586.803 2.885 2.37 2.885 2.845 0 5.03-2.99 5.03-7.292 0-3.816-2.752-6.479-6.689-6.479-4.556 0-7.23 3.397-7.23 6.912 0 1.364.527 2.833 1.186 3.633a.473.473 0 01.105.459c-.119.498-.395 1.586-.448 1.81-.066.288-.237.354-.54.21-2.001-.932-3.252-3.83-3.252-6.178 0-5.023 3.66-9.64 10.574-9.64 5.544 0 9.863 3.935 9.863 9.207 0 5.495-3.476 9.915-8.296 9.915-1.62 0-3.147-.84-3.66-1.836l-1.002 3.79c-.355 1.39-1.33 3.122-1.988 4.184 1.501.459 3.081.708 4.74.708 8.837 0 16-7.134 16-15.934C32 7.134 24.837 0 16 0z" fill="#E60019"/></svg>