<svg height="512" width="512" xmlns="http://www.w3.org/2000/svg"><path d="M328 352l117.955 65.531a60 60 0 0130.259 43.969L480 488H32l3.916-27.411a60 60 0 0128.976-43.231L176 352z" fill="#eaeae8"/><path d="M152 200v-88a81.941 81.941 0 01-24-57.941V24l33.918 8.48a251.92 251.92 0 0061.09 7.52h50.309a35.45 35.45 0 0125.066 10.383L320 72a35.448 35.448 0 0132.913 22.283 99.073 99.073 0 017.087 36.8V200z" fill="#683b0d"/><path d="M215.994 112a7.976 7.976 0 01-3.572-.847l-17.689-8.844A33.7 33.7 0 01176 72a8 8 0 0116 0 17.792 17.792 0 009.888 16l17.69 8.845A8 8 0 01215.994 112zm40 0a7.976 7.976 0 01-3.572-.847l-17.689-8.844A33.7 33.7 0 01216 72a8 8 0 0116 0 17.792 17.792 0 009.888 16l17.69 8.845A8 8 0 01255.994 112zm40 0a7.976 7.976 0 01-3.572-.847l-17.689-8.844A33.7 33.7 0 01256 72a8 8 0 0116 0 17.792 17.792 0 009.888 16l17.69 8.845A8 8 0 01295.994 112z" fill="#533222"/><path d="M296 328l-8-16h-64l-8 16-8 8 48 40 48-38.4z" fill="#fdc9a6"/><path d="M294.36 324.73a70.918 70.918 0 01-76.72 0L224 312h64z" fill="#e6af89"/><path d="M256 320a70.9 70.9 0 01-65.827-44.567A198.156 198.156 0 01176 201.837V144l24-40h112l24 40v57.837a198.156 198.156 0 01-14.173 73.6A70.9 70.9 0 01256 320z" fill="#fdc9a6"/><g fill="#683b0d"><path d="M304 176h-24a8 8 0 010-16h24a8 8 0 010 16z"/><circle cx="290" cy="194" r="10"/><path d="M232 176h-24a8 8 0 010-16h24a8 8 0 010 16z"/><circle cx="222" cy="194" r="10"/></g><path d="M247.994 272a8 8 0 01-1.934-15.763l32-8a8 8 0 013.88 15.522l-32 8a8.007 8.007 0 01-1.946.241zM264 240h-16a8 8 0 01-8-8v-24a8 8 0 0116 0v16h8a8 8 0 010 16z" fill="#e6af89"/><path d="M176 168h-11.056A20.944 20.944 0 00144 188.944v14.112a20.944 20.944 0 002.211 9.366A20.944 20.944 0 00164.944 224H184zm160 0h11.056A20.944 20.944 0 01368 188.944v14.112a20.944 20.944 0 01-2.211 9.366A20.944 20.944 0 01347.056 224H328z" fill="#fdc9a6"/><path d="M72 488v-32a8 8 0 0116 0v32zm352 0v-32a8 8 0 0116 0v32z" fill="#cbcbcb"/><path d="M272 416h-32l-16-48 32 8 32-8zm-32 0l-8 72h48l-8-72z" fill="#0a9acd"/><path d="M273.78 432h-35.56l1.78-16h32z" fill="#0a9acd"/><path d="M400 464h-64a8 8 0 010-16h64a8 8 0 010 16zM208 328l48 48-48 24-32-48zm96 72l-48-24 48-48 24 24z" fill="#cbcbcb"/><path d="M273.78 432h-35.56l1.78-16h32z" fill="#026ca2"/></svg>