<svg xmlns="http://www.w3.org/2000/svg" width="990.9" height="990.9"><path d="M920.8 64.5H70c-38.7 0-70 31.3-70 70s31.3 70 70 70h850.9c38.7 0 70-31.3 70-70s-31.4-70-70.1-70zm0 481.301H70c-38.7 0-70 31.299-70 70 0 38.699 31.3 70 70 70h850.9c38.7 0 70-31.301 70-70 0-38.701-31.4-70-70.1-70zM804.101 445.1c38.699 0 70-31.3 70-70s-31.301-70-70-70H186.8c-38.7 0-70 31.3-70 70s31.3 70 70 70h617.301zM682.5 926.4c38.7 0 70-31.301 70-70 0-38.701-31.3-70-70-70H308.3c-38.7 0-70 31.299-70 70 0 38.699 31.3 70 70 70h374.2z"/></svg>