<svg width="27" height="20" fill="none" xmlns="http://www.w3.org/2000/svg"><path d="M22.81 11.223H8.59A1.225 1.225 0 017.364 10c0-.675.55-1.222 1.227-1.222H22.81l-1.587-1.581a1.22 1.22 0 010-1.729 1.23 1.23 0 011.736 0l3.681 3.667a.982.982 0 01.081.09l.018.023c.018.023.037.047.054.072l.013.023c.017.026.034.053.049.08l.008.017c.015.03.03.06.043.091l.005.012c.013.033.025.066.036.1l.003.014c.01.034.019.068.026.102l.005.032a1.179 1.179 0 01.013.331c-.003.03-.008.059-.013.088l-.005.03c-.007.036-.016.07-.026.104l-.003.012a.958.958 0 01-.037.102l-.004.01a1.158 1.158 0 01-.043.093l-.008.016a1.253 1.253 0 01-.049.08l-.013.023a1.3 1.3 0 01-.054.073l-.018.023a1.26 1.26 0 01-.08.089l-3.682 3.667a1.23 1.23 0 01-1.736 0 1.22 1.22 0 010-1.729l1.587-1.58z" fill="#4ACEF9"/><path d="M10.04 0a10.04 10.04 0 018.337 4.428 1.22 1.22 0 01-.334 1.697 1.23 1.23 0 01-1.704-.333 7.589 7.589 0 00-6.3-3.347c-4.182 0-7.584 3.39-7.584 7.555 0 4.166 3.402 7.555 7.584 7.555a7.591 7.591 0 006.29-3.332 1.23 1.23 0 011.704-.328 1.22 1.22 0 01.33 1.697A10.045 10.045 0 0110.04 20C4.504 20 0 15.514 0 10S4.504 0 10.04 0z" fill="#4ACEF9"/></svg>