<svg width="106" height="48" fill="none" xmlns="http://www.w3.org/2000/svg"><path d="M47.12 20.736c-1.696.368-3.224.552-4.584.552-1.36 0-2.448-.168-3.264-.504a4.025 4.025 0 01-1.92-1.608c-.464-.736-.784-1.6-.96-2.592-.176-.992-.264-2.24-.264-3.744 0-3.152.44-5.344 1.32-6.576.896-1.248 2.536-1.872 4.92-1.872 1.376 0 2.968.216 4.776.648l-.096 2.64c-1.584-.24-2.904-.36-3.96-.36-1.04 0-1.784.144-2.232.432-.448.272-.784.8-1.008 1.584-.208.784-.312 2.12-.312 4.008s.216 3.2.648 3.936c.448.72 1.328 1.08 2.64 1.08a28.43 28.43 0 004.224-.336l.072 2.712zm11.591-7.992v4.992c.032.384.096.656.192.816.096.144.296.248.6.312l-.096 2.424c-.816 0-1.472-.056-1.968-.168-.48-.112-.968-.336-1.464-.672-1.152.56-2.328.84-3.528.84-2.48 0-3.72-1.312-3.72-3.936 0-1.28.344-2.184 1.032-2.712.688-.544 1.744-.864 3.168-.96l2.568-.192v-.744c0-.496-.112-.832-.336-1.008-.224-.192-.584-.288-1.08-.288l-4.512.192-.096-2.232c1.712-.464 3.336-.696 4.872-.696 1.552 0 2.664.32 3.336.96.688.64 1.032 1.664 1.032 3.072zm-5.4 3.168c-.896.08-1.344.56-1.344 1.44 0 .88.392 1.32 1.176 1.32.608 0 1.272-.096 1.992-.288l.36-.096V15.72l-2.184.192zM70.393 12c-1.984-.256-3.376-.384-4.176-.384-.784 0-1.296.072-1.536.216-.224.144-.336.376-.336.696 0 .304.152.52.456.648.32.112 1.12.288 2.4.528 1.296.224 2.216.6 2.76 1.128.544.528.816 1.384.816 2.568 0 2.592-1.608 3.888-4.824 3.888-1.056 0-2.336-.144-3.84-.432l-.768-.144.096-2.688c1.984.256 3.36.384 4.128.384.784 0 1.312-.072 1.584-.216.288-.16.432-.392.432-.696 0-.304-.152-.528-.456-.672-.288-.144-1.056-.32-2.304-.528-1.232-.208-2.152-.56-2.76-1.056-.608-.496-.912-1.376-.912-2.64 0-1.28.432-2.24 1.296-2.88.864-.656 1.976-.984 3.336-.984.944 0 2.232.152 3.864.456l.792.144L70.393 12zm11.896.744v4.992c.032.384.096.656.192.816.096.144.296.248.6.312l-.096 2.424c-.816 0-1.472-.056-1.968-.168-.48-.112-.968-.336-1.464-.672-1.152.56-2.328.84-3.528.84-2.48 0-3.72-1.312-3.72-3.936 0-1.28.344-2.184 1.032-2.712.688-.544 1.744-.864 3.168-.96l2.568-.192v-.744c0-.496-.112-.832-.336-1.008-.224-.192-.584-.288-1.08-.288l-4.512.192-.096-2.232c1.712-.464 3.336-.696 4.872-.696 1.552 0 2.664.32 3.336.96.688.64 1.032 1.664 1.032 3.072zm-5.4 3.168c-.896.08-1.344.56-1.344 1.44 0 .88.392 1.32 1.176 1.32.608 0 1.272-.096 1.992-.288l.36-.096V15.72l-2.184.192zm-35.097 15.36c-1.744 0-2.616.576-2.616 1.728 0 .512.216.904.648 1.176.432.272 1.44.664 3.024 1.176 1.6.512 2.72 1.096 3.36 1.752.64.64.96 1.632.96 2.976 0 1.712-.52 3.008-1.56 3.888-1.04.88-2.4 1.32-4.08 1.32-1.248 0-2.776-.192-4.584-.576l-.864-.168.336-2.568c2.144.288 3.784.432 4.92.432 1.696 0 2.544-.704 2.544-2.112 0-.512-.2-.912-.6-1.2-.384-.288-1.16-.6-2.328-.936-1.856-.528-3.168-1.152-3.936-1.872-.752-.736-1.128-1.752-1.128-3.048 0-1.632.496-2.848 1.488-3.648.992-.8 2.352-1.2 4.08-1.2 1.184 0 2.688.16 4.512.48l.864.168-.264 2.616c-2.256-.256-3.848-.384-4.776-.384zm16.943 5.472v4.992c.032.384.096.656.192.816.096.144.296.248.6.312l-.096 2.424c-.816 0-1.472-.056-1.968-.168-.48-.112-.968-.336-1.464-.672-1.152.56-2.328.84-3.528.84-2.48 0-3.72-1.312-3.72-3.936 0-1.28.344-2.184 1.032-2.712.688-.544 1.744-.864 3.168-.96l2.568-.192v-.744c0-.496-.112-.832-.336-1.008-.224-.192-.584-.288-1.08-.288l-4.512.192-.096-2.232c1.712-.464 3.336-.696 4.872-.696 1.552 0 2.664.32 3.336.96.688.64 1.032 1.664 1.032 3.072zm-5.4 3.168c-.896.08-1.344.56-1.344 1.44 0 .88.392 1.32 1.176 1.32.608 0 1.272-.096 1.992-.288l.36-.096V39.72l-2.184.192zm14.274-7.2c1.68 0 2.904.464 3.672 1.392.783.912 1.175 2.552 1.175 4.92s-.448 4.008-1.344 4.92c-.895.896-2.44 1.344-4.631 1.344-.688 0-1.944-.08-3.768-.24l-.913-.096V28.2h3.216v5.16c1.024-.432 1.888-.648 2.593-.648zm-1.128 9.696c1.072 0 1.791-.256 2.16-.768.367-.528.551-1.464.551-2.808 0-2.16-.671-3.24-2.015-3.24-.64 0-1.249.08-1.825.24l-.336.072v6.408c.736.064 1.224.096 1.465.096zM74.855 45V33h3.216v12h-3.216zm0-13.536V28.2h3.216v3.264h-3.216zM84.26 45h-3.216V33h3.192v.672c1.088-.64 2.088-.96 3-.96 1.6 0 2.704.472 3.312 1.416.608.944.912 2.4.912 4.368V45h-3.216v-6.408c0-1.024-.12-1.776-.36-2.256-.24-.496-.72-.744-1.44-.744-.656 0-1.288.112-1.896.336l-.288.096V45zm12.69-4.632c.015.736.207 1.272.575 1.608.384.32.928.48 1.632.48 1.488 0 2.816-.048 3.984-.144l.672-.072.048 2.376c-1.84.448-3.504.672-4.992.672-1.808 0-3.12-.48-3.936-1.44-.816-.96-1.224-2.52-1.224-4.68 0-4.304 1.768-6.456 5.304-6.456 3.488 0 5.232 1.808 5.232 5.424l-.24 2.232h-7.056zm4.127-2.448c0-.96-.152-1.624-.456-1.992-.304-.384-.84-.576-1.608-.576-.752 0-1.288.2-1.608.6-.304.384-.464 1.04-.48 1.968h4.152z" fill="#fff"/><circle cx="21" cy="26" r="21" fill="#E97000"/><mask id="a" maskUnits="userSpaceOnUse" x="0" y="5" width="42" height="42"><circle cx="21" cy="26" r="21" fill="#E97000"/></mask><g mask="url(#a)"><path d="M42.834 28.812H36.75l-4.346-4.773a1.166 1.166 0 00-1.59-.127l-2.696 2.153-7.112-11.235a1.166 1.166 0 00-1.97 0l-6.073 9.593-2.277-3.332a1.166 1.166 0 00-1.925 0l-5.276 7.72H-.834a1.166 1.166 0 100 2.332H1.89L.963 32.5a1.166 1.166 0 101.925 1.316l.45-.658 6.384-9.343 1.882 2.753-4.172 6.59-3.017 4.765a1.165 1.165 0 101.97 1.247l.554-.875 13.08-20.662 10.628 16.786.266.42a1.166 1.166 0 001.97-1.248l-3.511-5.544 2.042-1.631 7 7.688.816.896a1.162 1.162 0 001.647.077c.476-.434.51-1.17.077-1.647l-2.083-2.287h3.963a1.166 1.166 0 100-2.331z" fill="#fff"/></g></svg>