<svg width="252" height="163" fill="none" xmlns="http://www.w3.org/2000/svg"><ellipse cx="124.035" cy="81" rx="77.665" ry="75" fill="#039099"/><path fill-rule="evenodd" clip-rule="evenodd" d="M123.88 26.362c-6.696 4.896-19.265 19.455-51.575 26.508v30.76c0 8.15 5.22 18.792 12.582 28.791v-11.962c0-9.322 5.696-12.852 10.432-14.934a12.881 12.881 0 01-3.357-8.713c0-7.032 5.559-12.731 12.418-12.731 6.859 0 12.425 5.699 12.425 12.73 0 3.37-1.28 6.43-3.364 8.714 3.847 1.694 8.335 4.34 9.877 10.273a7.895 7.895 0 011.117 0c1.549-5.933 6.03-8.579 9.878-10.273a12.881 12.881 0 01-3.358-8.713c0-7.032 5.559-12.731 12.419-12.731 6.859 0 12.425 5.699 12.425 12.73 0 3.37-1.281 6.43-3.365 8.714 4.736 2.083 10.44 5.612 10.44 14.934v11.962c7.355-9.999 12.575-20.641 12.575-28.792V52.87c-32.304-7.052-44.879-21.611-51.569-26.507z" fill="#A0C8FF"/><path fill-rule="evenodd" clip-rule="evenodd" d="M104.38 64.08c-6.86 0-12.418 5.7-12.418 12.732a12.88 12.88 0 003.357 8.713c2.267 2.471 5.488 4.018 9.061 4.018 3.574 0 6.794-1.547 9.061-4.018a12.886 12.886 0 003.364-8.713c0-7.032-5.566-12.731-12.425-12.731z" fill="#FFDCD5"/><path fill-rule="evenodd" clip-rule="evenodd" d="M95.32 85.525c-4.737 2.082-10.433 5.612-10.433 14.934v11.961c7.075 9.61 16.135 18.625 24.432 24.257v-13.729c0-6.958 4.253-9.597 7.793-11.151a9.59 9.59 0 01-2.508-6.509c0-5.056 3.854-9.195 8.714-9.49-1.541-5.933-6.03-8.579-9.877-10.273-2.267 2.47-5.488 4.018-9.061 4.018-3.574 0-6.794-1.547-9.06-4.019z" fill="#FF7B79"/><path fill-rule="evenodd" clip-rule="evenodd" d="M123.319 95.798c-4.861.295-8.715 4.434-8.715 9.49 0 2.518.947 4.809 2.509 6.51 1.692 1.848 4.096 3.007 6.768 3.007 2.665 0 5.075-1.159 6.768-3.007a9.626 9.626 0 002.508-6.51c0-5.056-3.854-9.195-8.721-9.49a7.68 7.68 0 00-1.117 0z" fill="#FFDCD5"/><path fill-rule="evenodd" clip-rule="evenodd" d="M117.112 111.798c-3.54 1.553-7.793 4.192-7.793 11.15v13.729c5.435 3.691 10.544 5.927 14.561 5.927 4.011 0 9.12-2.237 14.561-5.927v-13.729c0-6.958-4.259-9.597-7.793-11.15-1.692 1.848-4.103 3.007-6.768 3.007-2.672 0-5.076-1.159-6.768-3.007z" fill="#FFCD69"/><path fill-rule="evenodd" clip-rule="evenodd" d="M124.436 95.798c4.866.295 8.721 4.434 8.721 9.49a9.62 9.62 0 01-2.509 6.509c3.534 1.554 7.794 4.193 7.794 11.151v13.729c8.296-5.632 17.35-14.647 24.432-24.257v-11.961c0-9.323-5.703-12.852-10.44-14.934-2.266 2.47-5.487 4.018-9.06 4.018-3.574 0-6.794-1.547-9.061-4.019-3.848 1.695-8.329 4.34-9.877 10.274z" fill="#DFEDFF"/><path fill-rule="evenodd" clip-rule="evenodd" d="M143.374 64.08c-6.86 0-12.419 5.7-12.419 12.732 0 3.368 1.274 6.43 3.358 8.713 2.267 2.471 5.487 4.018 9.061 4.018 3.573 0 6.794-1.547 9.061-4.018a12.89 12.89 0 003.364-8.713c0-7.032-5.566-12.731-12.425-12.731z" fill="#FFDCD5"/><path d="M175.928 50.559c-6.676-1.453-13.007-3.363-18.817-5.678-1.186-.473-2.522.13-2.983 1.346-.461 1.217.127 2.586 1.313 3.059 5.508 2.194 11.455 4.036 17.703 5.484v28.86c0 5.673-2.894 13.225-7.966 21.312v-4.483c0-8.905-4.706-13.304-9.217-15.815a15.281 15.281 0 002.143-7.832c0-8.323-6.608-15.094-14.73-15.094-8.119 0-14.724 6.771-14.724 15.094 0 2.863.782 5.541 2.137 7.824-2.561 1.412-5.131 3.39-6.909 6.455-1.776-3.062-4.345-5.04-6.907-6.453a15.28 15.28 0 002.139-7.826c0-8.323-6.608-15.094-14.73-15.094-8.119 0-14.723 6.771-14.723 15.094 0 2.865.783 5.546 2.14 7.83-4.51 2.51-9.215 6.909-9.215 15.817v4.493c-5.076-8.09-7.973-15.646-7.973-21.323V54.77c26.392-6.13 39.713-17.39 46.944-23.502.845-.714 1.621-1.37 2.327-1.942.706.573 1.483 1.23 2.329 1.945 2.697 2.282 6.053 5.122 10.535 8.166a2.27 2.27 0 003.194-.665c.703-1.087.413-2.553-.648-3.274-4.28-2.907-7.533-5.66-10.147-7.87-1.486-1.258-2.769-2.343-3.925-3.188a2.258 2.258 0 00-2.676 0c-1.155.845-2.437 1.928-3.921 3.183-7.59 6.415-20.293 17.153-46.796 22.937C70.76 50.791 70 51.755 70 52.87v30.76c0 5.436 2.028 11.921 6.027 19.276 3.527 6.487 8.427 13.309 14.171 19.73 9.66 10.795 23.58 22.331 33.682 22.331 10.099 0 24.018-11.536 33.676-22.332a119.168 119.168 0 007.087-8.702c.053-.065 5.155-7.479 7.084-11.027 3.999-7.356 6.027-13.841 6.027-19.277V52.87c0-1.115-.762-2.079-1.826-2.31zm-32.554 15.884c5.58 0 10.12 4.652 10.12 10.369s-4.54 10.369-10.12 10.369c-5.577 0-10.114-4.652-10.114-10.369s4.537-10.369 10.114-10.369zM123.88 98.141c3.845 0 6.972 3.206 6.972 7.147 0 3.945-3.127 7.154-6.972 7.154-3.844 0-6.972-3.209-6.972-7.154 0-3.941 3.128-7.147 6.972-7.147zm-19.5-31.698c5.58 0 10.12 4.652 10.12 10.369s-4.54 10.369-10.12 10.369c-5.577 0-10.114-4.652-10.114-10.369s4.537-10.369 10.114-10.369zm2.634 56.506v9.156c-4.375-3.392-8.979-7.702-13.419-12.664a116.68 116.68 0 01-6.404-7.801v-11.181c0-6.975 3.542-10.077 7.685-12.133 2.567 2.23 5.884 3.58 9.504 3.58 3.621 0 6.939-1.349 9.507-3.578 2.457 1.223 4.864 2.905 6.305 5.708-4.582 1.583-7.893 6.027-7.893 11.252 0 2.033.501 3.948 1.382 5.622-3.345 1.994-6.667 5.413-6.667 12.039zm29.123 12.441c-4.774 3.095-9.06 4.852-12.257 4.852-3.196 0-7.482-1.756-12.256-4.85v-12.443c0-4.696 2.303-6.897 5.077-8.35a11.34 11.34 0 007.179 2.568c2.71 0 5.204-.962 7.179-2.567 2.774 1.455 5.078 3.657 5.078 8.349v12.441zm24.432-23.758a116.912 116.912 0 01-6.41 7.809c-4.438 4.961-9.04 9.269-13.413 12.661v-9.153c0-6.622-3.322-10.042-6.667-12.037a12.054 12.054 0 001.382-5.624c0-5.226-3.312-9.671-7.897-11.253 1.444-2.804 3.851-4.487 6.306-5.708 2.567 2.23 5.884 3.579 9.504 3.579 3.621 0 6.939-1.349 9.507-3.578 4.145 2.057 7.688 5.16 7.688 12.131v11.173z" fill="#000"/><path d="M145.812 44.864l.013.006c.33.17.68.25 1.025.25.844 0 1.656-.481 2.06-1.31.57-1.167.102-2.59-1.037-3.173-1.138-.584-2.523-.11-3.092 1.056-.569 1.168-.108 2.587 1.031 3.17z" fill="#000"/></svg>