<svg width="41" height="36" fill="none" xmlns="http://www.w3.org/2000/svg"><path d="M38.46 0H25.82a2.08 2.08 0 00-2.079 2.079v12.639a2.08 2.08 0 002.08 2.079h6.048c-.079 3.31-.848 5.957-2.303 7.949-1.147 1.572-2.885 2.873-5.21 3.9a2.076 2.076 0 00-1.03 2.79l1.496 3.16a2.079 2.079 0 002.707 1.014c2.752-1.19 5.076-2.694 6.972-4.524 2.312-2.232 3.896-4.752 4.752-7.562.857-2.81 1.285-6.644 1.285-11.509V2.08A2.08 2.08 0 0038.459 0zM4.409 35.601c2.719-1.184 5.03-2.69 6.939-4.515 2.332-2.232 3.924-4.744 4.78-7.533.857-2.79 1.285-6.636 1.285-11.538V2.08A2.08 2.08 0 0015.335 0H2.695A2.08 2.08 0 00.618 2.079v12.639a2.08 2.08 0 002.079 2.079h6.049c-.08 3.31-.848 5.957-2.303 7.949-1.148 1.572-2.886 2.873-5.21 3.9a2.076 2.076 0 00-1.03 2.79l1.492 3.151a2.084 2.084 0 002.715 1.014z" fill="#E8E8E7"/></svg>