<svg width="14" height="14" fill="none" xmlns="http://www.w3.org/2000/svg"><g opacity=".5" fill="#737373"><path d="M7 7.82A.41.41 0 107 7a.41.41 0 000 .82z"/><path d="M7 0C3.146 0 0 3.146 0 7s3.146 7 7 7 7-3.146 7-7-3.146-7-7-7zm0 1.668a5.34 5.34 0 015.269 4.512h-1.422a3.224 3.224 0 01-2.351-.993 2.052 2.052 0 00-2.992 0 3.224 3.224 0 01-2.35.993H1.73A5.34 5.34 0 017 1.668zm0 6.973A1.232 1.232 0 017 6.18a1.231 1.231 0 010 2.46zm-4.965.303c.47-.184.808-.303 1.274-.303a2.463 2.463 0 012.433 2.83H5.74c-.034.229-.1.45-.195.66a5.356 5.356 0 01-3.511-3.187zm6.419 3.186a2.446 2.446 0 01-.195-.66c-.263-1.744 1.347-3.184 3.017-2.76.176.045.396.12.69.234a5.357 5.357 0 01-3.512 3.186z"/></g></svg>