<svg width="42" height="46" fill="none" xmlns="http://www.w3.org/2000/svg"><path d="M40.513 6.438a1.504 1.504 0 00-1.087-1.241L20.938.055a1.502 1.502 0 00-.805 0L1.643 5.197a1.503 1.503 0 00-1.086 1.24c-.107.772-2.553 18.99 3.721 28.054 6.267 9.053 15.513 11.372 15.903 11.467a1.498 1.498 0 00.706 0c.391-.095 9.636-2.414 15.903-11.467 6.275-9.063 3.829-27.282 3.722-28.053zm-8.055 10.636l-12.61 12.611a1.499 1.499 0 01-2.127 0l-7.797-7.797a1.503 1.503 0 010-2.126l1.548-1.548a1.503 1.503 0 012.126 0l5.186 5.186 10-10a1.503 1.503 0 012.126 0l1.548 1.548a1.503 1.503 0 010 2.126z" fill="#fff"/></svg>