<svg width="10" height="11" fill="none" xmlns="http://www.w3.org/2000/svg"><path d="M9.09 2.672L6.355.094A.353.353 0 006.114 0H1.328C.763 0 .303.434.303.967v9.066c0 .533.46.967 1.025.967h6.836c.566 0 1.026-.434 1.026-.967V2.9c0-.087-.04-.17-.1-.228zM6.455 1.1l1.568 1.478H6.797c-.188 0-.342-.144-.342-.322V1.1zm1.71 9.255H1.327c-.188 0-.341-.144-.341-.322V.967c0-.178.153-.322.341-.322h4.444v1.61c0 .534.46.968 1.025.968h1.71v6.81c0 .178-.154.322-.343.322z" fill="#A8A8A8"/><path d="M6.797 4.555H2.696a.332.332 0 00-.342.322c0 .178.153.322.342.322h4.101c.189 0 .342-.144.342-.322 0-.178-.153-.322-.342-.322zm0 1.289H2.696a.332.332 0 00-.342.322c0 .178.153.323.342.323h4.101a.333.333 0 00.342-.323c0-.178-.153-.322-.342-.322zm0 1.289H2.696a.332.332 0 00-.342.322c0 .178.153.322.342.322h4.101c.189 0 .342-.144.342-.322 0-.178-.153-.322-.342-.322zM5.43 8.422H2.696a.332.332 0 00-.342.322c0 .178.153.322.342.322H5.43c.189 0 .342-.144.342-.322 0-.178-.153-.322-.342-.322z" fill="#A8A8A8"/></svg>