<svg width="44" height="42" fill="none" xmlns="http://www.w3.org/2000/svg"><path d="M7.333 14.667H1.467c-.81 0-1.467.656-1.467 1.466V39.6c0 .81.657 1.467 1.467 1.467h5.866c.81 0 1.467-.657 1.467-1.467V16.133c0-.81-.657-1.466-1.467-1.466zm36.637 3.888c-.258-2.276-2.383-3.888-4.673-3.888H27.862c.972-1.74 1.494-6.662 1.47-8.672C29.295 2.667 26.539 0 23.21 0H22c-.81 0-1.466.656-1.466 1.467 0 3.391-1.321 9.513-3.812 12.004-1.676 1.676-3.11 2.284-4.989 3.223V38.7c2.878.959 6.53 2.366 12.098 2.366h9.595c3.16 0 5.623-2.928 4.398-6.022a4.408 4.408 0 002.933-5.866c3.145-.857 4.303-4.74 2.12-7.179a4.39 4.39 0 001.094-3.445z" fill="#fff"/></svg>