<svg width="39" height="55" fill="none" xmlns="http://www.w3.org/2000/svg"><path d="M28.178 38.02l2.48-4.026 4.478-1.527.496-4.702L39 24.449 37.398 20 39 15.546l-3.368-3.316-.496-4.701-4.477-1.527-2.48-4.026-4.693.567L19.5 0l-3.986 2.544-4.692-.567-2.48 4.026L3.863 7.53l-.496 4.702L0 15.548l1.601 4.45L0 24.45l3.368 3.316.496 4.702 4.477 1.527 2.48 4.025 4.693-.566 3.986 2.544 3.986-2.544 4.692.566zM5.786 19.997c0-7.561 6.152-13.713 13.714-13.713s13.714 6.152 13.714 13.713c0 7.562-6.152 13.714-13.714 13.714S5.786 27.56 5.786 19.998z" fill="#fff"/><path d="M19.5 9.465c-5.808 0-10.533 4.725-10.533 10.533S13.692 30.532 19.5 30.532s10.533-4.726 10.533-10.534c0-5.808-4.725-10.533-10.533-10.533zm-4.736 31.282l-5.582.674-2.95-4.785-1.002-.342L.906 49.81l7.785-.428 6.09 4.867 3.585-11.203-3.602-2.299zm18.003-4.111l-2.949 4.785-5.582-.674-3.602 2.3 3.584 11.203 6.091-4.868 7.785.428-4.324-13.516-1.003.342z" fill="#fff"/></svg>