<svg width="20" height="21" fill="none" xmlns="http://www.w3.org/2000/svg"><path d="M19.945 6.396c-.047-1.063-.218-1.793-.465-2.426a4.881 4.881 0 00-1.156-1.774 4.922 4.922 0 00-1.77-1.153c-.637-.246-1.363-.418-2.426-.465-1.07-.05-1.41-.062-4.126-.062-2.715 0-3.055.012-4.122.058-1.063.047-1.793.22-2.426.465A4.88 4.88 0 001.68 2.196a4.924 4.924 0 00-1.153 1.77C.281 4.603.11 5.329.063 6.392.012 7.462 0 7.802 0 10.518c0 2.715.012 3.055.059 4.122.046 1.062.218 1.793.465 2.426A4.931 4.931 0 001.68 18.84a4.92 4.92 0 001.77 1.152c.637.247 1.363.418 2.426.465 1.067.047 1.407.059 4.122.059 2.716 0 3.055-.012 4.122-.059 1.063-.047 1.793-.218 2.426-.465a5.116 5.116 0 002.927-2.926c.246-.637.418-1.364.465-2.426.046-1.067.058-1.407.058-4.122 0-2.716-.004-3.055-.05-4.122zm-1.8 8.166c-.044.976-.208 1.504-.345 1.856a3.317 3.317 0 01-1.898 1.898c-.352.137-.883.301-1.856.344-1.055.047-1.371.059-4.04.059s-2.989-.012-4.04-.059c-.977-.043-1.504-.207-1.856-.344a3.077 3.077 0 01-1.148-.746 3.11 3.11 0 01-.747-1.149c-.136-.351-.3-.883-.343-1.855-.047-1.055-.06-1.372-.06-4.04.001-2.669.013-2.99.06-4.04.042-.977.207-1.504.343-1.856a3.04 3.04 0 01.75-1.149 3.105 3.105 0 011.15-.746c.35-.137.882-.3 1.855-.344 1.055-.047 1.371-.058 4.04-.058 2.672 0 2.989.011 4.04.058.976.043 1.504.207 1.856.344.433.16.828.414 1.148.746.332.325.586.715.747 1.149.136.352.3.883.343 1.856.047 1.055.059 1.371.059 4.04 0 2.668-.012 2.98-.059 4.036z" fill="#707070"/><path d="M10.002 5.38a5.139 5.139 0 00-5.138 5.138 5.139 5.139 0 105.138-5.138zm0 8.47a3.333 3.333 0 11.001-6.666 3.333 3.333 0 01-.001 6.667zm6.54-8.673a1.2 1.2 0 11-2.399 0 1.2 1.2 0 012.4 0z" fill="#707070"/></svg>