<svg width="16" height="16" fill="none" xmlns="http://www.w3.org/2000/svg"><path d="M.5 8.333c0-.642.524-1.166 1.167-1.166h2.5v7.552a1.143 1.143 0 01-.5.114h-2A1.169 1.169 0 01.5 13.667V8.333zm14.374-.2l.323-.353c.217-.238.328-.556.297-.89-.052-.569-.58-1.057-1.24-1.057H9.445l.216-.656c.203-.617.505-1.686.505-2.51 0-.583-.25-1.14-.595-1.556A2.21 2.21 0 009.043.64C8.866.53 8.735.5 8.666.5c-.386 0-.697.166-.833.254v2.283l-.046.1-1.92 4.16-.034.073v6.568c.417.15.874.229 1.167.229h6.119c.509 0 .927-.343 1.022-.773l.733-5.261zm0 0l.338.338m-.338-.338l.338.338m0 0c.183.182.288.43.288.696 0 .383-.22.72-.549.886l-.445.225.223.446a.993.993 0 01-.445 1.33l-.446.225m1.374-3.808l-1.374 3.808m0 0l.224.446m-.224-.446l.224.446m0 0a1 1 0 01.08.67l-.08-.67z" fill="#fff" stroke="#959595"/></svg>