<svg width="16" height="14" fill="none" xmlns="http://www.w3.org/2000/svg"><g opacity=".5" fill="#737373"><path d="M14.594.906H1.406c-.216 0-.419.053-.602.141l7.165 7.165L9.575 6.67l5.621-5.622a1.39 1.39 0 00-.602-.14zm1.266.804L10.57 7l5.29 5.29a1.39 1.39 0 00.14-.602V2.313a1.39 1.39 0 00-.14-.603zm-15.72 0a1.39 1.39 0 00-.14.602v9.375c0 .217.053.42.14.603L5.43 7 .14 1.71z"/><path d="M9.906 7.663L8.3 9.206a.467.467 0 01-.663 0L6.094 7.663l-5.29 5.29c.183.088.386.14.602.14h13.188c.216 0 .419-.053.602-.14l-5.29-5.29z"/></g></svg>