<svg width="14" height="16" fill="none" xmlns="http://www.w3.org/2000/svg"><path d="M6.573 7.707c1.06 0 1.976-.38 2.725-1.129a3.729 3.729 0 001.13-2.725 3.73 3.73 0 00-1.13-2.724A3.73 3.73 0 006.573 0C5.515 0 4.598.38 3.85 1.129a3.729 3.729 0 00-1.13 2.724c0 1.06.38 1.976 1.13 2.725a3.73 3.73 0 002.724 1.13zm6.743 4.596a9.522 9.522 0 00-.13-1.01 7.975 7.975 0 00-.248-1.017 5.023 5.023 0 00-.418-.948 3.576 3.576 0 00-.63-.821 2.778 2.778 0 00-.905-.57 3.142 3.142 0 00-1.155-.208c-.164 0-.322.067-.627.265a84.85 84.85 0 01-.652.421c-.21.134-.494.259-.844.372-.343.11-.69.167-1.033.167a3.35 3.35 0 01-1.033-.167 3.73 3.73 0 01-.843-.372 89.424 89.424 0 01-.653-.42c-.305-.2-.463-.266-.626-.266-.416 0-.805.07-1.156.209-.352.14-.656.33-.905.569-.238.227-.45.503-.63.82a5.032 5.032 0 00-.418.949c-.1.313-.183.654-.248 1.016a9.483 9.483 0 00-.13 1.011c-.021.307-.032.624-.032.945 0 .836.266 1.512.79 2.01.516.492 1.2.742 2.032.742h7.704c.832 0 1.517-.25 2.034-.742.523-.498.789-1.174.789-2.01 0-.322-.011-.64-.033-.945z" opacity=".5" fill="#737373"/></svg>