<svg width="44" height="69" fill="none" xmlns="http://www.w3.org/2000/svg"><path d="M21.709 0h-.099C9.694 0 0 9.691 0 21.603 0 29.41 3.556 39.715 10.569 52.23c5.2 9.279 10.472 16.385 10.524 16.456a.777.777 0 00.624.313h.02a.778.778 0 00.627-.347c.052-.079 5.287-7.984 10.451-17.653C39.785 37.95 43.32 28.06 43.32 21.603 43.32 9.69 33.625 0 21.709 0zm9.975 22.13c0 5.528-4.497 10.025-10.024 10.025-5.528 0-10.025-4.497-10.025-10.024 0-5.528 4.497-10.025 10.025-10.025 5.527 0 10.024 4.497 10.024 10.025z" fill="#313131"/></svg>