<svg width="17" height="15" fill="none" xmlns="http://www.w3.org/2000/svg"><path d="M2.183 9.82c.222-.418.51-.783.864-1.09l-.864 1.09zm0 0a5.59 5.59 0 00-.501 1.427h0a8.476 8.476 0 00-.176 1.803c0 .184.004.378.013.582C.822 12.012.5 10.777.5 9.9c0-1.202.16-2.176.461-2.937C1.855 4.741 4.303 3.5 8.7 3.5h2.6V.6c0-.025.003-.04.032-.068h0C11.36.503 11.375.5 11.4.5c.025 0 .04.003.068.032l.354-.354M2.183 9.821L11.822.178m-.844 10.444l.353-.354c.03.03.044.032.069.032.025 0 .04-.003.069-.032 0 0 0 0 0 0l4.8-4.8.353.354-.354-.353c.029-.029.032-.044.032-.069l-5.322 5.222zm0 0c.119.119.26.178.422.178a.58.58 0 00.422-.178L3.047 8.73a4.901 4.901 0 011.101-.725 5.87 5.87 0 011.364-.437c.498-.1 1-.17 1.504-.21.5-.039 1.062-.058 1.684-.058h2.6v2.9c0 .026.003.04.032.069l-.354.353zM11.822.178l-.354.354m.354-.354l-.354.354m0 0l4.8 4.8m-4.8-4.8l4.8 4.8m0 0s0 0 0 0m0 0h0m0 0c.029.028.032.043.032.068l-.032-.069z" fill="#F8F8F8" stroke="#959595"/></svg>