<svg width="31" height="29" fill="none" xmlns="http://www.w3.org/2000/svg"><path d="M5.012 10.024h-4.01C.45 10.024 0 10.473 0 11.026v16.038c0 .554.449 1.003 1.002 1.003h4.01c.553 0 1.002-.45 1.002-1.003V11.026c0-.553-.448-1.002-1.002-1.002zm25.04 2.656c-.177-1.554-1.63-2.656-3.195-2.656h-7.815c.664-1.19 1.021-4.553 1.005-5.927C20.021 1.823 18.137 0 15.863 0h-.827c-.554 0-1.002.448-1.002 1.002 0 2.318-.903 6.502-2.605 8.204-1.146 1.146-2.126 1.561-3.41 2.203v15.04c1.966.656 4.463 1.618 8.268 1.618h6.558c2.16 0 3.843-2.001 3.006-4.116a3.012 3.012 0 002.004-4.01c2.15-.585 2.94-3.239 1.45-4.905.547-.613.85-1.45.747-2.355z" fill="#FE6725"/></svg>