<svg width="28" height="28" fill="none" xmlns="http://www.w3.org/2000/svg"><path d="M27.341 10.812l-2.152-.468a11.712 11.712 0 00-.692-1.67l1.191-1.853a.837.837 0 00-.112-1.044l-3.353-3.353a.837.837 0 00-1.044-.112l-1.853 1.191a11.708 11.708 0 00-1.67-.692L17.188.659A.837.837 0 0016.371 0h-4.742a.837.837 0 00-.817.659l-.468 2.152a11.75 11.75 0 00-1.67.692L6.82 2.312a.837.837 0 00-1.044.112L2.424 5.777a.837.837 0 00-.112 1.044l1.191 1.853a11.711 11.711 0 00-.692 1.67l-2.152.468a.837.837 0 00-.659.817v4.742c0 .393.274.733.659.817l2.152.468c.187.573.419 1.132.692 1.67l-1.191 1.853a.837.837 0 00.112 1.044l3.353 3.353a.837.837 0 001.044.112l1.853-1.191a11.75 11.75 0 001.67.692l.468 2.152a.837.837 0 00.817.659h4.742a.837.837 0 00.817-.659l.468-2.152a11.71 11.71 0 001.67-.692l1.853 1.191a.837.837 0 001.044-.112l3.353-3.353a.837.837 0 00.112-1.044l-1.191-1.853a11.71 11.71 0 00.692-1.67l2.152-.468a.837.837 0 00.659-.817v-4.742a.837.837 0 00-.659-.817zM19.02 14A5.026 5.026 0 0114 19.02 5.026 5.026 0 018.98 14 5.026 5.026 0 0114 8.98 5.026 5.026 0 0119.02 14z" fill="#FE6725"/></svg>