<svg width="28" height="28" fill="none" xmlns="http://www.w3.org/2000/svg"><path d="M23.9 4.1A13.908 13.908 0 0014 0a13.91 13.91 0 00-9.9 4.1A13.908 13.908 0 000 14a13.91 13.91 0 004.1 9.9A13.908 13.908 0 0014 28a13.91 13.91 0 009.9-4.1A13.908 13.908 0 0028 14a13.91 13.91 0 00-4.1-9.9zM14 13.125a3.942 3.942 0 013.938 3.938 3.943 3.943 0 01-2.862 3.786.275.275 0 00-.201.264v.737c0 .471-.362.877-.833.899a.875.875 0 01-.917-.874v-.762a.274.274 0 00-.2-.264 3.944 3.944 0 01-2.862-3.762.89.89 0 01.849-.9c.495-.013.9.384.9.875a2.19 2.19 0 002.344 2.182 2.196 2.196 0 002.026-2.025A2.19 2.19 0 0014 14.875a3.942 3.942 0 01-3.938-3.938 3.944 3.944 0 012.862-3.786.275.275 0 00.201-.264V6.15c0-.471.362-.877.833-.899a.875.875 0 01.917.874v.762c0 .123.082.23.2.264a3.944 3.944 0 012.862 3.762.89.89 0 01-.849.9.875.875 0 01-.9-.876 2.19 2.19 0 00-2.344-2.182 2.196 2.196 0 00-2.026 2.026A2.19 2.19 0 0014 13.125z" fill="#FE6725"/></svg>