<svg width="32" height="32" viewBox="0 0 32 32" fill="none" xmlns="http://www.w3.org/2000/svg">
<path d="M18.8005 27.6003H13.2005C12.5339 27.6003 11.8672 27.0669 11.8672 26.2669C11.8672 25.4669 12.4005 24.9336 13.2005 24.9336H18.6672C19.3339 24.9336 20.0005 25.4669 20.0005 26.2669C20.0005 27.0669 19.4672 27.6003 18.8005 27.6003Z" fill="#56AF31"/>
<path d="M21.6013 31.7342H10.4013C8.4013 31.7342 6.66797 30.1342 6.66797 28.0009V4.00091C6.66797 1.86758 8.4013 0.267578 10.4013 0.267578H21.6013C23.6013 0.267578 25.3346 1.86758 25.3346 4.00091V28.0009C25.3346 30.1342 23.6013 31.7342 21.6013 31.7342ZM10.4013 2.80091C9.73464 2.80091 9.2013 3.33424 9.2013 4.00091V28.0009C9.2013 28.6676 9.73464 29.2009 10.4013 29.2009H21.6013C22.268 29.2009 22.8013 28.6676 22.8013 28.0009V4.00091C22.8013 3.33424 22.268 2.80091 21.6013 2.80091H10.4013Z" fill="#56AF31"/>
</svg>
