<svg width="56" height="24" viewBox="0 0 56 24" fill="none" xmlns="http://www.w3.org/2000/svg">
<path d="M2 8V12.001H3V18H2V21H18L21 21.001V21H22V18H21V12.001H22V8L12 2L2 8ZM6 18V12.001H8V18H6ZM11 18V12.001H13V18H11ZM18 18H16V12.001H18V18ZM14 8C13.9999 8.26271 13.9481 8.52283 13.8475 8.76552C13.7469 9.00821 13.5995 9.2287 13.4137 9.41442C13.2279 9.60014 13.0073 9.74744 12.7646 9.84791C12.5219 9.94839 12.2617 10.0001 11.999 10C11.7363 9.99993 11.4762 9.94812 11.2335 9.84753C10.9908 9.74693 10.7703 9.59952 10.5846 9.41371C10.3989 9.2279 10.2516 9.00733 10.1511 8.7646C10.0506 8.52186 9.99893 8.26171 9.999 7.999C9.99913 7.46843 10.21 6.95965 10.5853 6.58458C10.9605 6.20951 11.4694 5.99887 12 5.999C12.5306 5.99913 13.0393 6.21003 13.4144 6.58529C13.7895 6.96055 14.0001 7.46943 14 8Z" fill="#A7A7A7"/>
<path d="M34 8V12.001H35V18H34V21H50L53 21.001V21H54V18H53V12.001H54V8L44 2L34 8ZM38 18V12.001H40V18H38ZM43 18V12.001H45V18H43ZM50 18H48V12.001H50V18ZM46 8C45.9999 8.26271 45.9481 8.52283 45.8475 8.76552C45.7469 9.00821 45.5995 9.2287 45.4137 9.41442C45.2279 9.60014 45.0073 9.74744 44.7646 9.84791C44.5219 9.94839 44.2617 10.0001 43.999 10C43.7363 9.99993 43.4762 9.94812 43.2335 9.84753C42.9908 9.74693 42.7703 9.59952 42.5846 9.41371C42.3989 9.2279 42.2516 9.00733 42.1511 8.7646C42.0506 8.52186 41.9989 8.26171 41.999 7.999C41.9991 7.46843 42.21 6.95965 42.5853 6.58458C42.9605 6.20951 43.4694 5.99887 44 5.999C44.5306 5.99913 45.0393 6.21003 45.4144 6.58529C45.7895 6.96055 46.0001 7.46943 46 8Z" fill="#4F4F4F"/>
<path d="M26.8114 6.79188L26.621 6.32955C26.2453 6.48429 26.0031 6.85081 26.0031 7.25362V8.79049C23.1187 9.10131 20.6542 11.122 19.8354 13.9569L19.8353 13.9571C19.4665 15.2363 19.4946 16.2767 19.505 16.6627L19.5051 16.6647L19.5069 16.7541C19.5096 17.2012 19.8093 17.5933 20.2412 17.7119L20.2434 17.7125C20.3288 17.7356 20.417 17.7478 20.5066 17.7478C20.8525 17.7478 21.1821 17.5674 21.3653 17.26L21.3656 17.2596C22.3031 15.6837 23.3725 14.903 24.2925 14.5186C24.9553 14.2417 25.5578 14.1634 26.0031 14.1564V16.2484C26.0031 16.6506 26.2446 17.0167 26.6194 17.1718C26.9952 17.3281 27.4247 17.2403 27.7097 16.9553L32.207 12.4579L32.2071 12.4578C32.5976 12.0672 32.5977 11.4348 32.207 11.0441L27.7097 6.54676L27.7091 6.54615C27.4242 6.26224 26.9955 6.17473 26.6204 6.32981L26.8114 6.79188ZM26.8114 6.79188C26.9988 6.71441 27.2132 6.75789 27.3561 6.90031L31.8535 11.3977C32.0488 11.5931 32.0488 11.9089 31.8535 12.1043M26.8114 6.79188C26.6246 6.86883 26.5031 7.05174 26.5031 7.25362V9.25446C23.6278 9.37238 21.1193 11.3138 20.3157 14.0956L31.8535 12.1043M31.8535 12.1043L27.3561 16.6017C27.2132 16.7446 26.9988 16.7881 26.8114 16.7101C26.6246 16.6332 26.5031 16.4503 26.5031 16.2484V13.6764C25.5377 13.5824 22.9152 13.6769 20.9359 17.0039C20.8444 17.1573 20.6795 17.2478 20.5066 17.2478C20.4626 17.2478 20.4182 17.2418 20.3737 17.2298L31.8535 12.1043Z" fill="#56AF31" stroke="white"/>
</svg>
