<svg width="103" height="48" viewBox="0 0 103 48" fill="none" xmlns="http://www.w3.org/2000/svg">
<g clip-path="url(#clip0)">
<path d="M16.2771 28.8004C13.8771 28.8004 11.8945 26.8178 11.8945 24.4178C11.8945 22.0178 13.8771 20.0352 16.2771 20.0352C18.6771 20.0352 20.6597 22.0178 20.6597 24.4178C20.6597 26.8178 18.6771 28.8004 16.2771 28.8004ZM16.2771 22.3308C15.1293 22.3308 14.1902 23.2699 14.1902 24.4178C14.1902 25.5656 15.1293 26.5047 16.2771 26.5047C17.425 26.5047 18.3641 25.5656 18.3641 24.4178C18.3641 23.1656 17.425 22.3308 16.2771 22.3308Z" fill="#1D1D1B"/>
<path d="M41.5271 28.7984C39.1271 28.7984 37.1445 26.8158 37.1445 24.4158C37.1445 22.0158 39.1271 20.0332 41.5271 20.0332C43.9271 20.0332 45.9097 22.0158 45.9097 24.4158C46.0141 26.8158 44.0315 28.7984 41.5271 28.7984ZM41.5271 22.3289C40.3793 22.3289 39.4402 23.268 39.4402 24.4158C39.4402 25.5636 40.3793 26.5028 41.5271 26.5028C42.675 26.5028 43.6141 25.5636 43.6141 24.4158C43.6141 23.1636 42.675 22.3289 41.5271 22.3289Z" fill="#1D1D1B"/>
<path d="M26.0857 28.8004C23.6857 28.8004 21.7031 26.8178 21.7031 24.4178C21.7031 22.0178 23.6857 20.0352 26.0857 20.0352C27.2336 20.0352 28.3814 20.4525 29.2162 21.2873C29.6336 21.7047 29.6336 22.4352 29.2162 22.9569C28.7988 23.3743 28.0683 23.3743 27.5466 22.9569C27.1292 22.5395 26.6075 22.3308 26.0857 22.3308C24.9379 22.3308 23.9988 23.2699 23.9988 24.4178C23.9988 25.5656 24.9379 26.5047 26.0857 26.5047C26.7118 26.5047 27.3379 26.1917 27.7553 25.7743C28.1727 25.2525 28.9031 25.1482 29.4249 25.5656C29.9466 25.983 30.051 26.7134 29.6336 27.2352C28.6944 28.1743 27.4423 28.8004 26.0857 28.8004Z" fill="#1D1D1B"/>
<path d="M4.9105 16.6953H1.36267C0.736583 16.6953 0.214844 17.2171 0.214844 17.8431C0.214844 18.4692 0.736583 18.991 1.36267 18.991H1.46702V26.191H1.36267C0.736583 26.191 0.214844 26.7127 0.214844 27.3388C0.214844 27.9649 0.736583 28.4866 1.36267 28.4866H4.9105C8.14528 28.4866 10.8583 25.7736 10.8583 22.5388C10.8583 19.4084 8.14528 16.6953 4.9105 16.6953ZM4.9105 26.2953H3.76267V19.0953H4.9105C6.8931 19.0953 8.56267 20.7649 8.56267 22.7475C8.56267 24.7301 6.8931 26.2953 4.9105 26.2953Z" fill="#1D1D1B"/>
<path d="M34.7465 26.4008H34.5378C34.3291 26.4008 34.2247 26.1921 34.2247 26.0877V21.7051H34.6421C35.2682 21.7051 35.7899 21.1834 35.7899 20.5573C35.7899 19.9312 35.2682 19.4095 34.6421 19.4095H34.2247V17.9486C34.2247 17.3225 33.703 16.8008 33.0769 16.8008C32.4508 16.8008 31.9291 17.3225 31.9291 17.9486V19.4095C31.303 19.4095 30.7812 19.9312 30.7812 20.5573C30.7812 21.1834 31.303 21.7051 31.9291 21.7051V26.0877C31.9291 27.5486 33.1813 28.8008 34.6421 28.8008H34.8508C35.4769 28.8008 35.9986 28.279 35.9986 27.653C35.8943 26.9225 35.3726 26.4008 34.7465 26.4008Z" fill="#1D1D1B"/>
<path d="M51.3386 20.1384H51.0255C50.5038 20.1384 50.0864 20.2427 49.669 20.4514C49.4603 20.1384 49.1473 19.9297 48.7299 19.9297C48.1038 19.9297 47.582 20.4514 47.582 21.0775V27.5471C47.582 28.1732 48.1038 28.6949 48.7299 28.6949C49.3559 28.6949 49.8777 28.1732 49.8777 27.5471V23.8949C49.8777 23.6862 50.0864 22.5384 51.0255 22.5384H51.3386C51.9646 22.5384 52.4864 22.0166 52.4864 21.3906C52.4864 20.6601 51.9646 20.1384 51.3386 20.1384Z" fill="#1D1D1B"/>
<path d="M102.051 24.0003C102.051 37.1481 91.4079 47.7916 78.26 47.7916C65.1122 47.7916 54.4688 37.1481 54.4688 24.0003C54.4688 10.8525 65.1122 0.208984 78.26 0.208984C91.4079 0.208984 102.051 10.8525 102.051 24.0003Z" fill="#80BA27"/>
<path d="M92.7682 19.9316C90.3682 19.9316 88.2812 21.9142 88.2812 24.4186C88.2812 26.9229 90.2639 28.9056 92.7682 28.9056C95.1682 28.9056 97.2552 26.9229 97.2552 24.4186C97.2552 22.0186 95.1682 19.9316 92.7682 19.9316ZM92.7682 26.5056C91.6204 26.5056 90.6813 25.5664 90.6813 24.4186C90.6813 23.2708 91.6204 22.3316 92.7682 22.3316C93.916 22.3316 94.8552 23.2708 94.8552 24.4186C94.8552 25.5664 93.916 26.5056 92.7682 26.5056Z" fill="white"/>
<path d="M84.733 23.1645H81.8113V22.2253H85.2548C85.8808 22.2253 86.4026 21.7036 86.4026 21.0775C86.4026 20.4514 85.8808 19.9297 85.2548 19.9297H81.8113C80.5591 19.9297 79.5156 20.9732 79.5156 22.2253V23.1645C79.5156 24.4166 80.5591 25.4601 81.8113 25.4601H84.733V26.3992H80.8721C80.2461 26.3992 79.7243 26.921 79.7243 27.5471C79.7243 28.1732 80.2461 28.6949 80.8721 28.6949H84.733C85.9852 28.6949 87.0287 27.6514 87.0287 26.3992V25.4601C87.0287 24.3123 85.9852 23.1645 84.733 23.1645Z" fill="white"/>
<path d="M64.1761 16.6953H61.7761C61.15 16.6953 60.6283 17.2171 60.6283 17.8431V23.1649C60.0022 23.1649 59.4805 23.6866 59.4805 24.3127C59.4805 24.9388 60.0022 25.4605 60.6283 25.4605V27.6518C60.6283 28.2779 61.15 28.7997 61.7761 28.7997C62.4022 28.7997 62.9239 28.2779 62.9239 27.6518V25.4605H64.1761C66.5761 25.4605 68.5587 23.4779 68.5587 21.0779C68.5587 18.6779 66.5761 16.6953 64.1761 16.6953ZM64.1761 23.1649H62.9239V18.991H64.1761C65.3239 18.991 66.2631 19.9301 66.2631 21.0779C66.1587 22.2257 65.3239 23.1649 64.1761 23.1649Z" fill="white"/>
<path d="M73.7727 19.9297C71.3727 19.9297 69.7031 21.7036 69.7031 24.3123C69.7031 27.0253 71.2683 28.6949 73.7727 28.6949H76.0683C76.6944 28.6949 77.2162 28.1732 77.2162 27.5471C77.2162 26.921 76.6944 26.3992 76.0683 26.3992H73.7727C73.4596 26.3992 72.6249 26.3992 72.3118 25.4601H76.5901C77.2162 25.4601 77.7379 24.9384 77.7379 24.3123C77.8423 21.7036 76.277 19.9297 73.7727 19.9297ZM72.3118 23.4775C72.3118 23.3732 72.3118 23.2688 72.3118 23.1645C72.5205 22.5384 73.0423 22.3297 73.3553 22.3297C73.4596 22.3297 73.6683 22.2253 73.7727 22.2253C73.877 22.2253 74.0857 22.2253 74.1901 22.3297C74.5031 22.434 75.0249 22.5384 75.2336 23.1645C75.2336 23.2688 75.2336 23.3732 75.2336 23.4775H72.3118Z" fill="white"/>
</g>
<defs>
<clipPath id="clip0">
<rect width="102.261" height="48" fill="white"/>
</clipPath>
</defs>
</svg>
