<svg width="111" height="52" viewBox="0 0 111 52" fill="none" xmlns="http://www.w3.org/2000/svg">
<g clip-path="url(#clip0)">
<path d="M17.6345 31.1988C15.0345 31.1988 12.8867 29.0509 12.8867 26.4509C12.8867 23.8509 15.0345 21.7031 17.6345 21.7031C20.2345 21.7031 22.3824 23.8509 22.3824 26.4509C22.3824 29.0509 20.2345 31.1988 17.6345 31.1988ZM17.6345 24.1901C16.3911 24.1901 15.3737 25.2075 15.3737 26.4509C15.3737 27.6944 16.3911 28.7118 17.6345 28.7118C18.878 28.7118 19.8954 27.6944 19.8954 26.4509C19.8954 25.0944 18.878 24.1901 17.6345 24.1901Z" fill="#A7A7A1"/>
<path d="M44.99 31.1988C42.39 31.1988 40.2422 29.0509 40.2422 26.4509C40.2422 23.8509 42.39 21.7031 44.99 21.7031C47.59 21.7031 49.7378 23.8509 49.7378 26.4509C49.8509 29.0509 47.7031 31.1988 44.99 31.1988ZM44.99 24.1901C43.7465 24.1901 42.7291 25.2075 42.7291 26.4509C42.7291 27.6944 43.7465 28.7118 44.99 28.7118C46.2335 28.7118 47.2509 27.6944 47.2509 26.4509C47.2509 25.0944 46.2335 24.1901 44.99 24.1901Z" fill="#A7A7A1"/>
<path d="M28.2595 31.1988C25.6595 31.1988 23.5117 29.0509 23.5117 26.4509C23.5117 23.8509 25.6595 21.7031 28.2595 21.7031C29.503 21.7031 30.7465 22.1553 31.6508 23.0596C32.103 23.5118 32.103 24.3031 31.6508 24.8683C31.1987 25.3205 30.4074 25.3205 29.8422 24.8683C29.39 24.4162 28.8248 24.1901 28.2595 24.1901C27.0161 24.1901 25.9987 25.2075 25.9987 26.4509C25.9987 27.6944 27.0161 28.7118 28.2595 28.7118C28.9378 28.7118 29.6161 28.3727 30.0682 27.9205C30.5204 27.3553 31.3117 27.2423 31.8769 27.6944C32.4422 28.1466 32.5552 28.9379 32.103 29.5031C31.0856 30.5205 29.7291 31.1988 28.2595 31.1988Z" fill="#A7A7A1"/>
<path d="M5.31352 18.0898H1.47004C0.79178 18.0898 0.226562 18.6551 0.226562 19.3333C0.226562 20.0116 0.79178 20.5768 1.47004 20.5768H1.58308V28.3768H1.47004C0.79178 28.3768 0.226562 28.942 0.226562 29.6203C0.226562 30.2985 0.79178 30.8638 1.47004 30.8638H5.31352C8.81787 30.8638 11.757 27.9246 11.757 24.4203C11.757 21.029 8.81787 18.0898 5.31352 18.0898ZM5.31352 28.4898H4.07004V20.6898H5.31352C7.46134 20.6898 9.27004 22.4985 9.27004 24.6464C9.27004 26.7942 7.46134 28.4898 5.31352 28.4898Z" fill="#A7A7A1"/>
<path d="M37.6433 28.5992H37.4172C37.1911 28.5992 37.0781 28.3731 37.0781 28.2601V23.5123H37.5303C38.2085 23.5123 38.7737 22.947 38.7737 22.2688C38.7737 21.5905 38.2085 21.0253 37.5303 21.0253H37.0781V19.4427C37.0781 18.7644 36.5129 18.1992 35.8346 18.1992C35.1564 18.1992 34.5911 18.7644 34.5911 19.4427V21.0253C33.9129 21.0253 33.3477 21.5905 33.3477 22.2688C33.3477 22.947 33.9129 23.5123 34.5911 23.5123V28.2601C34.5911 29.8427 35.9477 31.1992 37.5303 31.1992H37.7564C38.4346 31.1992 38.9998 30.634 38.9998 29.9557C38.8868 29.1644 38.3216 28.5992 37.6433 28.5992Z" fill="#A7A7A1"/>
<path d="M55.6164 21.8159H55.2773C54.7121 21.8159 54.2599 21.929 53.8077 22.1551C53.5817 21.8159 53.2425 21.5898 52.7904 21.5898C52.1121 21.5898 51.5469 22.1551 51.5469 22.8333V29.842C51.5469 30.5203 52.1121 31.0855 52.7904 31.0855C53.4686 31.0855 54.0338 30.5203 54.0338 29.842V25.8855C54.0338 25.6594 54.2599 24.4159 55.2773 24.4159H55.6164C56.2947 24.4159 56.8599 23.8507 56.8599 23.1725C56.8599 22.3811 56.2947 21.8159 55.6164 21.8159Z" fill="#A7A7A1"/>
<path d="M110.556 26.0005C110.556 40.244 99.0252 51.7744 84.7817 51.7744C70.5382 51.7744 59.0078 40.244 59.0078 26.0005C59.0078 11.757 70.5382 0.226562 84.7817 0.226562C99.0252 0.226562 110.556 11.757 110.556 26.0005Z" fill="#A7A7A1"/>
<path d="M100.498 21.5938C97.8976 21.5938 95.6367 23.7416 95.6367 26.4546C95.6367 29.1677 97.7846 31.3155 100.498 31.3155C103.098 31.3155 105.358 29.1677 105.358 26.4546C105.358 23.8546 103.098 21.5938 100.498 21.5938ZM100.498 28.7155C99.2541 28.7155 98.2367 27.6981 98.2367 26.4546C98.2367 25.2111 99.2541 24.1937 100.498 24.1937C101.741 24.1937 102.758 25.2111 102.758 26.4546C102.758 27.6981 101.741 28.7155 100.498 28.7155Z" fill="#1D1D1B"/>
<path d="M91.7928 25.0942H88.6276V24.0768H92.358C93.0363 24.0768 93.6015 23.5116 93.6015 22.8333C93.6015 22.1551 93.0363 21.5898 92.358 21.5898H88.6276C87.2711 21.5898 86.1406 22.7203 86.1406 24.0768V25.0942C86.1406 26.4507 87.2711 27.5811 88.6276 27.5811H91.7928V28.5985H87.6102C86.9319 28.5985 86.3667 29.1638 86.3667 29.842C86.3667 30.5203 86.9319 31.0855 87.6102 31.0855H91.7928C93.1493 31.0855 94.2798 29.9551 94.2798 28.5985V27.5811C94.2798 26.3377 93.1493 25.0942 91.7928 25.0942Z" fill="#1D1D1B"/>
<path d="M69.5245 18.0898H66.9245C66.2462 18.0898 65.681 18.6551 65.681 19.3333V25.0985C65.0027 25.0985 64.4375 25.6638 64.4375 26.342C64.4375 27.0203 65.0027 27.5855 65.681 27.5855V29.9594C65.681 30.6377 66.2462 31.2029 66.9245 31.2029C67.6027 31.2029 68.1679 30.6377 68.1679 29.9594V27.5855H69.5245C72.1244 27.5855 74.2723 25.4377 74.2723 22.8377C74.2723 20.2377 72.1244 18.0898 69.5245 18.0898ZM69.5245 25.0985H68.1679V20.5768H69.5245C70.7679 20.5768 71.7853 21.5942 71.7853 22.8377C71.6723 24.0811 70.7679 25.0985 69.5245 25.0985Z" fill="#1D1D1B"/>
<path d="M79.9204 21.5898C77.3204 21.5898 75.5117 23.5116 75.5117 26.3377C75.5117 29.2768 77.2074 31.0855 79.9204 31.0855H82.4074C83.0856 31.0855 83.6508 30.5203 83.6508 29.842C83.6508 29.1638 83.0856 28.5985 82.4074 28.5985H79.9204C79.5813 28.5985 78.6769 28.5985 78.3378 27.5811H82.9726C83.6508 27.5811 84.2161 27.0159 84.2161 26.3377C84.3291 23.5116 82.6334 21.5898 79.9204 21.5898ZM78.3378 25.4333C78.3378 25.3203 78.3378 25.2072 78.3378 25.0942C78.5639 24.4159 79.1291 24.1898 79.4682 24.1898C79.5813 24.1898 79.8074 24.0768 79.9204 24.0768C80.0334 24.0768 80.2595 24.0768 80.3726 24.1898C80.7117 24.3029 81.2769 24.4159 81.503 25.0942C81.503 25.2072 81.503 25.3203 81.503 25.4333H78.3378Z" fill="#1D1D1B"/>
</g>
<defs>
<clipPath id="clip0">
<rect width="110.783" height="52" fill="white"/>
</clipPath>
</defs>
</svg>
