<svg width="36" height="36" viewBox="0 0 36 36" fill="none" xmlns="http://www.w3.org/2000/svg">
<circle cx="18" cy="18" r="18" fill="#1877F2"/>
<g clip-path="url(#clip0)">
<path d="M23 9H13C10.8 9 9 10.8 9 13V23C9 25.2 10.75 27 12.95 27H17.1C17.4 27 17.65 26.75 17.65 26.45C17.65 26.35 17.65 21.3 17.65 21.2C17.65 20.9 17.4 20.65 17.1 20.65H15.4V18.75H17.1C17.4 18.75 17.65 18.5 17.65 18.2V16.1C17.65 14.25 19.15 12.8 20.95 12.8H22.5V14.7H21.55C20.85 14.7 20.25 15.3 20.25 16V18.25C20.25 18.55 20.5 18.8 20.8 18.8H23.1L22.65 20.7H20.85C20.55 20.7 20.3 20.95 20.3 21.25V26.5C20.3 26.8 20.55 27.05 20.85 27.05H23C25.2 27.05 27 25.25 27 23.05V13C27 10.8 25.2 9 23 9ZM25.5 23C25.5 24.4 24.4 25.5 23 25.5H21.8V22.1H22.65C23.35 22.1 23.95 21.65 24.1 20.95L24.55 19.05C24.65 18.6 24.55 18.15 24.3 17.75C24.05 17.35 23.6 17.15 23.1 17.15H21.75V16H22.5C23.35 16 24 15.35 24 14.5V12.75C24 11.9 23.35 11.25 22.5 11.25H21C18.35 11.25 16.2 13.4 16.2 16.05V17.25H15.45C14.6 17.25 13.95 17.9 13.95 18.75V20.65C13.95 21.5 14.6 22.15 15.45 22.15H16.2C16.2 23.1 16.2 24.55 16.2 25.55H13C11.6 25.55 10.5 24.45 10.5 23.05V13C10.5 11.6 11.6 10.5 13 10.5H23C24.4 10.5 25.5 11.6 25.5 13V23Z" fill="white"/>
</g>
<defs>
<clipPath id="clip0">
<rect width="18" height="18" fill="white" transform="translate(9 9)"/>
</clipPath>
</defs>
</svg>
