<svg width="32" height="32" viewBox="0 0 32 32" fill="none" xmlns="http://www.w3.org/2000/svg">
<path d="M24.3987 30.6673H5.33203C3.1987 30.6673 1.33203 28.934 1.33203 26.6673V17.334C1.33203 15.2006 3.06536 13.334 5.33203 13.334H8.53203L13.4654 2.13398C13.732 1.73398 14.132 1.33398 14.6654 1.33398C17.5987 1.33398 19.9987 3.73398 19.9987 6.66732V10.6673H26.2654C26.3987 10.6673 26.6654 10.6673 26.932 10.6673C27.9987 10.8006 28.932 11.334 29.4654 12.2673C30.132 13.0673 30.3987 14.134 30.132 15.2006L28.2654 27.2006C27.9987 29.2006 26.3987 30.6673 24.3987 30.6673ZM10.6654 28.0006H24.3987C25.0654 28.0006 25.732 27.4673 25.8654 26.8006L27.732 14.8006C27.732 14.4006 27.732 14.0006 27.4654 13.734C27.1987 13.4673 26.932 13.2006 26.532 13.2006C26.3987 13.2006 26.3987 13.2006 26.2654 13.2006L18.6654 13.334C17.9987 13.334 17.332 12.8006 17.332 12.0006V6.66732C17.332 5.46732 16.532 4.40065 15.332 4.00065L10.6654 14.934V28.0006ZM5.33203 16.0006C4.53203 16.0006 3.9987 16.6673 3.9987 17.334V26.6673C3.9987 27.4673 4.66536 28.0006 5.33203 28.0006H7.9987V16.0006H5.33203Z" fill="#56AF31"/>
</svg>
