<svg width="22" height="22" viewBox="0 0 22 22" fill="none" xmlns="http://www.w3.org/2000/svg">
<g clip-path="url(#clip0)">
<path d="M22 4.42425C20.6161 4.48804 20.6463 4.48283 20.4899 4.49593L21.3095 2.1553C21.3095 2.1553 18.7512 3.09642 18.1026 3.26477C16.3993 1.73384 13.8675 1.6662 12.0574 2.77869C10.5752 3.68993 9.77959 5.25476 10.045 7.08379C7.16017 6.68347 4.72958 5.31602 2.81059 3.01082L2.20366 2.28186L1.75014 3.11471C1.17694 4.16711 0.986603 5.37041 1.21404 6.50287C1.30736 6.96747 1.46597 7.41058 1.68568 7.8255L1.16502 7.62375L1.10326 8.4937C1.04065 9.37741 1.33488 10.409 1.89046 11.2529C2.04689 11.4906 2.24831 11.7516 2.5036 12.0091L2.23454 11.9678L2.56285 12.9646C2.99438 14.2743 3.89069 15.2876 5.05386 15.8509C3.8922 16.3439 2.95377 16.6584 1.41125 17.1658L0 17.6298L1.3035 18.3424C1.80049 18.6142 3.55667 19.5217 5.29187 19.794C9.14899 20.3989 13.4917 19.9063 16.4152 17.2733C18.8777 15.0555 19.6857 11.9008 19.5179 8.6179C19.4925 8.12091 19.6287 7.64657 19.9012 7.28252C20.4473 6.55356 21.9966 4.42912 22 4.42425V4.42425ZM18.8705 6.51042C18.4178 7.11484 18.1911 7.88676 18.2317 8.6837C18.401 11.9951 17.5 14.5632 15.5535 16.3162C13.2797 18.3641 9.61208 19.1679 5.49144 18.5215C4.74519 18.4045 3.97394 18.1425 3.33562 17.8809C4.62888 17.4359 5.62756 17.0393 7.2404 16.2759L9.4919 15.2102L7.00609 15.0511C5.81538 14.9749 4.82391 14.3979 4.21446 13.461C4.53807 13.4422 4.8501 13.3898 5.16078 13.3032L7.53162 12.6429L5.14098 12.0574C3.97931 11.7729 3.31715 11.0779 2.96619 10.5448C2.73573 10.1945 2.58517 9.83563 2.49487 9.50481C2.73456 9.56909 3.01402 9.61491 3.46469 9.65956L5.67741 9.87843L3.92426 8.51082C2.66104 7.52556 2.15482 6.04532 2.52592 4.62231C6.46831 8.71139 11.0972 8.40407 11.5631 8.51216C11.4606 7.51599 11.4579 7.51364 11.431 7.41881C10.8343 5.30948 12.142 4.23845 12.7318 3.8759C13.9638 3.11874 15.9194 3.00461 17.2739 4.25204C17.5665 4.52127 17.9621 4.62718 18.3324 4.5352C18.6647 4.45262 18.9375 4.36517 19.2045 4.27L18.6486 5.8575L19.3583 5.858C19.2243 6.0376 19.0637 6.25261 18.8705 6.51042Z" fill="#A7A7A1" stroke="#A7A7A1" stroke-width="0.3"/>
</g>
<defs>
<clipPath id="clip0">
<rect width="22" height="22" fill="white"/>
</clipPath>
</defs>
</svg>
