<svg width="22" height="20" viewBox="0 0 22 20" fill="none" xmlns="http://www.w3.org/2000/svg">
<path d="M22 3.42425C20.6161 3.48804 20.6463 3.48283 20.4899 3.49592L21.3095 1.1553C21.3095 1.1553 18.7512 2.09642 18.1026 2.26477C16.3993 0.73384 13.8675 0.666198 12.0574 1.77869C10.5752 2.68993 9.77959 4.25476 10.045 6.08379C7.16017 5.68347 4.72958 4.31602 2.81059 2.01082L2.20366 1.28186L1.75014 2.11471C1.17694 3.16711 0.986603 4.37041 1.21404 5.50287C1.30736 5.96747 1.46597 6.41058 1.68568 6.8255L1.16502 6.62375L1.10326 7.4937C1.04065 8.37741 1.33488 9.409 1.89046 10.2529C2.04689 10.4906 2.24831 10.7516 2.5036 11.0091L2.23454 10.9678L2.56285 11.9646C2.99438 13.2743 3.89069 14.2876 5.05386 14.8509C3.8922 15.3439 2.95377 15.6584 1.41125 16.1658L0 16.6298L1.3035 17.3424C1.80049 17.6142 3.55667 18.5217 5.29187 18.794C9.14899 19.3989 13.4917 18.9063 16.4152 16.2733C18.8777 14.0555 19.6857 10.9008 19.5179 7.6179C19.4925 7.12091 19.6287 6.64657 19.9012 6.28252C20.4473 5.55356 21.9966 3.42912 22 3.42425ZM18.8705 5.51042C18.4178 6.11484 18.1911 6.88676 18.2317 7.6837C18.401 10.9951 17.5 13.5632 15.5535 15.3162C13.2797 17.3641 9.61208 18.1679 5.49144 17.5215C4.74519 17.4045 3.97394 17.1425 3.33562 16.8809C4.62888 16.4359 5.62756 16.0393 7.2404 15.2759L9.4919 14.2102L7.00609 14.0511C5.81538 13.9749 4.82391 13.3979 4.21446 12.461C4.53807 12.4422 4.8501 12.3898 5.16078 12.3032L7.53162 11.6429L5.14098 11.0574C3.97931 10.7729 3.31715 10.0779 2.96619 9.54478C2.73573 9.19449 2.58517 8.83563 2.49487 8.50481C2.73456 8.56909 3.01402 8.61491 3.46469 8.65956L5.67741 8.87843L3.92426 7.51082C2.66104 6.52556 2.15482 5.04532 2.52592 3.62231C6.46831 7.71139 11.0972 7.40407 11.5631 7.51216C11.4606 6.51599 11.4579 6.51364 11.431 6.41881C10.8343 4.30948 12.142 3.23845 12.7318 2.8759C13.9638 2.11874 15.9194 2.00461 17.2739 3.25204C17.5665 3.52127 17.9621 3.62718 18.3324 3.5352C18.6647 3.45262 18.9375 3.36517 19.2045 3.27L18.6486 4.8575L19.3583 4.858C19.2243 5.0376 19.0637 5.25261 18.8705 5.51042Z" fill="#A7A7A1" stroke="#A7A7A1" stroke-width="0.3"/>
</svg>
