<svg width="24" height="24" viewBox="0 0 24 24" fill="none" xmlns="http://www.w3.org/2000/svg">
<g clip-path="url(#clip0_601:1178)">
<path d="M12.3352 2C14.9352 2 17.3352 3 19.1352 4.8C21.0019 6.66667 22.0019 9.06667 22.0019 11.6667C22.0019 14.2667 21.0019 16.6667 19.2019 18.4667C17.4019 20.2667 14.9352 21.2667 12.4019 21.2667C10.8685 21.2667 9.33522 20.8667 8.00188 20.2L7.26855 19.8L6.46855 20.0667L2.66855 21.4L4.00188 17.6L4.26855 16.8L3.86855 16.0667C3.13522 14.7333 2.80188 13.2 2.80188 11.6667C2.80188 9.06667 3.80188 6.66667 5.60188 4.86667C6.53522 3.93333 7.53522 3.26667 8.73522 2.8C9.86855 2.26667 11.0685 2 12.3352 2ZM12.3352 0C10.8019 0 9.26855 0.266667 7.86855 0.866667C6.46855 1.46667 5.20188 2.33333 4.06855 3.4C1.86855 5.6 0.66855 8.53333 0.66855 11.6C0.66855 13.4667 1.13522 15.2667 1.93522 16.9333L0.00188302 22.5333C-0.13145 22.9333 -0.0647836 23.3333 0.26855 23.6667C0.535216 23.8667 0.801883 24 1.06855 24C1.20188 24 1.33522 24 1.40188 23.9333L7.00188 22C8.66855 22.8667 10.4685 23.2667 12.3352 23.2667C15.4685 23.2667 18.3352 22.0667 20.5352 19.8667C22.7352 17.6667 23.9352 14.7333 23.9352 11.6667C23.9352 8.53333 22.7352 5.66667 20.5352 3.46667C18.4019 1.2 15.4685 0 12.3352 0Z" fill="#1D1D1B"/>
<path d="M15.4668 17.0674C15.0668 17.0674 14.5335 16.9341 13.8668 16.6674C12.6668 16.1341 11.2668 15.2008 10.0668 13.9341C8.86681 12.6674 7.86681 11.3341 7.33348 10.1341C6.86681 9.00078 6.80015 8.13411 7.20015 7.73411L8.13348 6.80078C8.46681 6.46745 9.00015 6.46745 9.33348 6.80078L10.2668 7.73411C10.6001 8.06745 10.6001 8.60078 10.2668 8.93411C9.80015 9.40078 9.66681 10.1341 10.0001 10.7341C10.8001 12.0674 11.9335 13.2008 13.2668 14.0008C13.8668 14.3341 14.6001 14.2008 15.0668 13.7341C15.4001 13.4008 15.9335 13.4008 16.2668 13.7341L17.2001 14.6674C17.5335 15.0008 17.5335 15.5341 17.2001 15.8674L16.2668 16.8008C16.1335 16.9341 15.8001 17.0674 15.4668 17.0674Z" fill="#1D1D1B"/>
</g>
<defs>
<clipPath id="clip0_601:1178">
<rect width="24" height="24" fill="white"/>
</clipPath>
</defs>
</svg>
