<svg width="183" height="65" fill="none" xmlns="http://www.w3.org/2000/svg"><g clip-path="url(#clip0_10297_7874)"><path d="M70.813 44.993h.799c3.056 0 4.208-1.51 4.42-5.735l.188-3.8h2.562v9.535h3.15V32.91H73.21l-.188 5.074c-.117 3.233-.681 4.248-1.88 4.436l-.33.048v2.525zM83.48 32.91v12.083h2.728l4.349-6.348h.07v6.348h3.268V32.91h-2.774l-4.279 6.325h-.094V32.91h-3.267zm20.422 0h-8.463v12.083h3.268v-9.44h5.195V32.91zm2.811 12.083l.693-2.313h3.973l.694 2.313h3.526l-3.973-12.083h-4.467l-3.973 12.083h3.527zm1.434-4.767l1.199-3.988h.094l1.199 3.988h-2.492zm23.147-2.786c-.258-2.997-2.445-4.696-5.477-4.696-3.245 0-5.807 2.171-5.807 6.206 0 4.018 2.492 6.207 5.807 6.207 3.526 0 5.313-2.454 5.477-4.507l-3.315-.024c-.164 1.032-.893 1.675-2.092 1.675-1.593 0-2.515-1.132-2.515-3.35 0-2.1.893-3.351 2.539-3.351 1.257 0 1.974.743 2.068 1.84h3.315zm1.083 7.553h.799c3.057 0 4.209-1.51 4.42-5.735l.188-3.8h2.563v9.535h3.15V32.91h-8.722l-.188 5.074c-.118 3.233-.682 4.248-1.881 4.436l-.329.048v2.525zm15.794 0l.694-2.313h3.973l.693 2.313h3.527l-3.974-12.083h-4.466l-3.973 12.083h3.526zm1.434-4.767l1.199-3.988h.094l1.199 3.988h-2.492zm8.612 4.767h5.666c2.615 0 4.231-1.434 4.231-3.422 0-1.705-1.252-2.82-2.797-2.88v-.117c1.393-.277 2.327-1.31 2.327-2.643 0-1.84-1.458-3.02-4.208-3.02h-5.219v12.082zm3.268-2.62v-2.548h1.575c.993 0 1.598.472 1.598 1.321 0 .808-.546 1.227-1.645 1.227h-1.528zm0-4.578v-2.313h1.387c.811 0 1.41.413 1.41 1.157 0 .743-.599 1.156-1.457 1.156h-1.34zm11.124-.825v-4.06h-3.267v12.083h4.49c3.038 0 5.06-1.652 5.054-4.06.006-2.406-2.016-3.964-5.054-3.964h-1.223zm10.392-4.06h-3.268v12.083h3.268V32.91zm-10.392 6.56h1.223c1.181 0 1.816.614 1.81 1.44.006.873-.629 1.51-1.81 1.51h-1.223v-2.95zM76.726 22.284c-.183-1.54-1.332-2.425-2.852-2.425-1.736 0-3.061 1.243-3.061 3.424 0 2.173 1.302 3.423 3.06 3.423 1.685 0 2.702-1.136 2.853-2.363l-1.405-.006c-.132.713-.684 1.123-1.425 1.123-.998 0-1.675-.752-1.675-2.177 0-1.387.667-2.177 1.685-2.177.76 0 1.309.445 1.415 1.178h1.405zm.971 4.332h1.29v-3.909h1.714v3.909h1.306v-4.999h-4.31v4.998zm7.627.096c1.495 0 2.426-1.038 2.426-2.577 0-1.55-.93-2.584-2.426-2.584-1.495 0-2.426 1.035-2.426 2.584 0 1.539.93 2.577 2.426 2.577zm.007-1.074c-.69 0-1.043-.641-1.043-1.513 0-.872.353-1.517 1.043-1.517.677 0 1.03.645 1.03 1.517 0 .872-.353 1.513-1.03 1.513zm3.308 2.85h1.367v-2.674h.041c.19.416.603.881 1.4.881 1.122 0 1.998-.9 1.998-2.573 0-1.719-.914-2.571-1.995-2.571-.825 0-1.22.498-1.403.904h-.06v-.84h-1.348v6.873zm1.338-4.373c0-.892.372-1.461 1.036-1.461.677 0 1.036.595 1.036 1.461 0 .872-.365 1.477-1.036 1.477-.658 0-1.036-.585-1.036-1.477zm3.902-1.408h1.575v3.909h1.303v-3.909h1.588v-1.09H93.88v1.09zm6.601 2.08v-3.17h-1.306v4.998h1.357l1.768-3.179v3.18h1.303v-4.999h-1.348l-1.774 3.17zm4.217 1.829h2.426c1.232 0 1.918-.511 1.918-1.364 0-.657-.513-1.178-1.399-1.243.706-.124 1.127-.501 1.127-1.041 0-.866-.754-1.35-1.97-1.35h-2.102v4.998zm1.274-1.039v-1.09h1.152c.378 0 .609.218.609.573 0 .322-.231.517-.609.517h-1.152zm0-1.903v-.996h.828c.423 0 .683.185.683.491 0 .316-.247.505-.655.505h-.856zm5.239-2.057h-1.306v4.998h1.306v-1.962h1.684v1.963h1.297v-4.999h-1.297v1.946h-1.684v-1.946zm5.348 1.536v-1.536h-1.306v4.998h2.33c1.306 0 2.073-.693 2.076-1.724-.003-1.051-.77-1.738-2.076-1.738h-1.024zm3.629 3.463h1.367v-4.999h-1.367v4.998zm-3.629-2.373h1.024c.459 0 .783.274.789.658-.006.364-.33.624-.789.624h-1.024v-1.282zm7.394.544v-3.17h-1.306v4.998h1.357l1.768-3.179v3.18h1.303v-4.999h-1.348l-1.774 3.17zm1.54-4.914c0 .306-.18.582-.636.582-.468 0-.641-.283-.638-.582h-.947c0 .787.613 1.315 1.585 1.315.973 0 1.585-.527 1.589-1.315h-.953zm6.996 6.839c1.313 0 2.136-.781 2.201-1.93H133.4c-.081.534-.427.833-.896.833-.638 0-1.052-.543-1.052-1.5 0-.944.417-1.484 1.052-1.484.501 0 .822.335.896.833h1.289c-.058-1.155-.92-1.913-2.207-1.913-1.495 0-2.42 1.05-2.42 2.584 0 1.52.909 2.577 2.426 2.577zm5.322 0c1.219 0 2.041-.602 2.233-1.53l-1.264-.084c-.138.38-.491.579-.947.579-.683 0-1.116-.459-1.116-1.204v-.003h3.356v-.381c0-1.699-1.014-2.538-2.317-2.538-1.45 0-2.39 1.044-2.39 2.587 0 1.584.927 2.574 2.445 2.574zm-1.094-3.101c.029-.57.455-1.025 1.062-1.025.593 0 1.004.43 1.007 1.025h-2.069zm4.249 4.877h1.367v-2.674h.042c.189.416.603.881 1.399.881 1.123 0 1.999-.9 1.999-2.573 0-1.719-.915-2.571-1.996-2.571-.825 0-1.22.498-1.402.904h-.061v-.84h-1.348v6.873zm1.338-4.373c0-.892.372-1.461 1.036-1.461.677 0 1.037.595 1.037 1.461 0 .872-.366 1.477-1.037 1.477-.657 0-1.036-.585-1.036-1.477zm4.379 2.501h2.426c1.232 0 1.918-.511 1.918-1.364 0-.657-.513-1.178-1.399-1.243.706-.124 1.127-.501 1.127-1.041 0-.866-.754-1.35-1.97-1.35h-2.102v4.998zm1.274-1.039v-1.09h1.152c.378 0 .609.218.609.573 0 .322-.231.517-.609.517h-1.152zm0-1.903v-.996h.828c.423 0 .683.185.683.491 0 .316-.247.505-.655.505h-.856zm5.239 1.113v-3.17h-1.306v4.998h1.357l1.768-3.179v3.18h1.303v-4.999h-1.348l-1.774 3.17zm6.444 1.925c1.312 0 2.137-.781 2.201-1.93h-1.29c-.08.534-.427.833-.895.833-.639 0-1.053-.543-1.053-1.5 0-.944.417-1.484 1.053-1.484.5 0 .821.335.895.833h1.29c-.058-1.155-.921-1.913-2.208-1.913-1.495 0-2.419 1.05-2.419 2.584 0 1.52.908 2.577 2.426 2.577z" fill="#9EDEF0"/><path d="M46.117 50.777a1.754 1.754 0 00-1.546 1.545l-.824 7.084-11.694-11.687 3.808-3.811h7.393a1.76 1.76 0 001.76-1.76v-.383l8.189 8.188-7.086.824zm-21.221-9.871a1.762 1.762 0 00-1.247-.517h-6.361v-6.36a1.76 1.76 0 00-.518-1.245l-4.499-4.494 4.5-4.494c.33-.33.517-.778.517-1.246v-6.359h6.361c.468 0 .915-.186 1.247-.517l2.08-2.083c.039-.039.07-.085.106-.13.732.26 1.51.4 2.309.4.8 0 1.577-.14 2.31-.4.034.045.066.091.105.13l2.08 2.083c.331.33.779.517 1.247.517h6.361v6.36c0 .467.187.914.517 1.245l4.5 4.494-4.5 4.494a1.76 1.76 0 00-.517 1.246v3.051a1.81 1.81 0 000 .777v2.53h-6.361c-.468 0-.916.187-1.247.518l-4.495 4.497-4.495-4.497zM29.39 3.519a3.417 3.417 0 013.415 3.41c0 .915-.356 1.774-1 2.414-.64.644-1.5 1-2.415 1a3.383 3.383 0 01-2.415-1c-.644-.64-1-1.499-1-2.414 0-1.88 1.532-3.41 3.415-3.41zm28.874 46.515L45.015 36.79v-2.03l5.227-5.223a1.76 1.76 0 000-2.492l-5.228-5.222v-7.39a1.76 1.76 0 00-1.76-1.76h-7.393l-1.218-1.22a6.88 6.88 0 001.683-4.523c0-3.823-3.112-6.93-6.935-6.93-3.823 0-6.935 3.107-6.935 6.93 0 1.681.598 3.265 1.683 4.521l-1.219 1.221h-7.392a1.76 1.76 0 00-1.76 1.76v7.39L8.54 27.044a1.76 1.76 0 000 2.492l5.228 5.222v1.981L.512 50.038a1.764 1.764 0 00-.415 1.823 1.76 1.76 0 001.457 1.165l9.322 1.084 1.085 9.315a1.758 1.758 0 002.992 1.041L28.486 50.94l-2.556-2.421-10.895 10.888-.824-7.084a1.755 1.755 0 00-1.545-1.545l-7.097-.827 8.198-8.224v.422c0 .971.79 1.76 1.76 1.76h7.393l20.908 20.558a1.756 1.756 0 001.823.419 1.759 1.759 0 001.17-1.46l1.084-9.315 9.322-1.084a1.758 1.758 0 001.038-2.992z" fill="#FF8B00"/><path d="M25.104 24.147c0-.919.56-1.562 1.682-1.928l2.57-.875h.853c.658 0 1.18.192 1.564.577.387.386.58.907.58 1.564v11.971c-.173.03-.424.07-.753.122a6.372 6.372 0 01-1.907.012 1.54 1.54 0 01-.68-.276 1.339 1.339 0 01-.425-.56c-.101-.236-.152-.544-.152-.926v-8.593l-2.288.709a3.157 3.157 0 01-.697-.64c-.232-.278-.348-.663-.348-1.157z" fill="#FF8B00"/></g><defs><clipPath id="clip0_10297_7874"><path fill="#fff" d="M0 0h183v65H0z"/></clipPath></defs></svg>