<svg width="23" height="28" fill="none" xmlns="http://www.w3.org/2000/svg"><path d="M11.5 16.47a4.122 4.122 0 00-4.117 4.118 4.122 4.122 0 004.118 4.118 4.122 4.122 0 004.117-4.118 4.122 4.122 0 00-4.117-4.117zm0 6.589a2.473 2.473 0 01-2.47-2.47 2.473 2.473 0 012.47-2.471 2.473 2.473 0 012.471 2.47 2.473 2.473 0 01-2.47 2.47z" fill="#004170"/><path d="M22.356 3.927L18.43 0H4.57L.645 3.927l5.068 12.037a7.376 7.376 0 00-1.624 4.624C4.088 24.675 7.413 28 11.5 28s7.412-3.325 7.412-7.412a7.376 7.376 0 00-1.624-4.624l5.068-12.037zm-6.332 10.795a7.396 7.396 0 00-2.377-1.228l3.813-9.057.912-2.165 2.037 2.036-4.385 10.414zm-5.01-1.53l-3.475-8.25h7.922l-3.474 8.25a7.215 7.215 0 00-.973 0zM6.846 3.295l-.694-1.647h10.696l-.693 1.647h-9.31zM4.628 2.272l.912 2.165 3.813 9.057a7.4 7.4 0 00-2.377 1.228L2.592 4.308l2.036-2.036zm6.872 24.08a5.771 5.771 0 01-5.764-5.764 5.771 5.771 0 015.764-5.765 5.771 5.771 0 015.765 5.765 5.771 5.771 0 01-5.765 5.765z" fill="#004170"/></svg>