<svg width="14" height="14" fill="none" xmlns="http://www.w3.org/2000/svg"><path fill-rule="evenodd" clip-rule="evenodd" d="M7 14A7 7 0 107 0a7 7 0 000 14zM5.692 5H4c0-1.8 1.283-3 3.2-3 1.786 0 3 1.145 3 2.7 0 1.01-.42 1.741-1.3 2.3-.83.518-1.16.747-1.16 1.393L7.79 9H6.14l-.07-.62c-.081-1.077.368-1.635 1.23-2.18.805-.518 1-.774 1-1.4 0-.694-.508-1.185-1.3-1.185S5.73 4.26 5.692 5zm2.416 6.047c0 .707-.43 1.144-1.13 1.144s-1.136-.437-1.136-1.144c0-.713.437-1.15 1.136-1.15.7 0 1.13.437 1.13 1.15z" fill="#000"/></svg>