<?xml version="1.0" encoding="utf-8"?><svg xmlns="http://www.w3.org/2000/svg" xmlns:xlink="http://www.w3.org/1999/xlink"><symbol viewBox="0 0 32 30" id="arrow_down" xmlns="http://www.w3.org/2000/svg"><path d="M18 30L5.876 9h24.248L18 30z"/><path d="M14 28L1.876 7h24.248L14 28z"/></symbol><symbol viewBox="0 0 26 50" id="facebook" xmlns="http://www.w3.org/2000/svg"><path d="M20.438 8.302h4.564V.352C24.215.244 21.506 0 18.352 0c-6.581 0-11.09 4.14-11.09 11.748v7.002H0v8.887h7.263V50h8.904V27.64h6.968l1.107-8.888h-8.077v-6.123c.002-2.569.693-4.327 4.273-4.327z"/></symbol><symbol viewBox="0 0 895 398" id="footer_logos" xmlns="http://www.w3.org/2000/svg"><path d="M124.696 164.481c-6.974 0-13.238-1.45-18.792-4.351-5.555-2.901-9.906-6.912-13.053-12.035-3.148-5.184-4.722-11.016-4.722-17.496 0-6.48 1.574-12.282 4.721-17.404 3.148-5.184 7.499-9.227 13.054-12.128 5.554-2.9 11.818-4.35 18.792-4.35 6.974 0 13.239 1.45 18.793 4.35 5.554 2.901 9.906 6.944 13.053 12.128 3.148 5.122 4.721 10.924 4.721 17.404s-1.573 12.312-4.721 17.496c-3.147 5.123-7.499 9.134-13.053 12.035-5.554 2.901-11.819 4.351-18.793 4.351zm0-17.682c2.716 0 5.154-.648 7.314-1.944 2.222-1.357 3.98-3.24 5.276-5.647 1.297-2.468 1.945-5.338 1.945-8.609s-.648-6.11-1.945-8.517c-1.296-2.469-3.054-4.351-5.276-5.647-2.16-1.358-4.598-2.037-7.314-2.037-2.715 0-5.184.679-7.406 2.037-2.16 1.296-3.888 3.178-5.184 5.647-1.296 2.407-1.944 5.246-1.944 8.517 0 3.271.648 6.141 1.944 8.609 1.296 2.407 3.024 4.29 5.184 5.647 2.222 1.296 4.691 1.944 7.406 1.944zm127.378-16.478c0 8.517-2.839 15.275-8.517 20.274-5.678 4.937-13.948 7.776-24.81 8.517v7.221H198.75v-7.314c-10.923-.925-19.224-3.826-24.902-8.702-5.616-4.875-8.425-11.541-8.425-19.996 0-8.455 2.809-15.09 8.425-19.904 5.678-4.875 13.979-7.776 24.902-8.702v-6.758h19.997v6.758c10.923.803 19.193 3.673 24.81 8.61 5.678 4.876 8.517 11.541 8.517 19.996zm-33.327 11.757c4.32-.617 7.436-1.851 9.35-3.703 1.913-1.913 2.869-4.629 2.869-8.147 0-3.456-.987-6.109-2.962-7.961-1.913-1.851-4.999-3.086-9.257-3.703v23.514zm-32.216-11.757c0 3.394.987 6.017 2.962 7.869 2.037 1.851 5.122 3.117 9.257 3.796v-23.329c-4.381.617-7.529 1.851-9.442 3.703-1.852 1.789-2.777 4.443-2.777 7.961zm105.949 34.16c-6.851 0-13.023-1.419-18.515-4.258-5.493-2.901-9.813-6.913-12.961-12.035-3.086-5.184-4.629-11.047-4.629-17.589 0-6.542 1.543-12.374 4.629-17.497 3.148-5.184 7.468-9.196 12.961-12.035 5.492-2.9 11.664-4.35 18.515-4.35 6.295 0 11.911 1.11 16.848 3.332 4.938 2.222 9.011 5.431 12.22 9.628l-13.794 12.312c-4.011-5.06-8.732-7.591-14.164-7.591-4.567 0-8.239 1.481-11.016 4.444-2.777 2.9-4.166 6.819-4.166 11.757 0 4.937 1.389 8.887 4.166 11.849 2.777 2.901 6.449 4.351 11.016 4.351 5.432 0 10.153-2.53 14.164-7.591l13.794 12.313c-3.209 4.196-7.282 7.406-12.22 9.628-4.937 2.221-10.553 3.332-16.848 3.332zm89.548-17.959V163h-53.879V98.198h52.675v16.478h-31.198v7.591h27.403v15.738h-27.403v8.517h32.402zm64.037-31.383h-18.978V163H405.61v-47.861h-18.978V98.198h59.433v16.941zm71.081-16.941V163h-21.847v-23.884h-20.182V163H453.27V98.198h21.847v22.958h20.182V98.198h21.847zm57.254 53.508h-24.625L545.424 163h-22.218l28.328-64.802h21.477L601.339 163h-22.588l-4.351-11.294zm-6.018-15.738l-6.295-16.293-6.295 16.293h12.59zm92.073-37.77V163h-21.478v-15.367h-5.832L623.239 163h-22.866l12.776-18.515c-4.197-1.975-7.437-4.752-9.721-8.332-2.221-3.641-3.332-7.93-3.332-12.868 0-5.122 1.203-9.566 3.61-13.33 2.469-3.765 5.956-6.666 10.461-8.702 4.505-2.037 9.813-3.055 15.923-3.055h30.365zm-29.995 16.848c-5.554 0-8.331 2.623-8.331 7.869 0 5.493 2.777 8.239 8.331 8.239h8.517v-16.108h-8.517zM146.914 228.139h-18.978V276h-21.477v-47.861H87.481v-16.941h59.433v16.941zm7.205-16.941h21.478v33.697l22.31-33.697h20.552V276h-21.478v-33.605L174.763 276h-20.644v-64.802zm138.523 0V276h-21.477v-47.861h-19.719V276h-21.477v-64.802h62.673zm44.416 66.283c-6.974 0-13.238-1.45-18.793-4.351-5.554-2.901-9.905-6.912-13.053-12.035-3.147-5.184-4.721-11.016-4.721-17.496 0-6.48 1.574-12.282 4.721-17.404 3.148-5.184 7.499-9.227 13.053-12.128 5.555-2.9 11.819-4.351 18.793-4.351 6.974 0 13.238 1.451 18.793 4.351 5.554 2.901 9.905 6.944 13.053 12.128 3.147 5.122 4.721 10.924 4.721 17.404s-1.574 12.312-4.721 17.496c-3.148 5.123-7.499 9.134-13.053 12.035-5.555 2.901-11.819 4.351-18.793 4.351zm0-17.682c2.716 0 5.153-.648 7.313-1.944 2.222-1.357 3.981-3.24 5.277-5.647 1.296-2.468 1.944-5.338 1.944-8.609s-.648-6.11-1.944-8.517c-1.296-2.469-3.055-4.351-5.277-5.647-2.16-1.358-4.597-2.037-7.313-2.037-2.716 0-5.184.679-7.406 2.037-2.16 1.296-3.888 3.178-5.184 5.647-1.296 2.407-1.944 5.246-1.944 8.517 0 3.271.648 6.141 1.944 8.609 1.296 2.407 3.024 4.29 5.184 5.647 2.222 1.296 4.69 1.944 7.406 1.944zm93.773-31.66h-27.866V276h-21.477v-64.802h49.343v16.941zm38.448-16.941c5.987 0 11.202.987 15.646 2.962 4.443 1.975 7.868 4.814 10.275 8.517 2.407 3.703 3.611 8.023 3.611 12.96 0 4.938-1.204 9.258-3.611 12.961-2.407 3.703-5.832 6.542-10.275 8.517-4.444 1.975-9.659 2.962-15.646 2.962h-9.35V276h-21.847v-64.802h31.197zm-1.388 32.03c2.962 0 5.184-.648 6.665-1.944 1.481-1.357 2.222-3.24 2.222-5.647s-.741-4.258-2.222-5.554c-1.481-1.358-3.703-2.037-6.665-2.037h-7.962v15.182h7.962zm80.02 21.478h-24.625L518.935 276h-22.218l28.328-64.802h21.477L574.85 276h-22.588l-4.351-11.294zm-6.017-15.738l-6.295-16.293-6.296 16.293h12.591zm120.981-5.647c0 8.517-2.839 15.275-8.517 20.274-5.678 4.937-13.948 7.776-24.81 8.517v7.221h-19.997v-7.314c-10.923-.925-19.224-3.826-24.902-8.702-5.616-4.875-8.425-11.541-8.425-19.996 0-8.455 2.809-15.09 8.425-19.904 5.678-4.875 13.979-7.776 24.902-8.702v-6.758h19.997v6.758c10.923.803 19.193 3.673 24.81 8.61 5.678 4.876 8.517 11.541 8.517 19.996zm-33.327 11.757c4.32-.617 7.436-1.851 9.35-3.703 1.913-1.913 2.869-4.629 2.869-8.147 0-3.456-.987-6.109-2.962-7.961-1.913-1.851-4.999-3.086-9.257-3.703v23.514zm-32.217-11.757c0 3.394.988 6.017 2.963 7.869 2.037 1.851 5.122 3.117 9.257 3.796v-23.329c-4.382.617-7.529 1.851-9.442 3.703-1.852 1.789-2.778 4.443-2.778 7.961zm73.363-32.123h21.478v33.697l22.31-33.697h20.552V276h-21.478v-33.605L691.338 276h-20.644v-64.802zm132.691 0V276h-21.477v-15.367h-5.833L766.17 276h-22.866l12.775-18.515c-4.196-1.975-7.437-4.752-9.72-8.332-2.222-3.641-3.333-7.93-3.333-12.868 0-5.122 1.204-9.566 3.611-13.33 2.468-3.765 5.955-6.666 10.461-8.702 4.505-2.037 9.813-3.055 15.922-3.055h30.365zm-29.994 16.848c-5.555 0-8.332 2.623-8.332 7.869 0 5.493 2.777 8.239 8.332 8.239h8.517v-16.108h-8.517z"/><path d="M11.977 11.977h871.046v374.046H11.977z"/></symbol><symbol viewBox="0 0 50 50" id="instagram" xmlns="http://www.w3.org/2000/svg"><path d="M49.863 14.7c-.117-2.656-.546-4.483-1.162-6.066A12.202 12.202 0 0045.81 4.2a12.306 12.306 0 00-4.425-2.881C39.793.703 37.976.274 35.32.156 32.643.03 31.793 0 25.005 0 18.217 0 17.367.03 14.7.147c-2.656.117-4.483.547-6.065 1.162A12.2 12.2 0 004.2 4.2a12.31 12.31 0 00-2.88 4.425C.703 10.217.274 12.034.156 14.69.03 17.367 0 18.217 0 25.005c0 6.788.03 7.638.147 10.305.117 2.656.547 4.483 1.162 6.066A12.33 12.33 0 004.2 45.81a12.305 12.305 0 004.425 2.881c1.592.616 3.409 1.045 6.066 1.162 2.666.118 3.516.147 10.304.147 6.789 0 7.639-.029 10.305-.147 2.657-.117 4.483-.546 6.066-1.162a12.79 12.79 0 007.316-7.316c.615-1.592 1.045-3.409 1.162-6.065.117-2.667.146-3.517.146-10.305s-.01-7.638-.127-10.305zm-4.502 20.414c-.108 2.442-.518 3.76-.86 4.64a8.295 8.295 0 01-4.747 4.747c-.88.342-2.207.752-4.64.86-2.637.117-3.428.146-10.1.146-6.67 0-7.471-.03-10.099-.147-2.442-.107-3.76-.517-4.64-.859a7.694 7.694 0 01-2.871-1.866 7.773 7.773 0 01-1.866-2.871c-.342-.88-.752-2.208-.86-4.64-.117-2.637-.146-3.428-.146-10.1 0-6.67.03-7.472.147-10.1.107-2.441.517-3.76.86-4.639a7.6 7.6 0 011.875-2.872 7.762 7.762 0 012.871-1.865c.88-.342 2.208-.752 4.64-.86 2.637-.117 3.428-.146 10.1-.146 6.68 0 7.472.03 10.1.146 2.441.108 3.76.518 4.639.86a7.688 7.688 0 012.871 1.865 7.772 7.772 0 011.866 2.872c.342.88.752 2.208.86 4.64.117 2.637.146 3.428.146 10.1 0 6.67-.03 7.452-.146 10.09z"/><path d="M25.005 12.16c-7.091 0-12.844 5.754-12.844 12.845 0 7.091 5.753 12.844 12.844 12.844 7.091 0 12.844-5.753 12.844-12.844 0-7.091-5.753-12.844-12.844-12.844zm0 21.177a8.333 8.333 0 01-8.332-8.332 8.333 8.333 0 118.332 8.332zm16.351-21.685a2.999 2.999 0 11-5.998 0 2.999 2.999 0 015.998 0z"/></symbol><symbol viewBox="0 0 310 289" id="logo" xmlns="http://www.w3.org/2000/svg"><path d="M43.67 58.01c-2.41 0-4.576-.5-6.496-1.503-1.92-1.003-3.424-2.39-4.512-4.16-1.088-1.793-1.633-3.81-1.633-6.05 0-2.24.545-4.245 1.633-6.016 1.088-1.792 2.592-3.19 4.512-4.192 1.92-1.003 4.086-1.504 6.496-1.504 2.411 0 4.577.501 6.497 1.504 1.92 1.003 3.424 2.4 4.512 4.192 1.088 1.771 1.633 3.776 1.633 6.017 0 2.24-.544 4.256-1.633 6.048-1.088 1.77-2.592 3.158-4.512 4.16-1.92 1.003-4.086 1.505-6.497 1.505zm0-6.112c.94 0 1.782-.224 2.529-.672a5.032 5.032 0 001.824-1.952c.448-.854.672-1.846.672-2.976 0-1.131-.224-2.113-.672-2.945-.448-.853-1.056-1.504-1.824-1.952-.747-.47-1.59-.704-2.529-.704-.938 0-1.792.235-2.56.704-.746.448-1.344 1.099-1.792 1.952-.448.832-.672 1.814-.672 2.945 0 1.13.224 2.122.672 2.976.448.832 1.046 1.483 1.792 1.952.768.448 1.622.672 2.56.672zm44.034-5.696c0 2.944-.981 5.28-2.944 7.008-1.963 1.707-4.822 2.688-8.577 2.944v2.497h-6.912v-2.529c-3.777-.32-6.646-1.322-8.61-3.008-1.94-1.685-2.911-3.99-2.911-6.912 0-2.923.97-5.217 2.912-6.88 1.963-1.686 4.832-2.69 8.609-3.01v-2.335h6.912v2.336c3.776.277 6.635 1.27 8.577 2.976 1.963 1.685 2.944 3.99 2.944 6.913zm-11.52 4.064c1.493-.213 2.57-.64 3.231-1.28.662-.661.992-1.6.992-2.816 0-1.195-.34-2.113-1.024-2.753-.661-.64-1.728-1.066-3.2-1.28v8.129zm-11.138-4.064c0 1.173.342 2.08 1.024 2.72.704.64 1.771 1.077 3.2 1.312v-8.065c-1.514.214-2.602.64-3.264 1.28-.64.62-.96 1.537-.96 2.753zm36.626 11.809c-2.368 0-4.501-.491-6.4-1.473-1.9-1.002-3.393-2.39-4.48-4.16-1.067-1.792-1.6-3.819-1.6-6.08 0-2.262.533-4.278 1.6-6.049 1.087-1.792 2.58-3.179 4.48-4.16 1.898-1.003 4.032-1.504 6.4-1.504 2.176 0 4.118.384 5.825 1.152 1.706.768 3.115 1.877 4.224 3.328l-4.768 4.256c-1.387-1.75-3.019-2.624-4.897-2.624-1.579 0-2.848.512-3.808 1.536-.96 1.003-1.44 2.358-1.44 4.065 0 1.706.48 3.072 1.44 4.096.96 1.003 2.229 1.504 3.808 1.504 1.878 0 3.51-.875 4.897-2.624l4.768 4.256c-1.109 1.451-2.518 2.56-4.224 3.328-1.707.769-3.649 1.153-5.825 1.153zm30.956-6.209V57.5h-18.625V35.096h18.209v5.696h-10.785v2.624h9.473v5.44h-9.473v2.945h11.201zm22.138-10.849h-6.561v16.545h-7.424V40.953h-6.561v-5.856h20.546v5.856zm24.572-5.856v22.401h-7.552v-8.256h-6.977v8.257h-7.553V35.096h7.553v7.936h6.977v-7.936h7.552zm19.792 18.497h-8.512l-1.505 3.904h-7.68l9.793-22.401h7.424l9.793 22.401h-7.809l-1.504-3.904zm-2.08-5.44l-2.176-5.633-2.176 5.633h4.352zm31.829-13.057v22.401h-7.425v-5.312h-2.016l-3.424 5.313h-7.905l4.417-6.401c-1.451-.683-2.571-1.643-3.361-2.88-.768-1.259-1.152-2.742-1.152-4.449 0-1.77.416-3.306 1.248-4.608.854-1.301 2.059-2.304 3.617-3.008 1.557-.704 3.392-1.056 5.504-1.056h10.497zM218.51 40.92c-1.92 0-2.88.907-2.88 2.72 0 1.9.96 2.849 2.88 2.849h2.944V40.92h-2.944zM51.351 79.953h-6.56V96.5h-7.425V79.953h-6.56v-5.856H51.35v5.856zm2.49-5.856h7.425v11.649l7.713-11.65h7.105V96.5h-7.425V84.882l-7.68 11.617h-7.137V74.097zm47.887 0v22.402h-7.424V79.953h-6.817V96.5h-7.424V74.097h21.665zm15.355 22.914c-2.411 0-4.577-.502-6.497-1.504-1.92-1.003-3.424-2.39-4.512-4.16-1.088-1.793-1.632-3.81-1.632-6.05 0-2.24.544-4.245 1.632-6.016 1.088-1.792 2.592-3.19 4.512-4.192 1.92-1.003 4.086-1.504 6.497-1.504 2.41 0 4.576.501 6.496 1.504 1.92 1.003 3.424 2.4 4.513 4.192 1.088 1.771 1.632 3.776 1.632 6.017 0 2.24-.544 4.256-1.632 6.048-1.089 1.77-2.593 3.158-4.513 4.16-1.92 1.003-4.086 1.505-6.496 1.505zm0-6.113c.938 0 1.781-.224 2.528-.672a5.031 5.031 0 001.824-1.952c.448-.853.672-1.846.672-2.976 0-1.131-.224-2.112-.672-2.945-.448-.853-1.056-1.504-1.824-1.952-.747-.47-1.59-.704-2.528-.704-.939 0-1.793.235-2.561.704-.746.448-1.344 1.099-1.792 1.952-.448.833-.672 1.814-.672 2.945 0 1.13.224 2.123.672 2.976.448.832 1.046 1.483 1.792 1.952.768.448 1.622.672 2.561.672zm32.416-10.945h-9.633V96.5h-7.424V74.097h17.057v5.856zm13.292-5.856c2.069 0 3.872.341 5.408 1.024 1.536.683 2.72 1.664 3.553 2.944.832 1.28 1.248 2.774 1.248 4.48 0 1.707-.416 3.2-1.248 4.48-.833 1.28-2.017 2.262-3.553 2.945-1.536.683-3.339 1.024-5.408 1.024h-3.232V96.5h-7.553V74.097h10.785zm-.48 11.073c1.024 0 1.792-.224 2.304-.672.512-.47.768-1.12.768-1.953 0-.832-.256-1.472-.768-1.92-.512-.47-1.28-.704-2.304-.704h-2.752v5.249h2.752zm27.662 7.424h-8.512l-1.505 3.905h-7.68l9.793-22.402h7.424l9.793 22.402h-7.809l-1.504-3.905zm-2.08-5.44l-2.176-5.633-2.176 5.633h4.352zm41.822-1.952c0 2.944-.981 5.28-2.944 7.008-1.963 1.707-4.822 2.688-8.577 2.944v2.497h-6.912v-2.529c-3.776-.32-6.646-1.322-8.609-3.008-1.941-1.685-2.912-3.99-2.912-6.912 0-2.923.971-5.217 2.912-6.88 1.963-1.686 4.833-2.69 8.609-3.01v-2.335h6.912v2.336c3.777.277 6.636 1.27 8.577 2.976 1.963 1.686 2.944 3.99 2.944 6.913zm-11.521 4.064c1.494-.213 2.571-.64 3.233-1.28.661-.662.992-1.6.992-2.816 0-1.195-.342-2.112-1.024-2.753-.662-.64-1.728-1.066-3.201-1.28v8.129zm-11.136-4.064c0 1.173.341 2.08 1.024 2.72.704.64 1.77 1.077 3.2 1.312v-8.065c-1.515.214-2.603.64-3.264 1.28-.64.62-.96 1.537-.96 2.753zm25.361-11.105h7.424v11.649l7.713-11.65h7.104V96.5h-7.424V84.882l-7.681 11.617h-7.136V74.097zm45.87 0v22.402h-7.425v-5.313h-2.016l-3.424 5.313h-7.905l4.417-6.401c-1.451-.683-2.571-1.643-3.361-2.88-.768-1.259-1.152-2.742-1.152-4.449 0-1.77.416-3.306 1.248-4.608.854-1.301 2.059-2.304 3.617-3.008 1.557-.704 3.392-1.056 5.504-1.056h10.497zM267.92 79.92c-1.92 0-2.88.907-2.88 2.72 0 1.9.96 2.849 2.88 2.849h2.944V79.92h-2.944zM57.4 129.642v10.241h-6.913v-4.384H37.75v4.384h-6.913v-10.241h.64c1.302 0 2.22-.821 2.753-2.464.533-1.643.875-4.064 1.024-7.265l.256-6.816h18.945v16.545H57.4zm-15.586-9.089c-.085 2.155-.256 3.99-.512 5.505-.256 1.493-.65 2.688-1.184 3.584h6.913v-10.689h-5.153l-.064 1.6zm39.98-7.456v22.402h-7.425v-16.546h-5.12l-.064 2.592c-.085 3.201-.341 5.825-.768 7.873s-1.174 3.648-2.24 4.8c-1.067 1.131-2.593 1.697-4.577 1.697-1.003 0-2.07-.139-3.2-.416l.384-6.049c.277.064.555.096.832.096.79 0 1.387-.32 1.792-.96.427-.64.715-1.493.864-2.56.15-1.067.256-2.464.32-4.193l.288-8.736h18.914zm23.606 0v22.402h-7.424v-5.313H95.96l-3.425 5.313h-7.904l4.416-6.401c-1.45-.683-2.571-1.643-3.36-2.88-.768-1.259-1.153-2.742-1.153-4.449 0-1.77.417-3.306 1.249-4.608.853-1.301 2.058-2.304 3.616-3.008 1.557-.704 3.392-1.056 5.504-1.056H105.4zm-10.369 5.824c-1.92 0-2.88.907-2.88 2.72 0 1.899.96 2.849 2.88 2.849h2.945v-5.569H95.03zm-62.753 33.176h19.425v5.696h-12v2.592h5.344c2.73 0 4.821.587 6.272 1.761 1.472 1.152 2.208 2.826 2.208 5.024 0 2.283-.832 4.075-2.496 5.376-1.664 1.302-3.979 1.953-6.944 1.953h-11.81v-22.402zm11.297 17.121c.746 0 1.322-.16 1.728-.48.426-.32.64-.779.64-1.376 0-1.152-.79-1.728-2.368-1.728h-3.873v3.584h3.873zm12.548-17.121h7.425v11.649l7.712-11.649h7.105v22.402h-7.424v-11.617l-7.681 11.617h-7.137v-22.402zm41.23 10.753c1.195.49 2.123 1.205 2.785 2.144.682.939 1.024 2.005 1.024 3.2 0 1.408-.502 2.635-1.505 3.68-.98 1.024-2.314 1.814-4 2.369-1.664.533-3.52.8-5.568.8-3.264 0-6.369-.651-9.313-1.953l2.208-5.216c1.046.427 2.134.757 3.264.992 1.131.213 2.198.32 3.2.32 1.217 0 2.198-.171 2.945-.512.768-.341 1.152-.843 1.152-1.504 0-.896-.736-1.344-2.208-1.344h-6.049v-5.441h5.409c.64 0 1.12-.117 1.44-.352.341-.234.512-.565.512-.992 0-.554-.299-.981-.896-1.28-.576-.298-1.344-.448-2.304-.448-.896 0-1.867.128-2.913.384a14.188 14.188 0 00-2.976 1.088l-2.208-5.6c2.475-1.131 5.163-1.696 8.065-1.696 1.941 0 3.733.266 5.376.8 1.664.533 2.987 1.312 3.968 2.336 1.003 1.003 1.505 2.187 1.505 3.552 0 1.003-.256 1.91-.769 2.72-.512.811-1.226 1.462-2.144 1.953zm28.575-10.753v22.402h-7.553v-8.257h-6.977v8.257h-7.552v-22.402h7.552v7.936h6.977v-7.936h7.553zm22.608 16.705v5.697H129.91v-22.402h18.21v5.696h-10.785v2.624h9.473v5.441h-9.473v2.944h11.201zm14.329 6.209c-2.369 0-4.502-.491-6.401-1.473-1.899-1.002-3.392-2.389-4.48-4.16-1.067-1.792-1.6-3.819-1.6-6.08 0-2.262.533-4.278 1.6-6.049 1.088-1.792 2.581-3.179 4.48-4.16 1.899-1.003 4.032-1.504 6.401-1.504 2.176 0 4.117.384 5.824 1.152 1.707.768 3.115 1.877 4.224 3.328l-4.768 4.256c-1.387-1.749-3.019-2.624-4.896-2.624-1.579 0-2.849.512-3.809 1.536-.96 1.003-1.44 2.358-1.44 4.065 0 1.706.48 3.072 1.44 4.096.96 1.003 2.23 1.504 3.809 1.504 1.877 0 3.509-.875 4.896-2.624l4.768 4.256c-1.109 1.451-2.517 2.56-4.224 3.328-1.707.769-3.648 1.153-5.824 1.153zm27.827-4.417h-8.513l-1.504 3.905h-7.68l9.792-22.402h7.425l9.793 22.402h-7.809l-1.504-3.905zm-2.08-5.44l-2.176-5.633-2.177 5.633h4.353zm-139.117 36.6c1.259.448 2.219 1.12 2.88 2.016.662.874.992 1.952.992 3.232 0 2.006-.8 3.595-2.4 4.768-1.579 1.152-3.819 1.729-6.72 1.729h-11.97v-22.402h11.361c2.774 0 4.918.512 6.433 1.536 1.536 1.024 2.304 2.464 2.304 4.32 0 1.067-.256 2.006-.768 2.816-.49.811-1.195 1.473-2.112 1.985zm-9.793-2.049h3.2c1.238 0 1.857-.544 1.857-1.632 0-1.13-.62-1.696-1.856-1.696h-3.2v3.328zm4.193 8.513c1.237 0 1.856-.597 1.856-1.792 0-1.152-.619-1.728-1.856-1.728h-4.193v3.52h4.193zm8.384 44.281l-.064-10.209-4.864 8.192h-3.328l-4.865-7.84v9.857h-6.88v-22.402h6.208l7.297 11.937 7.104-11.937h6.209l.064 22.402h-6.88zm22.206.512c-2.41 0-4.576-.502-6.496-1.505-1.92-1.002-3.424-2.389-4.512-4.16-1.088-1.792-1.633-3.808-1.633-6.048 0-2.241.544-4.246 1.633-6.017 1.088-1.792 2.592-3.189 4.512-4.192 1.92-1.003 4.086-1.504 6.496-1.504 2.411 0 4.577.501 6.497 1.504 1.92 1.003 3.424 2.4 4.512 4.192 1.088 1.771 1.632 3.776 1.632 6.017 0 2.24-.544 4.256-1.632 6.048-1.088 1.771-2.592 3.158-4.512 4.16-1.92 1.003-4.086 1.505-6.496 1.505zm0-6.113c.94 0 1.782-.224 2.529-.672a5.028 5.028 0 001.824-1.952c.448-.854.672-1.846.672-2.976 0-1.131-.224-2.113-.672-2.945-.448-.853-1.056-1.504-1.824-1.952-.747-.469-1.59-.704-2.528-.704a4.81 4.81 0 00-2.56.704c-.747.448-1.345 1.099-1.793 1.952-.448.832-.672 1.814-.672 2.945 0 1.13.224 2.122.672 2.976.448.832 1.046 1.483 1.792 1.952.768.448 1.622.672 2.56.672zm26.625 6.113c-2.369 0-4.502-.491-6.4-1.473-1.9-1.002-3.393-2.389-4.481-4.16-1.067-1.792-1.6-3.819-1.6-6.08 0-2.262.533-4.278 1.6-6.049 1.088-1.792 2.581-3.179 4.48-4.16 1.899-1.003 4.032-1.504 6.401-1.504 2.176 0 4.117.384 5.824 1.152 1.707.768 3.115 1.877 4.224 3.328l-4.768 4.256c-1.387-1.749-3.019-2.624-4.896-2.624-1.58 0-2.849.512-3.809 1.536-.96 1.003-1.44 2.358-1.44 4.065 0 1.706.48 3.072 1.44 4.096.96 1.003 2.23 1.504 3.809 1.504 1.877 0 3.509-.875 4.896-2.624l4.768 4.256c-1.109 1.451-2.517 2.56-4.224 3.328-1.707.769-3.648 1.153-5.824 1.153zm27.98-12.033l6.624 11.521h-8.513l-4.288-8.097h-2.112v8.097h-7.553v-22.402h7.553v8.352h2.304l4.769-8.352h7.872l-6.656 10.881zm25.413-.224c1.259.448 2.219 1.12 2.881 2.016.661.874.992 1.952.992 3.232 0 2.006-.8 3.595-2.401 4.768-1.578 1.152-3.818 1.729-6.72 1.729h-11.969v-22.402h11.361c2.773 0 4.918.512 6.432 1.536 1.537 1.024 2.305 2.464 2.305 4.32 0 1.067-.256 2.006-.768 2.816-.491.811-1.195 1.473-2.113 1.985zm-9.792-2.049h3.2c1.237 0 1.856-.544 1.856-1.632 0-1.13-.619-1.696-1.856-1.696h-3.2v3.328zm4.192 8.513c1.237 0 1.856-.597 1.856-1.792 0-1.152-.619-1.728-1.856-1.728h-4.192v3.52h4.192zm30.792-.416v5.697h-18.626v-22.402h18.21v5.696h-10.785v2.624h9.473v5.441h-9.473v2.944h11.201z"/><path d="M4.746 4.14h300.961v280.719H4.746z"/></symbol><symbol viewBox="0 0 895 799" id="logoFooter" xmlns="http://www.w3.org/2000/svg"><path d="M124.574 164.74c-6.974 0-13.238-1.45-18.792-4.351-5.555-2.9-9.906-6.912-13.053-12.034-3.148-5.184-4.722-11.017-4.722-17.497s1.574-12.282 4.721-17.404c3.148-5.184 7.499-9.227 13.054-12.127 5.554-2.901 11.818-4.351 18.792-4.351 6.974 0 13.238 1.45 18.793 4.351 5.554 2.9 9.905 6.943 13.053 12.127 3.148 5.122 4.721 10.924 4.721 17.404s-1.573 12.313-4.721 17.497c-3.148 5.122-7.499 9.134-13.053 12.034-5.555 2.901-11.819 4.351-18.793 4.351zm0-17.681c2.716 0 5.154-.648 7.314-1.944 2.221-1.358 3.98-3.24 5.276-5.647 1.296-2.469 1.944-5.339 1.944-8.61 0-3.271-.648-6.11-1.944-8.517-1.296-2.468-3.055-4.351-5.276-5.647-2.16-1.358-4.598-2.037-7.314-2.037-2.715 0-5.184.679-7.406 2.037-2.16 1.296-3.888 3.179-5.184 5.647-1.296 2.407-1.944 5.246-1.944 8.517 0 3.271.648 6.141 1.944 8.61 1.296 2.407 3.024 4.289 5.184 5.647 2.222 1.296 4.691 1.944 7.406 1.944zm127.377-16.479c0 8.517-2.839 15.275-8.516 20.274-5.678 4.938-13.948 7.777-24.81 8.517v7.221h-19.997v-7.313c-10.924-.926-19.224-3.827-24.902-8.702-5.617-4.876-8.425-11.541-8.425-19.997 0-8.455 2.808-15.089 8.425-19.903 5.678-4.876 13.978-7.777 24.902-8.702v-6.758h19.997v6.758c10.923.802 19.193 3.672 24.81 8.609 5.677 4.876 8.516 11.541 8.516 19.996zm-33.326 11.757c4.32-.617 7.436-1.851 9.35-3.703 1.913-1.913 2.869-4.628 2.869-8.146 0-3.456-.987-6.11-2.962-7.962-1.913-1.851-4.999-3.085-9.257-3.703v23.514zm-32.217-11.757c0 3.395.988 6.018 2.963 7.869 2.036 1.852 5.122 3.117 9.257 3.796v-23.329c-4.382.617-7.529 1.851-9.442 3.703-1.852 1.79-2.778 4.444-2.778 7.961zm105.949 34.16c-6.85 0-13.022-1.419-18.514-4.258-5.493-2.901-9.813-6.912-12.961-12.035-3.086-5.184-4.629-11.047-4.629-17.589 0-6.542 1.543-12.374 4.629-17.497 3.148-5.184 7.468-9.195 12.961-12.034 5.492-2.901 11.664-4.351 18.514-4.351 6.296 0 11.912 1.11 16.849 3.332 4.937 2.222 9.011 5.431 12.22 9.628l-13.794 12.313c-4.011-5.061-8.733-7.592-14.164-7.592-4.567 0-8.239 1.482-11.016 4.444-2.777 2.901-4.166 6.82-4.166 11.757 0 4.937 1.389 8.887 4.166 11.85 2.777 2.9 6.449 4.351 11.016 4.351 5.431 0 10.153-2.531 14.164-7.591l13.794 12.312c-3.209 4.197-7.283 7.406-12.22 9.628-4.937 2.222-10.553 3.332-16.849 3.332zm89.549-17.959v16.478h-53.879V98.457h52.675v16.478h-31.198v7.591h27.403v15.738h-27.403v8.517h32.402zm64.037-31.383h-18.978v47.861h-21.477v-47.861H386.51V98.457h59.433v16.941zm71.081-16.941v64.802h-21.847v-23.884h-20.182v23.884h-21.847V98.457h21.847v22.958h20.182V98.457h21.847zm57.254 53.508h-24.625l-4.351 11.294h-22.218l28.328-64.802h21.477l28.328 64.802h-22.588l-4.351-11.294zm-6.018-15.738l-6.295-16.293-6.295 16.293h12.59zm92.072-37.77v64.802h-21.477v-15.367h-5.832l-9.906 15.367h-22.866l12.776-18.515c-4.197-1.975-7.437-4.752-9.721-8.331-2.221-3.642-3.332-7.931-3.332-12.868 0-5.123 1.203-9.566 3.61-13.331 2.469-3.765 5.956-6.665 10.461-8.702s9.813-3.055 15.923-3.055h30.364zm-29.994 16.849c-5.554 0-8.332 2.622-8.332 7.868 0 5.493 2.778 8.24 8.332 8.24h8.517v-16.108h-8.517zM146.792 228.398h-18.978v47.861h-21.477v-47.861H87.359v-16.941h59.433v16.941zm7.205-16.941h21.477v33.697l22.311-33.697h20.552v64.802h-21.478v-33.604l-22.218 33.604h-20.644v-64.802zm138.523 0v64.802h-21.477v-47.861h-19.719v47.861h-21.477v-64.802h62.673zm44.416 66.283c-6.974 0-13.238-1.45-18.793-4.351-5.554-2.9-9.905-6.912-13.053-12.034-3.147-5.184-4.721-11.017-4.721-17.497s1.574-12.282 4.721-17.404c3.148-5.184 7.499-9.227 13.053-12.127 5.555-2.901 11.819-4.351 18.793-4.351 6.974 0 13.238 1.45 18.793 4.351 5.554 2.9 9.905 6.943 13.053 12.127 3.147 5.122 4.721 10.924 4.721 17.404s-1.574 12.313-4.721 17.497c-3.148 5.122-7.499 9.134-13.053 12.034-5.555 2.901-11.819 4.351-18.793 4.351zm0-17.681c2.715 0 5.153-.648 7.313-1.944 2.222-1.358 3.981-3.24 5.277-5.647 1.296-2.469 1.944-5.339 1.944-8.61 0-3.271-.648-6.11-1.944-8.517-1.296-2.468-3.055-4.351-5.277-5.647-2.16-1.358-4.598-2.037-7.313-2.037-2.716 0-5.184.679-7.406 2.037-2.16 1.296-3.888 3.179-5.184 5.647-1.296 2.407-1.944 5.246-1.944 8.517 0 3.271.648 6.141 1.944 8.61 1.296 2.407 3.024 4.289 5.184 5.647 2.222 1.296 4.69 1.944 7.406 1.944zm93.772-31.661h-27.865v47.861h-21.477v-64.802h49.342v16.941zm38.449-16.941c5.987 0 11.202.987 15.646 2.962 4.443 1.975 7.868 4.814 10.275 8.517 2.407 3.703 3.611 8.023 3.611 12.961 0 4.937-1.204 9.257-3.611 12.96-2.407 3.703-5.832 6.542-10.275 8.517-4.444 1.975-9.659 2.962-15.646 2.962h-9.35v15.923H437.96v-64.802h31.197zm-1.388 32.031c2.962 0 5.184-.648 6.665-1.944 1.481-1.358 2.222-3.24 2.222-5.647s-.741-4.259-2.222-5.555c-1.481-1.358-3.703-2.036-6.665-2.036h-7.962v15.182h7.962zm80.02 21.477h-24.625l-4.351 11.294h-22.218l28.328-64.802H546.4l28.328 64.802H552.14l-4.351-11.294zm-6.017-15.738l-6.296-16.293-6.295 16.293h12.591zm120.98-5.647c0 8.517-2.839 15.275-8.516 20.274-5.678 4.938-13.948 7.777-24.811 8.517v7.221h-19.996v-7.313c-10.924-.926-19.224-3.827-24.902-8.702-5.617-4.876-8.425-11.541-8.425-19.997 0-8.455 2.808-15.089 8.425-19.903 5.678-4.876 13.978-7.777 24.902-8.702v-6.758h19.996v6.758c10.924.802 19.194 3.672 24.811 8.609 5.677 4.876 8.516 11.541 8.516 19.996zm-33.327 11.757c4.321-.617 7.437-1.851 9.351-3.703 1.913-1.913 2.869-4.628 2.869-8.146 0-3.456-.987-6.11-2.962-7.962-1.913-1.851-4.999-3.085-9.258-3.703v23.514zm-32.216-11.757c0 3.395.988 6.018 2.963 7.869 2.036 1.852 5.122 3.117 9.257 3.796v-23.329c-4.382.617-7.529 1.851-9.442 3.703-1.852 1.79-2.778 4.444-2.778 7.961zm73.363-32.123h21.477v33.697l22.311-33.697h20.552v64.802h-21.478v-33.604l-22.218 33.604h-20.644v-64.802zm132.691 0v64.802h-21.477v-15.367h-5.833l-9.905 15.367h-22.866l12.775-18.515c-4.197-1.975-7.437-4.752-9.72-8.331-2.222-3.642-3.333-7.931-3.333-12.868 0-5.123 1.204-9.566 3.611-13.331 2.468-3.765 5.955-6.665 10.461-8.702 4.505-2.037 9.812-3.055 15.922-3.055h30.365zm-29.994 16.849c-5.555 0-8.332 2.622-8.332 7.868 0 5.493 2.777 8.24 8.332 8.24h8.517v-16.108h-8.517z"/><path d="M11.977 11.977h870.599v775.046H11.977z"/></symbol><symbol viewBox="0 0 48 48" id="popup_exit" xmlns="http://www.w3.org/2000/svg"><path d="M7 7l37 37m0-37L7 44M4 4l37 37m0-37L4 41"/></symbol><symbol viewBox="0 0 52 30" id="vk" xmlns="http://www.w3.org/2000/svg"><path d="M42.675 17.203c-.831-1.05-.594-1.518 0-2.456.01-.01 6.874-9.495 7.581-12.712l.005-.002C50.612.861 50.26 0 48.56 0h-5.62c-1.432 0-2.092.739-2.445 1.566 0 0-2.863 6.853-6.913 11.295-1.307 1.284-1.912 1.695-2.625 1.695-.352 0-.898-.411-.898-1.583V2.033c0-1.405-.4-2.033-1.586-2.033h-8.841C18.734 0 18.2.655 18.2 1.266c0 1.333 2.025 1.64 2.235 5.39v8.136c0 1.783-.323 2.11-1.041 2.11-1.912 0-6.55-6.88-9.3-14.755C9.538.619 8.996.002 7.553.002H1.93C.324.002 0 .742 0 1.568c0 1.462 1.911 8.728 8.889 18.328C13.539 26.45 20.087 30 26.044 30c3.581 0 4.018-.789 4.018-2.145 0-6.262-.323-6.853 1.47-6.853.832 0 2.263.411 5.606 3.572C40.958 28.322 41.586 30 43.725 30h5.623c1.603 0 2.415-.789 1.948-2.345-1.07-3.272-8.295-10.002-8.621-10.452z"/></symbol></svg>