<svg width="66" height="72" viewBox="0 0 66 72" fill="none" xmlns="http://www.w3.org/2000/svg">
<path d="M26.4236 27.5497C22.7814 29.5325 21.4314 34.1028 23.4142 37.745C23.6814 38.2372 24.3142 38.4341 24.8064 38.1528C25.2986 37.8856 25.4955 37.2528 25.2142 36.7606C23.7799 34.1169 24.7502 30.7981 27.408 29.3497C30.0517 27.9153 33.3705 28.8856 34.8189 31.5435C35.0861 32.0356 35.7189 32.2325 36.2111 31.9513C36.7033 31.67 36.9002 31.0513 36.6189 30.5591C34.6221 26.931 30.0517 25.581 26.4236 27.5497Z" fill="#F7A823"/>
<path d="M60.0609 53.1984L58.2891 49.8234C57.8953 49.0641 56.9531 48.7828 56.1938 49.1766L54.4078 50.1187C54.5484 49.7953 54.675 49.4719 54.7734 49.1344C55.4484 46.8844 55.2094 44.5219 54.1125 42.4547L50.7516 36.1406L50.625 35.9016V7.875C50.625 3.52969 47.0953 0 42.75 0H15.75C11.4047 0 7.875 3.52969 7.875 7.875V52.875C7.875 57.2203 11.4047 60.75 15.75 60.75H37.8703L39.5578 63.9703C39.9516 64.7297 40.8938 65.0109 41.6531 64.6172L59.4141 55.2797C60.1594 54.8859 60.4547 53.9437 60.0609 53.1984ZM52.2984 43.3969C53.1422 44.9859 53.325 46.8 52.8047 48.5297C52.2844 50.2453 51.1312 51.6656 49.5562 52.5375L44.9859 55.0266C42.7641 56.2359 40.0219 56.0672 37.9969 54.6187C37.9547 54.5906 37.8984 54.5484 37.8563 54.5063C35.0859 52.4672 29.6578 48.9375 27.5906 47.6016L27.675 47.4469C27.9984 46.8563 28.5469 46.4344 29.1938 46.2656C29.8406 46.0828 30.5156 46.1672 31.1062 46.5047L34.2 48.2484C34.5938 48.4734 35.1 48.4031 35.4234 48.0938C35.7469 47.7703 35.8312 47.2781 35.6062 46.8703L28.8984 34.5375C28.5891 33.9609 28.8 33.2438 29.3766 32.9203C29.9531 32.6109 30.6703 32.8219 30.9937 33.3984L36.6609 43.8047C36.9281 44.2969 37.5609 44.4937 38.0531 44.2125C38.5453 43.9453 38.7422 43.3125 38.4609 42.8203L36.1969 38.6719C35.8453 38.0391 36.0844 37.2375 36.7172 36.9C37.35 36.5484 38.1516 36.7875 38.4891 37.4203L40.7531 41.5688C41.0203 42.0609 41.6531 42.2578 42.1453 41.9766C42.6375 41.7094 42.8344 41.0766 42.5531 40.5844L40.8094 37.3922C40.4578 36.7594 40.6969 35.9578 41.3297 35.6203C41.9625 35.2828 42.7641 35.5078 43.1016 36.1406L44.8453 39.3328C45.1125 39.825 45.7453 40.0219 46.2375 39.7406C46.7297 39.4734 46.9266 38.8406 46.6453 38.3484L45.8156 36.8297C45.4641 36.1969 45.7031 35.3953 46.3359 35.0578C46.9688 34.7062 47.7703 34.9453 48.1078 35.5781L48.9234 37.0828L52.2984 43.3969ZM43.6078 33.8203C42.6375 33.2719 41.4 33.2156 40.3453 33.7922C39.7687 34.1016 39.3187 34.5656 39.0094 35.1141C38.025 34.5516 36.7734 34.4813 35.7188 35.0719C35.3109 35.2969 34.9734 35.5922 34.6922 35.9297L32.7656 32.4C31.9078 30.825 29.9391 30.2484 28.3641 31.1062C26.7891 31.9641 26.2125 33.9328 27.0703 35.5078L32.0766 44.7047C31.0219 44.1141 29.7984 43.9734 28.6313 44.2969C27.45 44.6203 26.4797 45.3937 25.875 46.4484L25.3125 47.4469C25.0453 47.925 25.2 48.5156 25.65 48.8109C25.7062 48.8531 29.9953 51.5953 33.5391 54H16.0172C15.3984 54 14.8922 53.4938 14.8922 52.875V7.875C14.8922 7.25625 15.3984 6.75 16.0172 6.75H21.375C21.9937 6.75 22.5 7.25625 22.5 7.875C22.5 9.1125 23.4984 10.125 24.75 10.125H33.75C35.0016 10.125 36 9.1125 36 7.875C36 7.25625 36.5063 6.75 37.125 6.75H42.4828C43.1016 6.75 43.6078 7.25625 43.6078 7.875V33.8203ZM10.125 52.875V7.875C10.125 4.76719 12.6422 2.25 15.75 2.25H42.75C45.8578 2.25 48.375 4.76719 48.375 7.875V33.1453C47.6016 32.7938 46.7016 32.7375 45.8578 33.0328V7.875C45.8578 6.01875 44.3391 4.5 42.4828 4.5H37.125C35.2687 4.5 33.75 6.01875 33.75 7.875H24.75C24.75 6.01875 23.2312 4.5 21.375 4.5H16.0172C14.1609 4.5 12.6422 6.01875 12.6422 7.875V52.875C12.6422 54.7313 14.1609 56.25 16.0172 56.25H36.7734C36.7875 56.2641 36.8016 56.2641 36.8156 56.2781C37.7719 56.9672 38.8547 57.4453 40.0078 57.6844L38.4609 58.5H15.75C12.6422 58.5 10.125 55.9828 10.125 52.875ZM41.1047 62.6766L39.7266 60.0469L45.0703 57.2344C45.3797 57.1078 45.675 56.9672 45.9703 56.8125L48.6703 55.35L56.7422 51.1031L58.1203 53.7328L41.1047 62.6766Z" fill="#F7A823"/>
</svg>
