<svg width="72" height="72" viewBox="0 0 72 72" fill="none" xmlns="http://www.w3.org/2000/svg">
<path d="M63 63H60.7922L61.6078 42.6375C61.7906 38.1094 59.9625 33.7781 56.5875 30.7406L50.625 25.3687V7.875C50.625 3.52969 47.0953 0 42.75 0H15.75C11.4047 0 7.875 3.52969 7.875 7.875V52.875C7.875 57.2203 11.4047 60.75 15.75 60.75H34.3125L36 63H33.75C33.1313 63 32.625 63.5062 32.625 64.125V70.875C32.625 71.4938 33.1313 72 33.75 72H63C63.6188 72 64.125 71.4938 64.125 70.875V64.125C64.125 63.5062 63.6188 63 63 63ZM10.125 52.875V7.875C10.125 4.76719 12.6422 2.25 15.75 2.25H42.75C45.8578 2.25 48.375 4.76719 48.375 7.875V39.7406L45.8578 39.4031V7.875C45.8578 6.01875 44.3391 4.5 42.4828 4.5H37.125C35.2687 4.5 33.75 6.00469 33.75 7.875H24.75C24.75 6.01875 23.2312 4.5 21.375 4.5H16.0172C14.1609 4.5 12.6422 6.01875 12.6422 7.875V52.875C12.6422 54.7313 14.1609 56.25 16.0172 56.25H42.4828C44.3391 56.25 45.8578 54.7313 45.8578 52.875V51.1031L48.375 51.5672V52.875C48.375 55.9828 45.8578 58.5 42.75 58.5H15.75C12.6422 58.5 10.125 55.9828 10.125 52.875ZM39.825 38.6016C37.8 38.3344 36 39.9094 36 41.9484C36 46.2094 39.0516 49.8656 43.2422 50.625L43.6078 50.6953V52.875C43.6078 53.4938 43.1016 54 42.4828 54H16.0172C15.3984 54 14.8922 53.4938 14.8922 52.875V7.875C14.8922 7.25625 15.3984 6.75 16.0172 6.75H21.375C21.9937 6.75 22.5 7.25625 22.5 7.875C22.5 9.1125 23.4984 10.125 24.75 10.125H33.75C34.9875 10.125 36 9.1125 36 7.875C36 7.25625 36.5063 6.75 37.125 6.75H42.4828C43.1016 6.75 43.6078 7.25625 43.6078 7.875V39.1078L39.825 38.6016ZM51.6516 40.1766L50.625 40.0359V28.4062L55.0828 32.4281C57.9516 35.0156 59.5125 38.7 59.3578 42.5672L58.5422 63H38.8125L37.125 60.75H42.75C47.0953 60.75 50.625 57.2203 50.625 52.875C50.625 50.4141 50.6391 50.4984 50.5688 50.2875C50.4844 50.0063 50.2875 49.7812 50.0203 49.6406C49.7531 49.5 50.0344 49.5844 43.6359 48.4312C40.5141 47.8687 38.2359 45.1406 38.2359 41.9625C38.2359 41.2734 38.8406 40.7531 39.5156 40.8375C42.6937 41.2594 48.0938 41.9766 51.3422 42.4125L51.6516 40.1766ZM61.875 69.75H34.875V65.25H61.875V69.75Z" fill="#F7A823"/>
<path d="M36.0032 49.5H22.5031L22.4609 51.75H36.0313L36.0032 49.5Z" fill="#F7A823"/>
<path d="M21.6422 37.125C20.25 37.125 19.125 36 19.125 34.6078V22.5C19.125 20.6438 20.6438 19.125 22.5 19.125H36C37.8563 19.125 39.375 20.6438 39.375 22.5V29.25C39.375 31.1062 37.8563 32.625 36 32.625H25.4391L23.8781 35.7328C23.4563 36.5906 22.5984 37.125 21.6422 37.125ZM22.5 21.375C21.8812 21.375 21.375 21.8812 21.375 22.5V34.6078C21.375 34.7484 21.4875 34.875 21.6422 34.875C21.7406 34.875 21.8391 34.8188 21.8813 34.7344L23.7516 31.0078C23.9484 30.6281 24.3281 30.3891 24.7641 30.3891H36.0141C36.6328 30.3891 37.1391 29.8828 37.1391 29.2641V22.5141C37.1391 21.8953 36.6328 21.3891 36.0141 21.3891H22.5V21.375Z" fill="#F7A823"/>
<path d="M24.75 27C24.1312 27 23.625 26.4937 23.625 25.875C23.625 25.2562 24.1312 24.75 24.75 24.75C25.3687 24.75 25.875 25.2562 25.875 25.875C25.875 26.4937 25.3687 27 24.75 27Z" fill="#F7A823"/>
<path d="M29.25 27C28.6312 27 28.125 26.4937 28.125 25.875C28.125 25.2562 28.6312 24.75 29.25 24.75C29.8687 24.75 30.375 25.2562 30.375 25.875C30.375 26.4937 29.8687 27 29.25 27Z" fill="#F7A823"/>
<path d="M33.75 27C33.1312 27 32.625 26.4937 32.625 25.875C32.625 25.2562 33.1312 24.75 33.75 24.75C34.3687 24.75 34.875 25.2562 34.875 25.875C34.875 26.4937 34.3687 27 33.75 27Z" fill="#F7A823"/>
</svg>
