<svg width="64" height="72" viewBox="0 0 64 72" fill="none" xmlns="http://www.w3.org/2000/svg">
<path d="M46.0382 0H31.4997H16.9612C12.2817 0 8.48047 3.8012 8.48047 8.48077V56.9423C8.48047 61.6219 12.2817 65.4231 16.9612 65.4231H31.4997H46.0382C50.7177 65.4231 54.5189 61.6219 54.5189 56.9423V8.48077C54.5189 3.8012 50.7177 0 46.0382 0ZM52.0959 56.9423C52.0959 60.2892 49.385 63 46.0382 63H31.4997H16.9612C13.6144 63 10.9035 60.2892 10.9035 56.9423V8.48077C10.9035 5.13389 13.6144 2.42308 16.9612 2.42308H31.4997H46.0382C49.385 2.42308 52.0959 5.13389 52.0959 8.48077V56.9423Z" fill="#F7A823"/>
<path d="M45.7532 4.84766H39.9833C37.9843 4.84766 36.3487 6.48323 36.3487 8.48227H31.5025H26.6564C26.6564 6.48323 25.0208 4.84766 23.0218 4.84766H17.2518C15.2528 4.84766 13.6172 6.48323 13.6172 8.48227V56.9438C13.6172 58.9428 15.2528 60.5784 17.2518 60.5784H31.5025H45.7532C47.7523 60.5784 49.3879 58.9428 49.3879 56.9438V8.48227C49.3879 6.48323 47.7674 4.84766 45.7532 4.84766ZM46.9648 56.9438C46.9648 57.6102 46.4196 58.1553 45.7532 58.1553H31.5025H17.2518C16.5855 58.1553 16.0403 57.6102 16.0403 56.9438V8.48227C16.0403 7.81593 16.5855 7.27073 17.2518 7.27073H23.0218C23.6881 7.27073 24.2333 7.81593 24.2333 8.48227C24.2333 9.81496 25.3085 10.9053 26.6564 10.9053H31.5025H36.3487C37.6965 10.9053 38.7718 9.81496 38.7718 8.48227C38.7718 7.81593 39.3169 7.27073 39.9833 7.27073H45.7532C46.4196 7.27073 46.9648 7.81593 46.9648 8.48227V56.9438Z" fill="#F7A823"/>
<path d="M38.2058 30.5033V27.217C38.2058 25.642 37.1003 24.2336 35.1164 23.2341C33.3597 22.3557 31.0426 21.8711 28.5892 21.8711C26.1359 21.8711 23.8188 22.3557 22.0621 23.2341C20.063 24.2336 18.9727 25.642 18.9727 27.217V31.5028V35.7735V40.0442C18.9727 41.6192 20.0782 43.0276 22.0621 44.0271C23.8188 44.9055 26.1359 45.3901 28.5892 45.3901C30.452 45.3901 32.2238 45.1175 33.7686 44.5874C34.7832 45.1023 35.9342 45.3901 37.1457 45.3901C41.2649 45.3901 44.627 42.0281 44.627 37.9088C44.627 34.1379 41.8253 31.0182 38.2058 30.5033ZM21.108 34.9254C21.3957 35.1223 21.7138 35.304 22.0621 35.4858C23.8188 36.3641 26.1359 36.8487 28.5892 36.8487C28.9678 36.8487 29.3616 36.8336 29.7402 36.8185C29.6796 37.1819 29.6645 37.5454 29.6645 37.924C29.6645 38.2723 29.6948 38.6206 29.7402 38.9538C29.3616 38.9841 28.983 38.9992 28.6044 38.9992C24.3186 38.9992 21.1231 37.3031 21.1231 35.7886V34.9254H21.108ZM30.4368 34.5922C29.8311 34.668 29.2253 34.6983 28.5892 34.6983C24.3034 34.6983 21.108 33.0021 21.108 31.4877V30.6396C21.3957 30.8365 21.7138 31.0182 22.0621 31.1999C23.8188 32.0783 26.1359 32.5629 28.5892 32.5629C29.9068 32.5629 31.1789 32.4266 32.3601 32.154C31.5575 32.8204 30.9063 33.6533 30.4368 34.5922ZM28.5892 24.0216C32.8751 24.0216 36.0705 25.7177 36.0705 27.2322C36.0705 28.7466 32.8751 30.4427 28.5892 30.4427C24.3034 30.4427 21.108 28.7466 21.108 27.2322C21.108 25.7026 24.3186 24.0216 28.5892 24.0216ZM21.108 40.0442V39.1961C21.3957 39.393 21.7138 39.5747 22.0621 39.7564C23.8188 40.6348 26.1359 41.1194 28.5892 41.1194C29.1799 41.1194 29.7705 41.0891 30.346 41.0285C30.6791 41.7403 31.1032 42.3764 31.6181 42.9519C30.664 43.1487 29.6342 43.2547 28.5892 43.2547C24.3186 43.2547 21.108 41.5586 21.108 40.0442ZM37.1457 43.2547C34.1926 43.2547 31.7998 40.862 31.7998 37.9088C31.7998 34.9709 34.1775 32.5781 37.1154 32.5629C37.1306 32.5629 37.1306 32.5629 37.1457 32.5629C37.1609 32.5629 37.1609 32.5629 37.176 32.5629C40.114 32.5781 42.4916 34.9709 42.4916 37.9088C42.4916 40.8468 40.0837 43.2547 37.1457 43.2547Z" fill="#F7A823"/>
</svg>
