<svg width="18" height="18" viewBox="0 0 18 18" fill="none" xmlns="http://www.w3.org/2000/svg">
    <path fill-rule="evenodd" clip-rule="evenodd" d="M8.24814 11.1554L2.13285 17.2707C1.73185 17.6717 1.13034 17.6717 0.729341 17.2707C0.328338 16.8697 0.328338 16.2682 0.729341 15.8672L6.84463 9.75187C7.24563 9.35087 7.84714 9.35087 8.24814 9.75187C8.64914 10.0526 8.64914 10.7544 8.24814 11.1554ZM17.2707 0.72931C16.8697 0.328308 16.2682 0.328308 15.8672 0.72931L9.65165 6.8446C9.25064 7.2456 9.25064 7.84711 9.65165 8.24811C10.0526 8.64911 10.6542 8.64911 11.0552 8.24811L17.1704 2.13282C17.6717 1.73182 17.6717 1.13031 17.2707 0.72931ZM17.2707 15.8672L11.1554 9.75187C10.7544 9.35087 10.1529 9.35087 9.7519 9.75187C9.3509 10.1529 9.3509 10.7544 9.7519 11.1554L15.8672 17.2707C16.2682 17.6717 16.8697 17.6717 17.2707 17.2707C17.6717 16.8697 17.6717 16.2682 17.2707 15.8672ZM8.24814 6.8446L2.13285 0.72931C1.73185 0.328308 1.13034 0.328308 0.729341 0.72931C0.328338 1.13031 0.328338 1.73182 0.729341 2.13282L6.84463 8.24811C7.24563 8.64911 7.84714 8.64911 8.24814 8.24811C8.64914 7.84711 8.64914 7.2456 8.24814 6.8446Z" fill="white"/>
</svg>
