<svg width="25" height="23" viewBox="0 0 25 23" fill="none" xmlns="http://www.w3.org/2000/svg">
    <path fill-rule="evenodd" clip-rule="evenodd" d="M2.39 19.5403C1.15181 19.1035 0.341491 17.9124 0.390005 16.6003V13.4603C0.400191 12.3984 0.986076 11.4258 1.92 10.9203V10.6503C1.89213 5.48446 5.62595 1.0658 10.724 0.231474C15.8221 -0.60285 20.7697 2.39507 22.39 7.30029C22.5133 7.63612 22.448 8.0122 22.2188 8.28686C21.9896 8.56151 21.6312 8.69303 21.2788 8.63186C20.9263 8.57069 20.6333 8.32612 20.51 7.99029C19.843 5.93326 18.4109 4.21124 16.51 3.18029C13.8598 1.77263 10.6664 1.85369 8.091 3.39401C5.51563 4.93432 3.93352 7.70948 3.92 10.7103V11.7103C3.92 12.2626 3.47229 12.7103 2.92 12.7103C2.75 12.7103 2.42 13.1003 2.42 13.4703V16.7103C2.42 17.2626 2.86772 17.7103 3.42 17.7103C3.97229 17.7103 4.42 17.2626 4.42 16.7103V14.4703C4.42 13.918 4.86772 13.4703 5.42 13.4703C5.97229 13.4703 6.42 13.918 6.42 14.4703V16.7103C6.42405 17.692 5.94751 18.6136 5.14409 19.1778C4.34068 19.742 3.31205 19.8774 2.39 19.5403V19.5403ZM22.27 19.7603C23.5271 19.3746 24.3865 18.2152 24.39 16.9003V14.0003C24.4385 12.6882 23.6282 11.4971 22.39 11.0603C21.4682 10.7344 20.4454 10.8781 19.6491 11.4454C18.8528 12.0128 18.383 12.9326 18.39 13.9103V15.9103C18.39 16.4626 18.8377 16.9103 19.39 16.9103C19.9423 16.9103 20.39 16.4626 20.39 15.9103V13.9103C20.39 13.358 20.8377 12.9103 21.39 12.9103C21.9423 12.9103 22.39 13.358 22.39 13.9103V16.9103C22.39 17.4626 21.9423 17.9103 21.39 17.9103C21.1141 17.9098 20.8502 18.0233 20.6608 18.2241C20.4714 18.4248 20.3734 18.6948 20.39 18.9703C20.3576 20.0514 19.4716 20.9108 18.39 20.9103H14.39V20.2003C14.39 19.648 13.9423 19.2003 13.39 19.2003C12.8377 19.2003 12.39 19.648 12.39 20.2003V21.9003C12.39 22.4526 12.8377 22.9003 13.39 22.9003H18.39C20.2691 22.902 21.896 21.5954 22.3 19.7603H22.27Z" fill="white"/>
</svg>
