<svg width="24" height="24" viewBox="0 0 24 24" fill="none" xmlns="http://www.w3.org/2000/svg">
<path d="M5.4 0C3.8 0 2.5 1.3 2.5 2.9V21.1C2.5 22.7 3.8 24 5.4 24H18.7C20.3 24 21.6 22.7 21.6 21.1V6.7L14.9 0H5.4ZM19.5 21.1C19.5 21.6 19.1 22 18.6 22H5.4C4.9 22 4.5 21.6 4.5 21.1V2.9C4.5 2.4 4.9 2 5.4 2H13.5V5.2C13.5 6.8 14.8 8.1 16.4 8.1H19.6V21.1H19.5ZM15.4 3.4L18.1 6.1H16.3C15.8 6.1 15.4 5.7 15.4 5.2V3.4Z" fill="#0094AA"/>
<path d="M15.9016 12.8008H8.10156C7.50156 12.8008 7.10156 12.4008 7.10156 11.8008C7.10156 11.2008 7.50156 10.8008 8.10156 10.8008H15.8016C16.4016 10.8008 16.8016 11.2008 16.8016 11.8008C16.9016 12.4008 16.4016 12.8008 15.9016 12.8008Z" fill="#0094AA"/>
<path d="M11.0016 8.89844H8.10156C7.50156 8.89844 7.10156 8.49844 7.10156 7.89844C7.10156 7.29844 7.50156 6.89844 8.10156 6.89844H11.0016C11.6016 6.89844 12.0016 7.29844 12.0016 7.89844C12.0016 8.39844 11.6016 8.89844 11.0016 8.89844Z" fill="#0094AA"/>
<path d="M15.9016 16.8008H8.10156C7.50156 16.8008 7.10156 16.4008 7.10156 15.8008C7.10156 15.2008 7.50156 14.8008 8.10156 14.8008H15.8016C16.4016 14.8008 16.8016 15.2008 16.8016 15.8008C16.9016 16.4008 16.4016 16.8008 15.9016 16.8008Z" fill="#0094AA"/>
</svg>
