<svg width="20" height="20" viewBox="0 0 20 20" fill="none" xmlns="http://www.w3.org/2000/svg">
<path d="M10 0C4.5 0 0 4.5 0 10C0 15.5 4.5 20 10 20C15.5 20 20 15.5 20 10C20 4.5 15.5 0 10 0ZM10 18C5.6 18 2 14.4 2 10C2 5.6 5.6 2 10 2C14.4 2 18 5.6 18 10C18 14.4 14.4 18 10 18Z" fill="white"/>
<path d="M10.2016 8.99922C9.10156 8.79922 9.10156 8.19922 9.10156 7.99922C9.10156 7.49922 9.50156 7.09922 10.0016 7.09922C10.2016 7.09922 10.5016 7.19922 10.6016 7.29922L10.9016 7.59922C11.3016 7.99922 11.9016 7.99922 12.3016 7.59922C12.7016 7.19922 12.7016 6.59922 12.3016 6.19922L12.0016 5.89922C11.7016 5.59922 11.4016 5.49922 11.0016 5.29922V5.19922C11.0016 4.59922 10.6016 4.19922 10.0016 4.19922C9.40156 4.19922 9.00156 4.59922 9.00156 5.19922V5.29922C7.90156 5.69922 7.10156 6.79922 7.10156 8.09922C7.10156 9.59922 8.20156 10.6992 9.90156 10.9992C10.6016 11.0992 11.0016 11.3992 11.0016 11.9992C11.0016 12.4992 10.6016 12.8992 10.1016 12.8992C9.80156 12.8992 9.60156 12.7992 9.50156 12.6992L9.10156 12.3992C8.70156 12.0992 8.00156 12.1992 7.70156 12.5992C7.20156 12.9992 7.30156 13.6992 7.80156 13.9992L8.20156 14.2992C8.50156 14.4992 8.70156 14.6992 9.00156 14.7992V14.8992C9.00156 15.4992 9.40156 15.8992 10.0016 15.8992C10.6016 15.8992 11.0016 15.4992 11.0016 14.8992V14.7992C12.1016 14.3992 12.9016 13.2992 12.9016 11.9992C12.9016 10.3992 11.9016 9.29922 10.2016 8.99922Z" fill="white"/>
</svg>
