<svg width="32" height="32" viewBox="0 0 32 32" fill="none" xmlns="http://www.w3.org/2000/svg">
<path d="M17.4216 4.69068V2.73068C18.6109 2.82849 19.7851 3.06167 20.9216 3.42568L21.7466 0.890677C18.0714 -0.294288 14.1168 -0.294288 10.4416 0.890677L11.2666 3.42568C12.403 3.06167 13.5773 2.82849 14.7666 2.73068V4.69068C11.2693 5.03283 8.03759 6.7072 5.74104 9.36692C3.44448 12.0266 2.25906 15.4679 2.43034 18.9777C2.60162 22.4875 4.11649 25.797 6.6611 28.2204C9.20572 30.6439 12.5851 31.9956 16.0991 31.9956C19.6131 31.9956 22.9924 30.6439 25.5371 28.2204C28.0817 25.797 29.5965 22.4875 29.7678 18.9777C29.9391 15.4679 28.7537 12.0266 26.4571 9.36692C24.1606 6.7072 20.9289 5.03283 17.4316 4.69068H17.4216ZM16.0866 29.3357C13.911 29.3357 11.7842 28.6905 9.9753 27.4818C8.16636 26.2731 6.75647 24.5552 5.9239 22.5452C5.09134 20.5352 4.8735 18.3235 5.29794 16.1897C5.72238 14.0559 6.77002 12.0959 8.3084 10.5575C9.84678 9.01912 11.8068 7.97148 13.9406 7.54704C16.0744 7.1226 18.2861 7.34044 20.2961 8.173C22.3061 9.00556 24.024 10.4155 25.2327 12.2244C26.4414 14.0333 27.0866 16.1601 27.0866 18.3357C27.0866 21.2531 25.9277 24.0509 23.8647 26.1138C21.8019 28.1767 19.004 29.3357 16.0866 29.3357Z" fill="#56AF31"/>
<path d="M28.9994 9.45109L31.1944 7.95109C29.9263 6.1071 28.3297 4.5122 26.4844 3.24609L24.9844 5.44109C26.5572 6.52036 27.9181 7.87963 28.9994 9.45109Z" fill="#56AF31"/>
<path d="M7.22 5.42547L5.72 3.23047C3.87107 4.49562 2.27103 6.09057 1 7.93547L3.195 9.43547C4.27919 7.86311 5.6436 6.50378 7.22 5.42547Z" fill="#56AF31"/>
<path d="M20.0914 20.0017L17.4214 18.0017V10.6667C17.4326 10.4848 17.4064 10.3026 17.3444 10.1313C17.2825 9.95991 17.1862 9.80305 17.0613 9.67034C16.9365 9.53763 16.7858 9.43187 16.6186 9.35958C16.4514 9.28729 16.2711 9.25 16.0889 9.25C15.9067 9.25 15.7264 9.28729 15.5592 9.35958C15.392 9.43187 15.2413 9.53763 15.1165 9.67034C14.9916 9.80305 14.8953 9.95991 14.8334 10.1313C14.7715 10.3026 14.7453 10.4848 14.7564 10.6667V18.6667C14.7549 18.7697 14.7684 18.8725 14.7964 18.9717C14.8155 19.0702 14.851 19.1648 14.9014 19.2517C14.9334 19.3405 14.9827 19.422 15.0464 19.4917C15.0614 19.5088 15.0747 19.5272 15.0864 19.5467C15.1437 19.6113 15.2073 19.6699 15.2764 19.7217L15.3314 19.7617L20.6114 23.7217C20.8395 23.9003 21.1218 23.9955 21.4114 23.9917C21.6212 23.9934 21.8285 23.947 22.0175 23.856C22.2065 23.765 22.372 23.6318 22.5014 23.4667C22.7123 23.1833 22.8022 22.8279 22.7516 22.4784C22.701 22.1288 22.514 21.8136 22.2314 21.6017L20.0914 20.0017Z" fill="#56AF31"/>
</svg>
