<svg width="20" height="24" viewBox="0 0 20 24" fill="none" xmlns="http://www.w3.org/2000/svg">
<path d="M18.168 0.333984H1.83464C1.13464 0.333984 0.667969 0.800651 0.667969 1.50065C0.667969 2.20065 1.13464 2.66732 1.83464 2.66732H17.0013V21.334H1.83464C1.13464 21.334 0.667969 21.8007 0.667969 22.5007C0.667969 23.2007 1.13464 23.6673 1.83464 23.6673H18.168C18.868 23.6673 19.3346 23.2007 19.3346 22.5007V1.50065C19.3346 0.800651 18.868 0.333984 18.168 0.333984Z" fill="#A7A7A7"/>
<path d="M0.667969 12.0007C0.667969 12.7007 1.13464 13.1673 1.83464 13.1673H7.2013L5.68464 14.684C5.21797 15.1507 5.21797 15.8507 5.68464 16.3173C5.91797 16.5507 6.1513 16.6673 6.5013 16.6673C6.8513 16.6673 7.08463 16.5507 7.31797 16.3173L10.818 12.8173C11.2846 12.3507 11.2846 11.6507 10.818 11.184L7.31797 7.68398C6.8513 7.21732 6.1513 7.21732 5.68464 7.68398C5.21797 8.15065 5.21797 8.85065 5.68464 9.31732L7.2013 10.834H1.83464C1.13464 10.834 0.667969 11.3007 0.667969 12.0007Z" fill="#A7A7A7"/>
</svg>
