<svg width="44" height="44" viewBox="0 0 44 44" fill="none" xmlns="http://www.w3.org/2000/svg">
<path d="M22.5566 27.0209C22.3997 26.6901 22.004 26.549 21.6732 26.7061C21.1349 26.9616 20.5705 27.1727 19.9958 27.3335C19.7554 27.4008 19.5732 27.5972 19.5243 27.8421L18.8228 31.3496C18.7535 31.6959 18.4469 31.9474 18.0937 31.9474H16.18C15.8267 31.9474 15.5202 31.696 15.4509 31.3496L14.7493 27.8421C14.7004 27.5972 14.5181 27.4008 14.2778 27.3335C13.4659 27.1063 12.6823 26.7816 11.9489 26.3685C11.7312 26.2459 11.4633 26.256 11.2555 26.3945L8.27896 28.3788C7.98513 28.5747 7.59055 28.5356 7.34069 28.2859L5.9875 26.9326C5.73771 26.6828 5.69875 26.2883 5.89456 25.9943L7.87889 23.0178C8.01745 22.81 8.02754 22.5421 7.9049 22.3244C7.49171 21.5909 7.16703 20.8073 6.93988 19.9955C6.87262 19.7551 6.67615 19.5729 6.43129 19.524L2.9238 18.8224C2.57746 18.7532 2.32604 18.4466 2.32604 18.0933V16.1796C2.32604 15.8264 2.57738 15.5199 2.9238 15.4505L6.43129 14.749C6.67615 14.7 6.87262 14.5178 6.93988 14.2775C7.16711 13.4656 7.49179 12.682 7.9049 11.9485C8.02745 11.731 8.01736 11.463 7.87889 11.2552L5.89472 8.27896C5.69883 7.98504 5.73788 7.59056 5.98766 7.34069L7.34085 5.9875C7.59064 5.73772 7.98529 5.69875 8.27913 5.89456L11.2557 7.8789C11.4634 8.01745 11.7315 8.02745 11.949 7.9049C12.6825 7.49179 13.466 7.16711 14.278 6.93988C14.5184 6.87262 14.7006 6.67615 14.7495 6.43129L15.451 2.9238C15.5203 2.57746 15.8269 2.32604 16.1801 2.32604H18.0938C18.4471 2.32604 18.7536 2.57738 18.8229 2.9238L19.5245 6.43129C19.5734 6.67615 19.7557 6.87262 19.996 6.93988C20.8079 7.16711 21.5915 7.49179 22.3249 7.9049C22.5426 8.02745 22.8106 8.01736 23.0183 7.8789L25.9948 5.89456C26.2887 5.69867 26.6832 5.7378 26.9331 5.9875L28.2863 7.34069C28.5361 7.59047 28.5751 7.98504 28.3792 8.27896L26.3949 11.2555C26.2564 11.4633 26.2463 11.7312 26.3689 11.9489C26.782 12.6823 27.1067 13.4659 27.3339 14.2778C27.4012 14.5183 27.5976 14.7004 27.8425 14.7493L31.35 15.4509C31.6963 15.5201 31.9478 15.8267 31.9478 16.18V18.0937C31.9478 18.4469 31.6964 18.7535 31.35 18.8228L27.8425 19.5243C27.5976 19.5733 27.4012 19.7555 27.3339 19.996C27.1691 20.585 26.9517 21.1627 26.6875 21.7132C26.529 22.0434 26.6683 22.4395 26.9985 22.5979C27.3287 22.7565 27.7249 22.6171 27.8832 22.2869C28.1216 21.7901 28.3263 21.2735 28.4937 20.7466L31.6101 20.1234C32.5739 19.9304 33.2736 19.0768 33.2736 18.0936V16.1799C33.2736 15.1967 32.5739 14.3431 31.6097 14.1502L28.4933 13.5269C28.2889 12.8835 28.0299 12.2579 27.7195 11.6591L29.4825 9.01454C30.0278 8.19644 29.9191 7.09804 29.2238 6.40274L27.8706 5.04956C27.1753 4.35426 26.0769 4.24565 25.2589 4.79091L22.6143 6.55393C22.0155 6.2436 21.3899 5.98447 20.7465 5.78004L20.1232 2.66368C19.9305 1.69973 19.0769 1 18.0937 1H16.18C15.1967 1 14.3432 1.69973 14.1503 2.66392L13.527 5.78029C12.8835 5.98471 12.258 6.24377 11.6592 6.55417L9.01478 4.79116C8.19677 4.24581 7.09829 4.35442 6.40299 5.0498L5.0498 6.40299C4.35459 7.09829 4.24581 8.1966 4.79116 9.01478L6.55417 11.6594C6.24385 12.2581 5.98471 12.8836 5.78029 13.5272L2.66384 14.1504C1.69973 14.3432 1 15.1968 1 16.18V18.0938C1 19.077 1.69973 19.9305 2.66392 20.1235L5.78029 20.7467C5.98463 21.3901 6.24377 22.0157 6.55417 22.6145L4.79116 25.2591C4.24581 26.0772 4.3545 27.1756 5.0498 27.8709L6.40299 29.2241C7.09829 29.9194 8.19668 30.028 9.01478 29.4827L11.6594 27.7197C12.2581 28.03 12.8836 28.2892 13.5272 28.4936L14.1504 31.6101C14.3432 32.574 15.1968 33.2738 16.18 33.2738H18.0938C19.077 33.2738 19.9305 32.5741 20.1235 31.6099L20.7467 28.4935C21.2577 28.3312 21.7592 28.1337 22.242 27.9045C22.5728 27.7474 22.7138 27.3518 22.5566 27.0209Z" fill="#56AF31" stroke="#56AF31" stroke-width="0.5"/>
<path d="M22.882 20.8228C22.9788 20.8725 23.0822 20.896 23.1841 20.896C23.4249 20.896 23.6573 20.7644 23.7747 20.5353C24.3095 19.4923 24.5923 18.3175 24.5923 17.138C24.5923 13.0277 21.2483 9.68359 17.1379 9.68359C15.1824 9.68359 13.3346 10.4352 11.9346 11.8001C11.6724 12.0557 11.667 12.4756 11.9226 12.7378C12.1782 13 12.5981 13.0054 12.8603 12.7498C14.0112 11.6279 15.5302 11.01 17.1377 11.01C20.5167 11.01 23.2658 13.759 23.2658 17.1381C23.2658 18.122 23.0399 19.0614 22.5944 19.9303C22.4274 20.2559 22.5561 20.6556 22.882 20.8228Z" fill="#56AF31" stroke="#56AF31" stroke-width="0.5"/>
<path d="M10.9303 14.298C10.5839 14.1788 10.2067 14.363 10.0875 14.7093C9.81952 15.4884 9.68359 16.3048 9.68359 17.1355C9.68359 21.246 13.0277 24.59 17.138 24.59C18.7188 24.59 20.2292 24.1014 21.5059 23.1768C21.8026 22.962 21.8689 22.5473 21.6542 22.2507C21.4394 21.9541 21.0247 21.8877 20.728 22.1025C19.679 22.862 18.4376 23.2635 17.1379 23.2635C13.7588 23.2635 11.0098 20.5144 11.0098 17.1354C11.0098 16.4517 11.1214 15.7805 11.3415 15.1405C11.4606 14.7943 11.2766 14.417 10.9303 14.298Z" fill="#56AF31" stroke="#56AF31" stroke-width="0.5"/>
<path d="M41.7268 29.9819L39.8092 29.5985C39.6924 29.2509 39.5517 28.9115 39.3886 28.5835L40.4736 26.9561C40.8918 26.3286 40.8085 25.4861 40.2752 24.9529L39.386 24.0637C38.8527 23.5305 38.0102 23.4471 37.3828 23.8654L35.7554 24.9503C35.4274 24.7872 35.088 24.6466 34.7405 24.5298L34.357 22.6122C34.2091 21.8727 33.5544 21.3359 32.8003 21.3359H31.5426C30.7886 21.3359 30.1338 21.8727 29.9859 22.6122L29.6024 24.5298C29.2549 24.6466 28.9155 24.7873 28.5875 24.9503L26.9601 23.8654C26.3326 23.4472 25.4901 23.5304 24.9569 24.0637L24.0677 24.9529C23.5344 25.4862 23.4511 26.3287 23.8694 26.9561L24.9543 28.5835C24.73 29.0345 24.5483 29.5068 24.4125 29.9925C24.3138 30.3453 24.5198 30.7111 24.8724 30.8099C25.2252 30.9086 25.591 30.7027 25.6898 30.3499C25.8342 29.8338 26.0406 29.3359 26.3031 28.8699C26.4256 28.6522 26.4155 28.3842 26.2771 28.1765L24.973 26.2205C24.9042 26.1172 24.9179 25.9786 25.0057 25.8908L25.8949 25.0016C25.9826 24.9139 26.1213 24.9003 26.2246 24.9689L28.1806 26.273C28.3883 26.4115 28.6563 26.4215 28.8739 26.299C29.34 26.0365 29.8379 25.8301 30.354 25.6857C30.5944 25.6185 30.7766 25.422 30.8255 25.1771L31.2865 22.8723C31.3107 22.7506 31.4185 22.6623 31.5426 22.6623H32.8003C32.9243 22.6623 33.0321 22.7506 33.0564 22.8723L33.5174 25.1773C33.5664 25.4222 33.7486 25.6186 33.9889 25.6859C34.505 25.8303 35.003 26.0367 35.469 26.2992C35.6865 26.4217 35.9546 26.4116 36.1623 26.2732L38.1184 24.9691C38.2216 24.9003 38.3603 24.9139 38.448 25.0018L39.3373 25.891C39.4249 25.9787 39.4386 26.1174 39.3699 26.2207L38.0659 28.1767C37.9273 28.3845 37.9172 28.6524 38.0398 28.87C38.3023 29.3361 38.5087 29.834 38.6531 30.3501C38.7204 30.5905 38.9168 30.7727 39.1617 30.8216L41.4665 31.2826C41.5882 31.3068 41.6765 31.4146 41.6765 31.5387V32.7964C41.6765 32.9204 41.5882 33.0282 41.4665 33.0525L39.1615 33.5135C38.9167 33.5625 38.7202 33.7447 38.653 33.985C38.5086 34.5011 38.3022 34.9991 38.0397 35.4651C37.9171 35.6827 37.9272 35.9507 38.0657 36.1584L39.3697 38.1144C39.4386 38.2177 39.4249 38.3564 39.3371 38.4441L38.4479 39.3333C38.3602 39.4211 38.2215 39.4347 38.1182 39.366L36.1622 38.0619C35.9544 37.9235 35.6864 37.9134 35.4688 38.0359C35.0027 38.2984 34.5049 38.5048 33.9887 38.6492C33.7483 38.7165 33.5661 38.9129 33.5172 39.1578L33.0563 41.4626C33.032 41.5843 32.9242 41.6726 32.8001 41.6726H31.5425C31.4185 41.6726 31.3107 41.5843 31.2863 41.4626L30.8254 39.1576C30.7764 38.9128 30.5941 38.7163 30.3538 38.649C29.8377 38.5047 29.3398 38.2983 28.8738 38.0358C28.6561 37.9132 28.3881 37.9233 28.1804 38.0618L26.2244 39.3658C26.1211 39.4347 25.9825 39.421 25.8947 39.3332L25.0055 38.444C24.9178 38.3562 24.9041 38.2176 24.9728 38.1143L26.2769 36.1582C26.4154 35.9505 26.4255 35.6825 26.3029 35.4649C26.0404 34.9988 25.834 34.501 25.6896 33.9848C25.6224 33.7444 25.4259 33.5622 25.181 33.5133L22.8762 33.0524C22.7546 33.0281 22.6662 32.9203 22.6662 32.7962V31.5386C22.6662 31.4145 22.7546 31.3068 22.8762 31.2824L23.0173 31.2542C23.3764 31.1823 23.6094 30.8329 23.5375 30.4738C23.4656 30.1147 23.1166 29.8821 22.757 29.9536L22.6159 29.9819C21.8766 30.1299 21.3398 30.7845 21.3398 31.5387V32.7963C21.3398 33.5503 21.8766 34.2051 22.6161 34.353L24.5337 34.7365C24.6505 35.084 24.7912 35.4234 24.9542 35.7515L23.8693 37.3788C23.4509 38.0063 23.5343 38.8488 24.0676 39.382L24.9568 40.2712C25.4901 40.8045 26.3326 40.8878 26.9601 40.4696L28.5874 39.3846C28.9154 39.5477 29.2548 39.6884 29.6024 39.8051L29.9859 41.7228C30.1339 42.4623 30.7886 42.999 31.5427 42.999H32.8003C33.5544 42.999 34.2092 42.4623 34.3571 41.7228L34.7406 39.8051C35.0881 39.6883 35.4275 39.5476 35.7555 39.3845L37.3829 40.4695C38.0104 40.8878 38.8529 40.8044 39.3861 40.2711L40.2753 39.3819C40.8086 38.8486 40.8919 38.0062 40.4736 37.3787L39.3887 35.7514C39.5518 35.4233 39.6924 35.084 39.8092 34.7364L41.7268 34.3529C42.4663 34.205 43.003 33.5503 43.003 32.7962V31.5386C43.0031 30.7845 42.4663 30.1299 41.7268 29.9819Z" fill="#56AF31" stroke="#56AF31" stroke-width="0.5"/>
<path d="M32.1708 29.7795C33.4873 29.7795 34.5582 30.8504 34.5582 32.1668C34.5582 32.5331 34.8551 32.83 35.2213 32.83C35.5875 32.83 35.8845 32.533 35.8845 32.1668C35.8845 30.1191 34.2185 28.4531 32.1708 28.4531C30.123 28.4531 28.457 30.1191 28.457 32.1668C28.457 34.2146 30.123 35.8806 32.1708 35.8806C33.0002 35.8806 33.7847 35.6131 34.4397 35.1071C34.7295 34.8831 34.7829 34.4667 34.559 34.1768C34.3351 33.887 33.9185 33.8335 33.6287 34.0574C33.208 34.3823 32.7039 34.5542 32.1708 34.5542C30.8543 34.5542 29.7834 33.4833 29.7834 32.1668C29.7835 30.8503 30.8544 29.7795 32.1708 29.7795Z" fill="#56AF31" stroke="#56AF31" stroke-width="0.5"/>
<path d="M21.1782 17.1379C21.1782 14.9101 19.3657 13.0977 17.1379 13.0977C14.9101 13.0977 13.0977 14.9102 13.0977 17.1379C13.0977 19.3657 14.9101 21.1782 17.1379 21.1782C19.3657 21.1782 21.1782 19.3657 21.1782 17.1379ZM14.4239 17.1379C14.4239 15.6415 15.6415 14.4239 17.1379 14.4239C18.6344 14.4239 19.8519 15.6415 19.8519 17.1379C19.8519 18.6344 18.6344 19.8519 17.1379 19.8519C15.6414 19.8519 14.4239 18.6344 14.4239 17.1379Z" fill="#56AF31" stroke="#56AF31" stroke-width="0.5"/>
</svg>
