<svg width="20" height="20" viewBox="0 0 20 20" fill="none" xmlns="http://www.w3.org/2000/svg">
<path fill-rule="evenodd" clip-rule="evenodd" d="M16.6329 3.33812C14.8788 1.58191 12.5459 0.614311 10.0606 0.613281C4.93934 0.613281 0.7714 4.7811 0.76934 9.90371C0.768654 11.5412 1.19643 13.1398 2.00954 14.5487L0.691406 19.3633L5.61683 18.0712C6.97398 18.8116 8.50188 19.2017 10.0568 19.2021H10.0607C15.1813 19.2021 19.3497 15.034 19.3517 9.91115C19.3527 7.42847 18.3872 5.09421 16.6329 3.33812ZM10.0606 17.633H10.0574C8.67171 17.6325 7.31273 17.2601 6.12689 16.5566L5.84502 16.3892L2.9222 17.1559L3.70235 14.3062L3.51867 14.0141C2.74562 12.7845 2.33741 11.3634 2.3381 9.90428C2.3397 5.64651 5.80405 2.18249 10.0637 2.18249C12.1263 2.18318 14.0653 2.98747 15.5233 4.44717C16.9813 5.90686 17.7837 7.84709 17.783 9.91057C17.7812 14.1687 14.3171 17.633 10.0606 17.633ZM14.2965 11.8493C14.0644 11.733 12.923 11.1716 12.7101 11.094C12.4975 11.0165 12.3425 10.978 12.1879 11.2103C12.0331 11.4426 11.5882 11.9656 11.4527 12.1204C11.3172 12.2754 11.182 12.2948 10.9498 12.1786C10.7176 12.0624 9.96959 11.8172 9.08278 11.0263C8.39271 10.4107 7.92682 9.65045 7.79132 9.41814C7.65605 9.18559 7.79017 9.07207 7.89317 8.94435C8.14448 8.63227 8.39614 8.30508 8.4735 8.15024C8.55098 7.99529 8.51218 7.85968 8.45405 7.74352C8.39614 7.62736 7.93185 6.48467 7.73845 6.0197C7.54985 5.5672 7.35862 5.62831 7.21602 5.62122C7.08076 5.61446 6.92592 5.61309 6.77108 5.61309C6.61635 5.61309 6.36481 5.67111 6.15195 5.90366C5.93921 6.13609 5.33954 6.69765 5.33954 7.84034C5.33954 8.98303 6.17141 10.0869 6.28745 10.2419C6.40349 10.3968 7.92453 12.7417 10.2533 13.7472C10.8072 13.9866 11.2395 14.1293 11.5768 14.2363C12.133 14.413 12.6389 14.3881 13.039 14.3283C13.4851 14.2616 14.4124 13.7667 14.606 13.2244C14.7995 12.6821 14.7995 12.2174 14.7413 12.1204C14.6834 12.0236 14.5286 11.9656 14.2965 11.8493Z" fill="#A7A7A7"/>
</svg>
