<?xml version="1.0" encoding="utf-8"?><svg xmlns="http://www.w3.org/2000/svg" xmlns:xlink="http://www.w3.org/1999/xlink"><symbol viewBox="0 0 26 26" id="Vector" xmlns="http://www.w3.org/2000/svg"><path d="M1.667.25h22.666a1.417 1.417 0 011.417 1.417v22.666a1.417 1.417 0 01-1.417 1.417H1.667A1.417 1.417 0 01.25 24.333V1.667A1.417 1.417 0 011.667.25zm1.416 2.833v19.834h19.834V3.083H3.083zm8.505 15.584l-6.011-6.011 2.003-2.003 4.008 4.007L19.6 6.646l2.005 2.003-10.017 10.018z"/></symbol><symbol viewBox="0 0 30 30" id="Vectorarr" xmlns="http://www.w3.org/2000/svg"><path d="M22.649 13.167l-9.834-9.834L15.407.741 29.667 15l-14.26 14.26-2.592-2.593 9.834-9.834H.333v-3.667H22.65z"/></symbol><symbol viewBox="0 0 16 11" id="Vectorarrs" xmlns="http://www.w3.org/2000/svg"><path d="M1.872.904L.34 2.436 8 10.096l7.66-7.66L14.129.904 8 7.032 1.872.904z"/></symbol><symbol viewBox="0 0 26 26" id="Vectoras" xmlns="http://www.w3.org/2000/svg"><path d="M1.667.25h22.666a1.417 1.417 0 011.417 1.417v22.666a1.417 1.417 0 01-1.417 1.417H1.667A1.417 1.417 0 01.25 24.333V1.667A1.417 1.417 0 011.667.25zm1.416 2.833v19.834h19.834V3.083H3.083z"/></symbol><symbol viewBox="0 0 8 14" id="arr-a" xmlns="http://www.w3.org/2000/svg"><path d="M5.172 7L.222 2.05 1.636.636 8 7l-6.364 6.364L.222 11.95 5.172 7z"/></symbol><symbol viewBox="0 0 20 20" id="arr-r" xmlns="http://www.w3.org/2000/svg"><path d="M6.523 10.833l4.47 4.47-1.178 1.178L3.333 10l6.482-6.482 1.178 1.178-4.47 4.47h10.144v1.667H6.523z"/></symbol><symbol viewBox="0 0 14 8" id="arrowb" xmlns="http://www.w3.org/2000/svg"><path d="M7 5.172l4.95-4.95 1.414 1.414L7 8 .636 1.636 2.05.222 7 5.172z"/></symbol><symbol viewBox="0 0 26 27" id="chevron-down" xmlns="http://www.w3.org/2000/svg"><path d="M6.872 8.904L5.34 10.436l7.66 7.66 7.66-7.66-1.532-1.532L13 15.032 6.872 8.904z"/></symbol><symbol viewBox="0 0 30 31" id="thumb" xmlns="http://www.w3.org/2000/svg"><rect x=".5" y=".5" width="29" height="30" rx="7.5"/><rect x="8" y="7" width="2" height="16" rx="1"/><rect x="14" y="7" width="2" height="16" rx="1"/><rect x="20" y="7" width="2" height="16" rx="1"/></symbol></svg>