<svg xmlns="http://www.w3.org/2000/svg" viewBox="0 0 492 492"><path d="M246 0C110.356 0 0 110.352 0 246s110.356 246 246 246c135.648 0 246-110.352 246-246S381.648 0 246 0zm107.78 296.076l-94.376 94.376c-3.604 3.604-8.432 5.592-13.592 5.592l-.064 3.844.012-3.844c-.004.004-.064.004-.068.004-5.16 0-9.988-1.988-13.596-5.592l-94.344-94.348c-7.496-7.496-7.496-19.692 0-27.184l16.12-16.128c3.608-3.608 8.4-5.6 13.476-5.6 5.076 0 9.868 1.992 13.468 5.592l27.852 28.084a3.843 3.843 0 006.572-2.708v-159.04c0-10.42 9.016-19.224 19.688-19.224h22.804c10.488 0 19.024 8.62 19.024 19.224v157.88a3.84 3.84 0 002.368 3.552 3.875 3.875 0 004.192-.828l27.06-26.96c3.612-3.612 8.448-5.604 13.616-5.604 5.168 0 10.004 1.992 13.616 5.608l16.148 16.12c3.616 3.616 5.608 8.444 5.612 13.592.004 5.156-1.98 9.98-5.588 13.592z"/></svg>