<svg xmlns="http://www.w3.org/2000/svg" viewBox="0 0 512 512"><path d="M444.709 239.616v227.621H67.877V239.616H32.768v245.175c0 9.696 7.858 17.554 17.554 17.554h411.941c9.696 0 17.554-7.858 17.554-17.554V239.616h-35.108z"/><path d="M494.446 107.953H17.554C7.858 107.953 0 115.811 0 125.507v114.688c0 9.696 7.858 17.554 17.554 17.554h476.891c9.696 0 17.554-7.853 17.554-17.554V125.507c.001-9.696-7.857-17.554-17.553-17.554zm-17.555 114.694H35.109v-79.579h441.783v79.579z"/><path d="M273.273 121.066c-1.194-4.552-30.152-111.411-114.7-111.411-36.782 0-66.706 29.924-66.706 66.706 0 36.782 29.661 66.706 66.121 66.706h98.304c5.436 0 10.574-2.522 13.897-6.829s4.459-9.912 3.084-15.172zm-115.284-13.107c-17.39 0-31.013-13.88-31.013-31.598 0-17.127 14.471-31.598 31.598-31.598 38.52 0 61.586 37.947 72.675 63.195h-73.26z"/><path d="M354.011 9.655c-84.547 0-113.506 106.859-114.7 111.411a17.551 17.551 0 0016.981 22.002h98.304c36.46 0 66.121-29.924 66.121-66.706.001-36.783-29.923-66.707-66.706-66.707zm.586 98.304h-73.33c11.007-25.249 34.003-63.195 72.751-63.195 17.127 0 31.598 14.471 31.598 31.598-.001 17.717-13.623 31.597-31.019 31.597z"/><path d="M238.738 125.513h35.109v359.278h-35.109z"/></svg>