<svg height="340pt" viewBox="-39 0 340 340.644" width="340pt" xmlns="http://www.w3.org/2000/svg"><path d="M186.902 194.16l-27.406-5.57v-20.098a56.93 56.93 0 0027.344-38.258c12.25-2.492 20.16-14.445 17.668-26.695a22.607 22.607 0 00-5.684-10.984 16.918 16.918 0 006.14-12.989v-17.05C204.923 28.008 176.958.043 142.45 0h-22.734c-34.512.043-62.477 28.008-62.52 62.516v17.05a16.93 16.93 0 006.14 12.989c-8.546 9.152-8.05 23.504 1.102 32.047a22.7 22.7 0 0010.883 5.632 56.95 56.95 0 0027.344 38.258v20.078l-27.406 5.59C31.328 204.133.203 243.258.363 288.31v47.007a5.683 5.683 0 005.684 5.68h250.066a5.68 5.68 0 005.684-5.68V288.31c.164-45.047-30.961-84.176-74.895-94.149zm-79.918 5.149l16.141 12.113-9.715 12.945-21.91-21.91zm48.207 0l15.512 3.105-21.96 21.957-9.708-12.95zm-41.382 42.886l-5.137 87.438h-1.195l-18.97-114.106zm7.324-9.18l9.949-13.257 9.945 13.258-9.945 13.261zm52.523-17.488l-18.972 114.106h-1.192l-5.082-87.524zm16.606-99.515a11.052 11.052 0 01-2.348 1.754v-19.57c5.414 3.097 7.293 9.995 4.195 15.41a11.301 11.301 0 01-1.847 2.406zm-121.7-53.496c.032-28.235 22.915-51.118 51.153-51.149h22.734c28.235.031 51.117 22.914 51.149 51.149v17.05a5.681 5.681 0 01-5.684 5.684v-5.684a5.681 5.681 0 00-5.684-5.683h-5.68a28.503 28.503 0 01-25.468-15.832 5.685 5.685 0 00-7.293-3.383 5.689 5.689 0 00-3.476 3.672 40.23 40.23 0 01-9.481 15.262 39.467 39.467 0 01-22.484 11.648H74.25a5.68 5.68 0 01-5.684-5.68V62.516zm0 45.468a11.334 11.334 0 015.684-9.789v19.575a11.112 11.112 0 01-5.683-9.786zm17.051 11.368V96.617h22.735a50.026 50.026 0 0030.504-14.965 50.92 50.92 0 007.757-10.015 39.964 39.964 0 0029.942 13.613v34.098c0 25.109-20.36 45.468-45.469 45.468s-45.469-20.355-45.469-45.464zm45.469 56.832a56.73 56.73 0 0017.047-2.621v16.828l-17.047 12.789-17.05-12.79v-16.827a56.724 56.724 0 0017.05 2.62zM11.73 288.309c-.128-38.793 26.086-72.73 63.653-82.407l20.574 123.73H57.195v-51.148a5.681 5.681 0 10-11.363 0v51.149H11.73zm108.329 41.324l4.296-73.375 2.176 2.902a5.684 5.684 0 009.094 0l2.215-2.96 4.265 73.433zm130.37 0h-34.097v-51.149a5.684 5.684 0 00-11.367 0v51.149h-38.762l20.574-123.727c37.567 9.676 63.782 43.61 63.653 82.403zm0 0"/></svg>