<svg width="895" height="398" fill="none" xmlns="http://www.w3.org/2000/svg"><path d="M124.696 164.481c-6.974 0-13.238-1.45-18.792-4.351-5.555-2.901-9.906-6.912-13.053-12.035-3.148-5.184-4.722-11.016-4.722-17.496 0-6.48 1.574-12.282 4.721-17.404 3.148-5.184 7.499-9.227 13.054-12.128 5.554-2.9 11.818-4.35 18.792-4.35 6.974 0 13.239 1.45 18.793 4.35 5.554 2.901 9.906 6.944 13.053 12.128 3.148 5.122 4.721 10.924 4.721 17.404s-1.573 12.312-4.721 17.496c-3.147 5.123-7.499 9.134-13.053 12.035-5.554 2.901-11.819 4.351-18.793 4.351zm0-17.682c2.716 0 5.154-.648 7.314-1.944 2.222-1.357 3.98-3.24 5.276-5.647 1.297-2.468 1.945-5.338 1.945-8.609s-.648-6.11-1.945-8.517c-1.296-2.469-3.054-4.351-5.276-5.647-2.16-1.358-4.598-2.037-7.314-2.037-2.715 0-5.184.679-7.406 2.037-2.16 1.296-3.888 3.178-5.184 5.647-1.296 2.407-1.944 5.246-1.944 8.517 0 3.271.648 6.141 1.944 8.609 1.296 2.407 3.024 4.29 5.184 5.647 2.222 1.296 4.691 1.944 7.406 1.944zm127.378-16.478c0 8.517-2.839 15.275-8.517 20.274-5.678 4.937-13.948 7.776-24.81 8.517v7.221H198.75v-7.314c-10.923-.925-19.224-3.826-24.902-8.702-5.616-4.875-8.425-11.541-8.425-19.996 0-8.455 2.809-15.09 8.425-19.904 5.678-4.875 13.979-7.776 24.902-8.702v-6.758h19.997v6.758c10.923.803 19.193 3.673 24.81 8.61 5.678 4.876 8.517 11.541 8.517 19.996zm-33.327 11.757c4.32-.617 7.436-1.851 9.35-3.703 1.913-1.913 2.869-4.629 2.869-8.147 0-3.456-.987-6.109-2.962-7.961-1.913-1.851-4.999-3.086-9.257-3.703v23.514zm-32.216-11.757c0 3.394.987 6.017 2.962 7.869 2.037 1.851 5.122 3.117 9.257 3.796v-23.329c-4.381.617-7.529 1.851-9.442 3.703-1.852 1.789-2.777 4.443-2.777 7.961zm105.949 34.16c-6.851 0-13.023-1.419-18.515-4.258-5.493-2.901-9.813-6.913-12.961-12.035-3.086-5.184-4.629-11.047-4.629-17.589 0-6.542 1.543-12.374 4.629-17.497 3.148-5.184 7.468-9.196 12.961-12.035 5.492-2.9 11.664-4.35 18.515-4.35 6.295 0 11.911 1.11 16.848 3.332 4.938 2.222 9.011 5.431 12.22 9.628l-13.794 12.312c-4.011-5.06-8.732-7.591-14.164-7.591-4.567 0-8.239 1.481-11.016 4.444-2.777 2.9-4.166 6.819-4.166 11.757 0 4.937 1.389 8.887 4.166 11.849 2.777 2.901 6.449 4.351 11.016 4.351 5.432 0 10.153-2.53 14.164-7.591l13.794 12.313c-3.209 4.196-7.282 7.406-12.22 9.628-4.937 2.221-10.553 3.332-16.848 3.332zm89.548-17.959V163h-53.879V98.198h52.675v16.478h-31.198v7.591h27.403v15.738h-27.403v8.517h32.402zm64.037-31.383h-18.978V163H405.61v-47.861h-18.978V98.198h59.433v16.941zm71.081-16.941V163h-21.847v-23.884h-20.182V163H453.27V98.198h21.847v22.958h20.182V98.198h21.847zm57.254 53.508h-24.625L545.424 163h-22.218l28.328-64.802h21.477L601.339 163h-22.588l-4.351-11.294zm-6.018-15.738l-6.295-16.293-6.295 16.293h12.59zm92.073-37.77V163h-21.478v-15.367h-5.832L623.239 163h-22.866l12.776-18.515c-4.197-1.975-7.437-4.752-9.721-8.332-2.221-3.641-3.332-7.93-3.332-12.868 0-5.122 1.203-9.566 3.61-13.33 2.469-3.765 5.956-6.666 10.461-8.702 4.505-2.037 9.813-3.055 15.923-3.055h30.365zm-29.995 16.848c-5.554 0-8.331 2.623-8.331 7.869 0 5.493 2.777 8.239 8.331 8.239h8.517v-16.108h-8.517zM146.914 228.139h-18.978V276h-21.477v-47.861H87.481v-16.941h59.433v16.941zm7.205-16.941h21.478v33.697l22.31-33.697h20.552V276h-21.478v-33.605L174.763 276h-20.644v-64.802zm138.523 0V276h-21.477v-47.861h-19.719V276h-21.477v-64.802h62.673zm44.416 66.283c-6.974 0-13.238-1.45-18.793-4.351-5.554-2.901-9.905-6.912-13.053-12.035-3.147-5.184-4.721-11.016-4.721-17.496 0-6.48 1.574-12.282 4.721-17.404 3.148-5.184 7.499-9.227 13.053-12.128 5.555-2.9 11.819-4.351 18.793-4.351 6.974 0 13.238 1.451 18.793 4.351 5.554 2.901 9.905 6.944 13.053 12.128 3.147 5.122 4.721 10.924 4.721 17.404s-1.574 12.312-4.721 17.496c-3.148 5.123-7.499 9.134-13.053 12.035-5.555 2.901-11.819 4.351-18.793 4.351zm0-17.682c2.716 0 5.153-.648 7.313-1.944 2.222-1.357 3.981-3.24 5.277-5.647 1.296-2.468 1.944-5.338 1.944-8.609s-.648-6.11-1.944-8.517c-1.296-2.469-3.055-4.351-5.277-5.647-2.16-1.358-4.597-2.037-7.313-2.037-2.716 0-5.184.679-7.406 2.037-2.16 1.296-3.888 3.178-5.184 5.647-1.296 2.407-1.944 5.246-1.944 8.517 0 3.271.648 6.141 1.944 8.609 1.296 2.407 3.024 4.29 5.184 5.647 2.222 1.296 4.69 1.944 7.406 1.944zm93.773-31.66h-27.866V276h-21.477v-64.802h49.343v16.941zm38.448-16.941c5.987 0 11.202.987 15.646 2.962 4.443 1.975 7.868 4.814 10.275 8.517 2.407 3.703 3.611 8.023 3.611 12.96 0 4.938-1.204 9.258-3.611 12.961-2.407 3.703-5.832 6.542-10.275 8.517-4.444 1.975-9.659 2.962-15.646 2.962h-9.35V276h-21.847v-64.802h31.197zm-1.388 32.03c2.962 0 5.184-.648 6.665-1.944 1.481-1.357 2.222-3.24 2.222-5.647s-.741-4.258-2.222-5.554c-1.481-1.358-3.703-2.037-6.665-2.037h-7.962v15.182h7.962zm80.02 21.478h-24.625L518.935 276h-22.218l28.328-64.802h21.477L574.85 276h-22.588l-4.351-11.294zm-6.017-15.738l-6.295-16.293-6.296 16.293h12.591zm120.981-5.647c0 8.517-2.839 15.275-8.517 20.274-5.678 4.937-13.948 7.776-24.81 8.517v7.221h-19.997v-7.314c-10.923-.925-19.224-3.826-24.902-8.702-5.616-4.875-8.425-11.541-8.425-19.996 0-8.455 2.809-15.09 8.425-19.904 5.678-4.875 13.979-7.776 24.902-8.702v-6.758h19.997v6.758c10.923.803 19.193 3.673 24.81 8.61 5.678 4.876 8.517 11.541 8.517 19.996zm-33.327 11.757c4.32-.617 7.436-1.851 9.35-3.703 1.913-1.913 2.869-4.629 2.869-8.147 0-3.456-.987-6.109-2.962-7.961-1.913-1.851-4.999-3.086-9.257-3.703v23.514zm-32.217-11.757c0 3.394.988 6.017 2.963 7.869 2.037 1.851 5.122 3.117 9.257 3.796v-23.329c-4.382.617-7.529 1.851-9.442 3.703-1.852 1.789-2.778 4.443-2.778 7.961zm73.363-32.123h21.478v33.697l22.31-33.697h20.552V276h-21.478v-33.605L691.338 276h-20.644v-64.802zm132.691 0V276h-21.477v-15.367h-5.833L766.17 276h-22.866l12.775-18.515c-4.196-1.975-7.437-4.752-9.72-8.332-2.222-3.641-3.333-7.93-3.333-12.868 0-5.122 1.204-9.566 3.611-13.33 2.468-3.765 5.955-6.666 10.461-8.702 4.505-2.037 9.813-3.055 15.922-3.055h30.365zm-29.994 16.848c-5.555 0-8.332 2.623-8.332 7.869 0 5.493 2.777 8.239 8.332 8.239h8.517v-16.108h-8.517z" fill="#fff"/><path stroke="#fff" stroke-width="23.954" d="M11.977 11.977h871.046v374.046H11.977z"/></svg>