<svg width="310" height="289" fill="none" xmlns="http://www.w3.org/2000/svg"><path d="M43.67 58.01c-2.41 0-4.576-.5-6.496-1.503-1.92-1.003-3.424-2.39-4.512-4.16-1.088-1.793-1.633-3.81-1.633-6.05 0-2.24.545-4.245 1.633-6.016 1.088-1.792 2.592-3.19 4.512-4.192 1.92-1.003 4.086-1.504 6.496-1.504 2.411 0 4.577.501 6.497 1.504 1.92 1.003 3.424 2.4 4.512 4.192 1.088 1.771 1.633 3.776 1.633 6.017 0 2.24-.544 4.256-1.633 6.048-1.088 1.77-2.592 3.158-4.512 4.16-1.92 1.003-4.086 1.505-6.497 1.505zm0-6.112c.94 0 1.782-.224 2.529-.672a5.032 5.032 0 001.824-1.952c.448-.854.672-1.846.672-2.976 0-1.131-.224-2.113-.672-2.945-.448-.853-1.056-1.504-1.824-1.952-.747-.47-1.59-.704-2.529-.704-.938 0-1.792.235-2.56.704-.746.448-1.344 1.099-1.792 1.952-.448.832-.672 1.814-.672 2.945 0 1.13.224 2.122.672 2.976.448.832 1.046 1.483 1.792 1.952.768.448 1.622.672 2.56.672zm44.034-5.696c0 2.944-.981 5.28-2.944 7.008-1.963 1.707-4.822 2.688-8.577 2.944v2.497h-6.912v-2.529c-3.777-.32-6.646-1.322-8.61-3.008-1.94-1.685-2.911-3.99-2.911-6.912 0-2.923.97-5.217 2.912-6.88 1.963-1.686 4.832-2.69 8.609-3.01v-2.335h6.912v2.336c3.776.277 6.635 1.27 8.577 2.976 1.963 1.685 2.944 3.99 2.944 6.913zm-11.52 4.064c1.493-.213 2.57-.64 3.231-1.28.662-.661.992-1.6.992-2.816 0-1.195-.34-2.113-1.024-2.753-.661-.64-1.728-1.066-3.2-1.28v8.129zm-11.138-4.064c0 1.173.342 2.08 1.024 2.72.704.64 1.771 1.077 3.2 1.312v-8.065c-1.514.214-2.602.64-3.264 1.28-.64.62-.96 1.537-.96 2.753zm36.626 11.809c-2.368 0-4.501-.491-6.4-1.473-1.9-1.002-3.393-2.39-4.48-4.16-1.067-1.792-1.6-3.819-1.6-6.08 0-2.262.533-4.278 1.6-6.049 1.087-1.792 2.58-3.179 4.48-4.16 1.898-1.003 4.032-1.504 6.4-1.504 2.176 0 4.118.384 5.825 1.152 1.706.768 3.115 1.877 4.224 3.328l-4.768 4.256c-1.387-1.75-3.019-2.624-4.897-2.624-1.579 0-2.848.512-3.808 1.536-.96 1.003-1.44 2.358-1.44 4.065 0 1.706.48 3.072 1.44 4.096.96 1.003 2.229 1.504 3.808 1.504 1.878 0 3.51-.875 4.897-2.624l4.768 4.256c-1.109 1.451-2.518 2.56-4.224 3.328-1.707.769-3.649 1.153-5.825 1.153zm30.956-6.209V57.5h-18.625V35.096h18.209v5.696h-10.785v2.624h9.473v5.44h-9.473v2.945h11.201zm22.138-10.849h-6.561v16.545h-7.424V40.953h-6.561v-5.856h20.546v5.856zm24.572-5.856v22.401h-7.552v-8.256h-6.977v8.257h-7.553V35.096h7.553v7.936h6.977v-7.936h7.552zm19.792 18.497h-8.512l-1.505 3.904h-7.68l9.793-22.401h7.424l9.793 22.401h-7.809l-1.504-3.904zm-2.08-5.44l-2.176-5.633-2.176 5.633h4.352zm31.829-13.057v22.401h-7.425v-5.312h-2.016l-3.424 5.313h-7.905l4.417-6.401c-1.451-.683-2.571-1.643-3.361-2.88-.768-1.259-1.152-2.742-1.152-4.449 0-1.77.416-3.306 1.248-4.608.854-1.301 2.059-2.304 3.617-3.008 1.557-.704 3.392-1.056 5.504-1.056h10.497zM218.51 40.92c-1.92 0-2.88.907-2.88 2.72 0 1.9.96 2.849 2.88 2.849h2.944V40.92h-2.944zM51.351 79.953h-6.56V96.5h-7.425V79.953h-6.56v-5.856H51.35v5.856zm2.49-5.856h7.425v11.649l7.713-11.65h7.105V96.5h-7.425V84.882l-7.68 11.617h-7.137V74.097zm47.887 0v22.402h-7.424V79.953h-6.817V96.5h-7.424V74.097h21.665zm15.355 22.914c-2.411 0-4.577-.502-6.497-1.504-1.92-1.003-3.424-2.39-4.512-4.16-1.088-1.793-1.632-3.81-1.632-6.05 0-2.24.544-4.245 1.632-6.016 1.088-1.792 2.592-3.19 4.512-4.192 1.92-1.003 4.086-1.504 6.497-1.504 2.41 0 4.576.501 6.496 1.504 1.92 1.003 3.424 2.4 4.513 4.192 1.088 1.771 1.632 3.776 1.632 6.017 0 2.24-.544 4.256-1.632 6.048-1.089 1.77-2.593 3.158-4.513 4.16-1.92 1.003-4.086 1.505-6.496 1.505zm0-6.113c.938 0 1.781-.224 2.528-.672a5.031 5.031 0 001.824-1.952c.448-.853.672-1.846.672-2.976 0-1.131-.224-2.112-.672-2.945-.448-.853-1.056-1.504-1.824-1.952-.747-.47-1.59-.704-2.528-.704-.939 0-1.793.235-2.561.704-.746.448-1.344 1.099-1.792 1.952-.448.833-.672 1.814-.672 2.945 0 1.13.224 2.123.672 2.976.448.832 1.046 1.483 1.792 1.952.768.448 1.622.672 2.561.672zm32.416-10.945h-9.633V96.5h-7.424V74.097h17.057v5.856zm13.292-5.856c2.069 0 3.872.341 5.408 1.024 1.536.683 2.72 1.664 3.553 2.944.832 1.28 1.248 2.774 1.248 4.48 0 1.707-.416 3.2-1.248 4.48-.833 1.28-2.017 2.262-3.553 2.945-1.536.683-3.339 1.024-5.408 1.024h-3.232V96.5h-7.553V74.097h10.785zm-.48 11.073c1.024 0 1.792-.224 2.304-.672.512-.47.768-1.12.768-1.953 0-.832-.256-1.472-.768-1.92-.512-.47-1.28-.704-2.304-.704h-2.752v5.249h2.752zm27.662 7.424h-8.512l-1.505 3.905h-7.68l9.793-22.402h7.424l9.793 22.402h-7.809l-1.504-3.905zm-2.08-5.44l-2.176-5.633-2.176 5.633h4.352zm41.822-1.952c0 2.944-.981 5.28-2.944 7.008-1.963 1.707-4.822 2.688-8.577 2.944v2.497h-6.912v-2.529c-3.776-.32-6.646-1.322-8.609-3.008-1.941-1.685-2.912-3.99-2.912-6.912 0-2.923.971-5.217 2.912-6.88 1.963-1.686 4.833-2.69 8.609-3.01v-2.335h6.912v2.336c3.777.277 6.636 1.27 8.577 2.976 1.963 1.686 2.944 3.99 2.944 6.913zm-11.521 4.064c1.494-.213 2.571-.64 3.233-1.28.661-.662.992-1.6.992-2.816 0-1.195-.342-2.112-1.024-2.753-.662-.64-1.728-1.066-3.201-1.28v8.129zm-11.136-4.064c0 1.173.341 2.08 1.024 2.72.704.64 1.77 1.077 3.2 1.312v-8.065c-1.515.214-2.603.64-3.264 1.28-.64.62-.96 1.537-.96 2.753zm25.361-11.105h7.424v11.649l7.713-11.65h7.104V96.5h-7.424V84.882l-7.681 11.617h-7.136V74.097zm45.87 0v22.402h-7.425v-5.313h-2.016l-3.424 5.313h-7.905l4.417-6.401c-1.451-.683-2.571-1.643-3.361-2.88-.768-1.259-1.152-2.742-1.152-4.449 0-1.77.416-3.306 1.248-4.608.854-1.301 2.059-2.304 3.617-3.008 1.557-.704 3.392-1.056 5.504-1.056h10.497zM267.92 79.92c-1.92 0-2.88.907-2.88 2.72 0 1.9.96 2.849 2.88 2.849h2.944V79.92h-2.944zM57.4 129.642v10.241h-6.913v-4.384H37.75v4.384h-6.913v-10.241h.64c1.302 0 2.22-.821 2.753-2.464.533-1.643.875-4.064 1.024-7.265l.256-6.816h18.945v16.545H57.4zm-15.586-9.089c-.085 2.155-.256 3.99-.512 5.505-.256 1.493-.65 2.688-1.184 3.584h6.913v-10.689h-5.153l-.064 1.6zm39.98-7.456v22.402h-7.425v-16.546h-5.12l-.064 2.592c-.085 3.201-.341 5.825-.768 7.873s-1.174 3.648-2.24 4.8c-1.067 1.131-2.593 1.697-4.577 1.697-1.003 0-2.07-.139-3.2-.416l.384-6.049c.277.064.555.096.832.096.79 0 1.387-.32 1.792-.96.427-.64.715-1.493.864-2.56.15-1.067.256-2.464.32-4.193l.288-8.736h18.914zm23.606 0v22.402h-7.424v-5.313H95.96l-3.425 5.313h-7.904l4.416-6.401c-1.45-.683-2.571-1.643-3.36-2.88-.768-1.259-1.153-2.742-1.153-4.449 0-1.77.417-3.306 1.249-4.608.853-1.301 2.058-2.304 3.616-3.008 1.557-.704 3.392-1.056 5.504-1.056H105.4zm-10.369 5.824c-1.92 0-2.88.907-2.88 2.72 0 1.899.96 2.849 2.88 2.849h2.945v-5.569H95.03zm-62.753 33.176h19.425v5.696h-12v2.592h5.344c2.73 0 4.821.587 6.272 1.761 1.472 1.152 2.208 2.826 2.208 5.024 0 2.283-.832 4.075-2.496 5.376-1.664 1.302-3.979 1.953-6.944 1.953h-11.81v-22.402zm11.297 17.121c.746 0 1.322-.16 1.728-.48.426-.32.64-.779.64-1.376 0-1.152-.79-1.728-2.368-1.728h-3.873v3.584h3.873zm12.548-17.121h7.425v11.649l7.712-11.649h7.105v22.402h-7.424v-11.617l-7.681 11.617h-7.137v-22.402zm41.23 10.753c1.195.49 2.123 1.205 2.785 2.144.682.939 1.024 2.005 1.024 3.2 0 1.408-.502 2.635-1.505 3.68-.98 1.024-2.314 1.814-4 2.369-1.664.533-3.52.8-5.568.8-3.264 0-6.369-.651-9.313-1.953l2.208-5.216c1.046.427 2.134.757 3.264.992 1.131.213 2.198.32 3.2.32 1.217 0 2.198-.171 2.945-.512.768-.341 1.152-.843 1.152-1.504 0-.896-.736-1.344-2.208-1.344h-6.049v-5.441h5.409c.64 0 1.12-.117 1.44-.352.341-.234.512-.565.512-.992 0-.554-.299-.981-.896-1.28-.576-.298-1.344-.448-2.304-.448-.896 0-1.867.128-2.913.384a14.188 14.188 0 00-2.976 1.088l-2.208-5.6c2.475-1.131 5.163-1.696 8.065-1.696 1.941 0 3.733.266 5.376.8 1.664.533 2.987 1.312 3.968 2.336 1.003 1.003 1.505 2.187 1.505 3.552 0 1.003-.256 1.91-.769 2.72-.512.811-1.226 1.462-2.144 1.953zm28.575-10.753v22.402h-7.553v-8.257h-6.977v8.257h-7.552v-22.402h7.552v7.936h6.977v-7.936h7.553zm22.608 16.705v5.697H129.91v-22.402h18.21v5.696h-10.785v2.624h9.473v5.441h-9.473v2.944h11.201zm14.329 6.209c-2.369 0-4.502-.491-6.401-1.473-1.899-1.002-3.392-2.389-4.48-4.16-1.067-1.792-1.6-3.819-1.6-6.08 0-2.262.533-4.278 1.6-6.049 1.088-1.792 2.581-3.179 4.48-4.16 1.899-1.003 4.032-1.504 6.401-1.504 2.176 0 4.117.384 5.824 1.152 1.707.768 3.115 1.877 4.224 3.328l-4.768 4.256c-1.387-1.749-3.019-2.624-4.896-2.624-1.579 0-2.849.512-3.809 1.536-.96 1.003-1.44 2.358-1.44 4.065 0 1.706.48 3.072 1.44 4.096.96 1.003 2.23 1.504 3.809 1.504 1.877 0 3.509-.875 4.896-2.624l4.768 4.256c-1.109 1.451-2.517 2.56-4.224 3.328-1.707.769-3.648 1.153-5.824 1.153zm27.827-4.417h-8.513l-1.504 3.905h-7.68l9.792-22.402h7.425l9.793 22.402h-7.809l-1.504-3.905zm-2.08-5.44l-2.176-5.633-2.177 5.633h4.353zm-139.117 36.6c1.259.448 2.219 1.12 2.88 2.016.662.874.992 1.952.992 3.232 0 2.006-.8 3.595-2.4 4.768-1.579 1.152-3.819 1.729-6.72 1.729h-11.97v-22.402h11.361c2.774 0 4.918.512 6.433 1.536 1.536 1.024 2.304 2.464 2.304 4.32 0 1.067-.256 2.006-.768 2.816-.49.811-1.195 1.473-2.112 1.985zm-9.793-2.049h3.2c1.238 0 1.857-.544 1.857-1.632 0-1.13-.62-1.696-1.856-1.696h-3.2v3.328zm4.193 8.513c1.237 0 1.856-.597 1.856-1.792 0-1.152-.619-1.728-1.856-1.728h-4.193v3.52h4.193zm8.384 44.281l-.064-10.209-4.864 8.192h-3.328l-4.865-7.84v9.857h-6.88v-22.402h6.208l7.297 11.937 7.104-11.937h6.209l.064 22.402h-6.88zm22.206.512c-2.41 0-4.576-.502-6.496-1.505-1.92-1.002-3.424-2.389-4.512-4.16-1.088-1.792-1.633-3.808-1.633-6.048 0-2.241.544-4.246 1.633-6.017 1.088-1.792 2.592-3.189 4.512-4.192 1.92-1.003 4.086-1.504 6.496-1.504 2.411 0 4.577.501 6.497 1.504 1.92 1.003 3.424 2.4 4.512 4.192 1.088 1.771 1.632 3.776 1.632 6.017 0 2.24-.544 4.256-1.632 6.048-1.088 1.771-2.592 3.158-4.512 4.16-1.92 1.003-4.086 1.505-6.496 1.505zm0-6.113c.94 0 1.782-.224 2.529-.672a5.028 5.028 0 001.824-1.952c.448-.854.672-1.846.672-2.976 0-1.131-.224-2.113-.672-2.945-.448-.853-1.056-1.504-1.824-1.952-.747-.469-1.59-.704-2.528-.704a4.81 4.81 0 00-2.56.704c-.747.448-1.345 1.099-1.793 1.952-.448.832-.672 1.814-.672 2.945 0 1.13.224 2.122.672 2.976.448.832 1.046 1.483 1.792 1.952.768.448 1.622.672 2.56.672zm26.625 6.113c-2.369 0-4.502-.491-6.4-1.473-1.9-1.002-3.393-2.389-4.481-4.16-1.067-1.792-1.6-3.819-1.6-6.08 0-2.262.533-4.278 1.6-6.049 1.088-1.792 2.581-3.179 4.48-4.16 1.899-1.003 4.032-1.504 6.401-1.504 2.176 0 4.117.384 5.824 1.152 1.707.768 3.115 1.877 4.224 3.328l-4.768 4.256c-1.387-1.749-3.019-2.624-4.896-2.624-1.58 0-2.849.512-3.809 1.536-.96 1.003-1.44 2.358-1.44 4.065 0 1.706.48 3.072 1.44 4.096.96 1.003 2.23 1.504 3.809 1.504 1.877 0 3.509-.875 4.896-2.624l4.768 4.256c-1.109 1.451-2.517 2.56-4.224 3.328-1.707.769-3.648 1.153-5.824 1.153zm27.98-12.033l6.624 11.521h-8.513l-4.288-8.097h-2.112v8.097h-7.553v-22.402h7.553v8.352h2.304l4.769-8.352h7.872l-6.656 10.881zm25.413-.224c1.259.448 2.219 1.12 2.881 2.016.661.874.992 1.952.992 3.232 0 2.006-.8 3.595-2.401 4.768-1.578 1.152-3.818 1.729-6.72 1.729h-11.969v-22.402h11.361c2.773 0 4.918.512 6.432 1.536 1.537 1.024 2.305 2.464 2.305 4.32 0 1.067-.256 2.006-.768 2.816-.491.811-1.195 1.473-2.113 1.985zm-9.792-2.049h3.2c1.237 0 1.856-.544 1.856-1.632 0-1.13-.619-1.696-1.856-1.696h-3.2v3.328zm4.192 8.513c1.237 0 1.856-.597 1.856-1.792 0-1.152-.619-1.728-1.856-1.728h-4.192v3.52h4.192zm30.792-.416v5.697h-18.626v-22.402h18.21v5.696h-10.785v2.624h9.473v5.441h-9.473v2.944h11.201z" fill="#fff"/><path stroke="#fff" stroke-width="8.281" d="M4.746 4.14h300.961v280.719H4.746z"/></svg>