<svg width="52" height="30" fill="none" xmlns="http://www.w3.org/2000/svg"><path d="M42.675 17.203c-.831-1.05-.594-1.518 0-2.456.01-.01 6.874-9.495 7.581-12.712l.005-.002C50.612.861 50.26 0 48.56 0h-5.62c-1.432 0-2.092.739-2.445 1.566 0 0-2.863 6.853-6.913 11.295-1.307 1.284-1.912 1.695-2.625 1.695-.352 0-.898-.411-.898-1.583V2.033c0-1.405-.4-2.033-1.586-2.033h-8.841C18.734 0 18.2.655 18.2 1.266c0 1.333 2.025 1.64 2.235 5.39v8.136c0 1.783-.323 2.11-1.041 2.11-1.912 0-6.55-6.88-9.3-14.755C9.538.619 8.996.002 7.553.002H1.93C.324.002 0 .742 0 1.568c0 1.462 1.911 8.728 8.889 18.328C13.539 26.45 20.087 30 26.044 30c3.581 0 4.018-.789 4.018-2.145 0-6.262-.323-6.853 1.47-6.853.832 0 2.263.411 5.606 3.572C40.958 28.322 41.586 30 43.725 30h5.623c1.603 0 2.415-.789 1.948-2.345-1.07-3.272-8.295-10.002-8.621-10.452z" fill="#1D181C"/></svg>