<?xml version="1.0" encoding="utf-8"?><svg xmlns="http://www.w3.org/2000/svg" xmlns:xlink="http://www.w3.org/1999/xlink"><symbol viewBox="0 0 70 71" id="app-apk" xmlns="http://www.w3.org/2000/svg"><rect y=".916" width="70" height="70" rx="16.8"/><g clip-path="url(#aclip0)"><path d="M47.202 12.32c8.338 0 15.098 6.76 15.098 15.097 0 13.779-27.301 32.08-27.301 32.08s-27.3-17.642-27.3-32.08c0-10.38 6.76-15.097 15.097-15.097 5.022 0 9.457 2.463 12.203 6.233 2.746-3.77 7.182-6.233 12.203-6.233z"/></g><defs><linearGradient id="apaint0_linear" x1="35" y1=".916" x2="35" y2="70.916" gradientUnits="userSpaceOnUse"><stop stop-color="#EB3A67"/><stop offset="1" stop-color="#822F8B"/></linearGradient><clipPath id="aclip0"><path transform="translate(7.7 8.616)" d="M0 0h54.6v54.6H0z"/></clipPath></defs></symbol><symbol viewBox="0 0 271 243" id="blg-2" xmlns="http://www.w3.org/2000/svg"><path fill-rule="evenodd" clip-rule="evenodd" d="M268.775 96.64c6.294 22.535-5.807 45.176-14.392 66.936-8.763 22.212-16.212 46.291-35.711 60.057-20.143 14.222-48.409 25.785-70.582 14.987-22.619-11.015-14.606-48.931-33.425-65.636-18.219-16.173-50.22-6.255-67.22-23.706-23.929-24.564-58.066-59.101-43.832-90.296C18.03 27.38 68.617 42.764 101.339 31.156c23.353-8.285 41.368-33.6 65.919-30.228 24.38 3.349 36.86 29.917 54.772 46.805 16.82 15.857 40.526 26.637 46.745 48.905z"/><defs><linearGradient id="bpaint0_linear" x1="268.99" y1="97.39" x2="18.681" y2="156.92" gradientUnits="userSpaceOnUse"><stop stop-color="#EB3A67"/><stop offset="1" stop-color="#822F8B"/></linearGradient></defs></symbol><symbol viewBox="0 0 256 198" id="block_bg" xmlns="http://www.w3.org/2000/svg"><path fill-rule="evenodd" clip-rule="evenodd" d="M61.9 194.034c-20.177-9.399-29.047-32.154-39.456-51.823C11.818 122.134-.97 101.85 1.15 79.241 3.34 55.888 12.48 28.309 34.003 18.97c21.957-9.526 44.393 19.729 68.109 16.47 22.96-3.155 35.599-32.415 58.729-33.898 32.555-2.087 78.635-5.378 92.366 24.211 13.91 29.974-28.511 57.003-40.374 87.829-8.467 22-1.325 50.683-18.955 66.335-17.507 15.543-44.426 8.118-67.714 10.609-21.866 2.339-44.325 12.796-64.263 3.509z"/><defs><linearGradient id="cpaint0_linear" x1="61.225" y1="193.724" x2="173.119" y2="-23.971" gradientUnits="userSpaceOnUse"><stop stop-color="#EB3A67"/><stop offset="1" stop-color="#822F8B"/></linearGradient></defs></symbol><symbol viewBox="0 0 30 26" id="heart" xmlns="http://www.w3.org/2000/svg"><path fill-rule="evenodd" clip-rule="evenodd" d="M16.301 25.385a2 2 0 01-2.602 0l-.874-.748C5.1 18.013 0 13.642 0 8.293 0 3.922 3.623.5 8.25.5c2.61 0 5.115 1.148 6.75 2.954C16.635 1.648 19.14.5 21.75.5 26.378.5 30 3.922 30 8.293c0 5.349-5.1 9.72-12.825 16.344l-.874.748z"/></symbol><symbol viewBox="0 0 30 29" id="man" xmlns="http://www.w3.org/2000/svg"><path fill-rule="evenodd" clip-rule="evenodd" d="M15 17.73c4.734 0 8.571-3.857 8.571-8.615S19.734.5 15 .5 6.428 4.357 6.428 9.115s3.838 8.616 8.572 8.616zM0 28.5v-2.462c0-3.398 2.375-6.153 5.305-6.153h19.39c2.93 0 5.305 2.762 5.305 6.153V28.5H0z"/></symbol></svg>