<svg width="15" height="16" fill="none" xmlns="http://www.w3.org/2000/svg"><path opacity=".3" d="M5.231 13.958c0 .665.018 1.354-.007 2.042h5.366v-.22c0-.844-.003-1.688.008-2.53.011-.819-.085-1.6-.697-2.239.467-.091.91-.158 1.344-.268 1.283-.324 2.366-.953 2.95-2.193.638-1.354.808-2.78.34-4.22-.154-.473-.493-.885-.736-1.33-.048-.09-.088-.22-.061-.31.246-.851.18-1.685-.128-2.503-.03-.08-.169-.165-.259-.167-.513-.009-.99.158-1.442.379-.389.19-.757.424-1.14.624a.508.508 0 01-.323.06 10.572 10.572 0 00-5.058-.002.505.505 0 01-.344-.07C4.337.58 3.62.176 2.787.038L2.712.023c-.416-.056-.45-.036-.575.371-.238.776-.275 1.553-.035 2.338a.3.3 0 01-.053.242C1.091 4.089.923 5.395 1.11 6.79c.12.89.38 1.728.948 2.443.697.877 1.65 1.318 2.71 1.563.368.086.743.141 1.149.216-.365.387-.546.829-.643 1.313-.012.062-.098.13-.165.159-1.2.505-2.268.17-2.962-.924-.35-.553-.809-.968-1.472-1.093a1.418 1.418 0 00-.526.028c-.17.034-.19.163-.083.288.082.096.176.19.284.255.574.343.943.858 1.188 1.46.414 1.016 1.211 1.459 2.249 1.518.47.028.946-.035 1.444-.059z" fill="#fff"/></svg>