<svg width="16" height="16" fill="none" xmlns="http://www.w3.org/2000/svg"><path opacity=".3" d="M14.217 5.872c-.506 0-.95.213-1.278.544-1.203-.845-2.826-1.39-4.624-1.447L9.25.698l2.974.677c0 .739.594 1.342 1.322 1.342.742 0 1.338-.619 1.338-1.358 0-.74-.592-1.359-1.338-1.359-.519 0-.967.318-1.19.753L9.07.014c-.165-.045-.327.075-.371.243L7.673 4.965c-1.784.076-3.389.619-4.596 1.465a1.782 1.782 0 00-1.295-.558c-1.875 0-2.489 2.553-.772 3.425a3.93 3.93 0 00-.088.846c0 2.867 3.183 5.19 7.092 5.19 3.925 0 7.109-2.323 7.109-5.19 0-.288-.03-.589-.104-.86 1.682-.876 1.062-3.41-.802-3.411zM3.734 9.479c0-.753.593-1.359 1.339-1.359.728 0 1.322.602 1.322 1.359 0 .739-.594 1.342-1.322 1.342a1.338 1.338 0 01-1.339-1.342zm7.226 3.198c-1.227 1.246-4.69 1.246-5.919 0-.135-.12-.135-.332 0-.468a.32.32 0 01.446 0c.937.975 4.046.992 5.024 0a.32.32 0 01.446 0c.138.137.138.349.003.468zm-.027-1.854a1.333 1.333 0 01-1.322-1.34c0-.753.594-1.359 1.322-1.359.742 0 1.338.602 1.338 1.359a1.343 1.343 0 01-1.338 1.34z" fill="#fff"/></svg>