<svg width="16" height="16" fill="none" xmlns="http://www.w3.org/2000/svg"><path d="M5.894 8.435a1.68 1.68 0 00-1.68 1.68v4.204a1.68 1.68 0 003.36 0v-4.204a1.68 1.68 0 00-1.68-1.68zm-5.883 1.68a1.682 1.682 0 003.364 0V8.433H1.693c-.928 0-1.682.754-1.682 1.682zM5.896 0h-.002a1.682 1.682 0 000 3.364h1.68V1.679A1.68 1.68 0 005.897 0zM1.682 7.58h4.212a1.682 1.682 0 000-3.363H1.682a1.682 1.682 0 000 3.364zm12.621-3.364c-.927 0-1.678.751-1.678 1.679V7.58h1.68a1.682 1.682 0 000-3.364h-.002zM8.426 1.682v4.217a1.68 1.68 0 003.361 0V1.682a1.681 1.681 0 00-3.361 0zm3.361 12.636a1.68 1.68 0 00-1.68-1.68H8.425v1.681a1.68 1.68 0 003.36-.001zm2.531-5.885h-4.212a1.682 1.682 0 000 3.364h4.212a1.682 1.682 0 000-3.364z" opacity=".3" fill="#fff"/></svg>