<svg width="178" height="65" fill="none" xmlns="http://www.w3.org/2000/svg"><path d="M1.5 64c.167-5.166-.4-15.5 2-17.5 3-2.5 12-2.5 15-2.5s13 2.5 18 0S55.22 34.44 56 29.5c1.5-9.5-1-10 14-22.5 12-10 37.333-4.167 48.5-2.5 6.5 2.667 19.5 11.4 19.5 25s7.667 15.334 11.5 14.5c11-3.5 8.2-16.5 13-18.5 6-2.5 10-19 15.5-19" stroke="url(#paint0_linear)" stroke-width="2"/><defs><linearGradient id="paint0_linear" x1="1.5" y1="4.938" x2="39.431" y2="109.273" gradientUnits="userSpaceOnUse"><stop stop-color="#F7C000"/><stop offset=".067" stop-color="#F7C001"/><stop offset=".133" stop-color="#F7C002"/><stop offset=".2" stop-color="#F6C005"/><stop offset=".267" stop-color="#F5C109"/><stop offset=".333" stop-color="#F4C10F"/><stop offset=".4" stop-color="#F3C215"/><stop offset=".467" stop-color="#F2C21C"/><stop offset=".533" stop-color="#F0C323"/><stop offset=".6" stop-color="#EFC32A"/><stop offset=".667" stop-color="#EEC430"/><stop offset=".733" stop-color="#EDC436"/><stop offset=".8" stop-color="#ECC53A"/><stop offset=".867" stop-color="#EBC53D"/><stop offset=".933" stop-color="#EBC53E"/><stop offset="1" stop-color="#EBC53F"/></linearGradient></defs></svg>