<svg width="78" height="51" fill="none" xmlns="http://www.w3.org/2000/svg"><path d="M77.496 43.461a.395.395 0 00-.298-.137H.394a.393.393 0 00-.39.453c.011.071 1.17 7.183 10.161 7.183h57.262c8.99 0 10.149-7.112 10.16-7.184a.4.4 0 00-.091-.315zm-32.924 5.008H33.019v-2.656h11.553v2.656zm-36.2-7.909h60.847c.88 0 1.594-.715 1.594-1.594V1.593c0-.88-.714-1.593-1.594-1.593H8.372c-.88 0-1.594.714-1.594 1.593v37.373c0 .88.714 1.593 1.594 1.593zm3.983-34.983h52.88v29.405h-52.88V5.577z" fill="#F7C000"/><path d="M31 21.053L36.822 27 48 15.614 46.395 14l-9.574 9.75-4.238-4.322L31 21.053z" fill="#F7C000"/></svg>