<svg width="51" height="51" fill="none" xmlns="http://www.w3.org/2000/svg"><path d="M50.432 9.996L41.545 1.11a.977.977 0 00-.69-.286H11.85a2.933 2.933 0 00-2.93 2.93v1.862C4.124 7.498.718 12.174.718 17.63c0 .54.437.977.977.977h11.922c.54 0 .977-.438.977-.977V5.707a.977.977 0 00-.976-.976c-.942 0-1.86.102-2.744.294v-1.27c0-.54.438-.977.977-.977h28.027v5.957a2.933 2.933 0 002.93 2.93h5.957v36.23a.978.978 0 01-.977.976H11.851a.978.978 0 01-.977-.976V36.017a.977.977 0 00-1.953 0v11.878a2.933 2.933 0 002.93 2.93h35.937a2.933 2.933 0 002.93-2.93V10.686a.976.976 0 00-.286-.69zM12.64 6.727v9.927H2.714c.467-5.259 4.668-9.46 9.927-9.927zm30.167 2.984a.978.978 0 01-.977-.976V4.158l5.554 5.553h-4.577z" fill="#F7C000"/><path d="M8.947 6.606c-3.875.833-6.58 7.36-7.448 10.52h12.032V5.982c.086-.14-.709-.209-4.584.625zm1.641 28.684a.983.983 0 00-.69-.286.983.983 0 00-.69.286.984.984 0 00-.287.69c0 .258.105.51.286.691a.983.983 0 00.69.286.983.983 0 00.691-.286.983.983 0 00.286-.69.983.983 0 00-.286-.69z" fill="#F7C000"/><path d="M17.115 8.229a.977.977 0 00-.976.976v10.946H5.192a.977.977 0 00-.976.977c0 7.113 5.786 12.9 12.9 12.9 7.112 0 12.899-5.787 12.899-12.9s-5.787-12.9-12.9-12.9zm.977 1.996a10.897 10.897 0 016.038 2.507l-6.038 6.038v-8.545zm-.977 21.85c-5.707 0-10.407-4.39-10.903-9.97h10.903c.27 0 .514-.11.69-.286l7.707-7.706a10.898 10.898 0 012.55 7.015c0 6.036-4.911 10.946-10.947 10.946zm26.383-.43a2.933 2.933 0 00-2.698 4.072l-5.626 5.626a2.912 2.912 0 00-2.53-.013l-3.736-3.736a2.933 2.933 0 00-2.728-3.995 2.933 2.933 0 00-2.93 2.929c0 .438.097.853.27 1.226l-3.584 3.584a2.933 2.933 0 00-4.19 2.645 2.933 2.933 0 002.931 2.929 2.933 2.933 0 002.642-4.195l3.564-3.563a2.91 2.91 0 002.743-.08l3.631 3.63a2.933 2.933 0 002.638 4.203 2.933 2.933 0 002.93-2.929c0-.445-.1-.867-.279-1.245l5.574-5.574c.41.22.88.346 1.378.346a2.933 2.933 0 002.93-2.93 2.933 2.933 0 00-2.93-2.93zM18.677 44.96a.978.978 0 010-1.953c.262 0 .5.104.675.273l.012.012.014.014a.97.97 0 01.276.677.978.978 0 01-.977.977zm7.503-7.455a.978.978 0 010-1.953.978.978 0 010 1.953zm7.715 7.45a.978.978 0 010-1.952.978.978 0 010 1.953zm9.603-9.403a.978.978 0 010-1.953.978.978 0 010 1.953zm-.47-11.778h-9.564a.977.977 0 000 1.953h9.564a.977.977 0 000-1.953z" fill="#F7C000"/><path d="M43.754 24.06a.983.983 0 00-.69-.286.984.984 0 00-.691.286.984.984 0 00-.286.69.98.98 0 00.286.69.982.982 0 00.69.287.983.983 0 00.69-.286.984.984 0 00.287-.69.984.984 0 00-.286-.691zm1.639-9.661h-11.93a.977.977 0 000 1.953h11.93a.977.977 0 000-1.953zm0 4.687h-11.93a.977.977 0 000 1.953h11.93a.977.977 0 000-1.953zm-4.31-9.564l-.417-5.833.99-.781 7.656 7.604h-6.198l-2.031-.99z" fill="#F7C000"/><circle cx="18.937" cy="43.897" r="1.823" fill="#F7C000"/><circle cx="34.31" cy="43.897" r="1.823" fill="#F7C000"/></svg>