<svg width="51" height="37" fill="none" xmlns="http://www.w3.org/2000/svg"><path d="M7.224 15.207a1.463 1.463 0 002.5-1.036v-2.928h7.423a5.865 5.865 0 015.859 5.859v17.676c0 .81.655 1.465 1.465 1.465h2.93c.81 0 1.464-.656 1.464-1.465V17.102c0-6.462-5.257-11.719-11.718-11.719H9.725v-2.93a1.463 1.463 0 00-2.5-1.035l-5.86 5.86a1.464 1.464 0 000 2.07l5.86 5.859z" stroke="#F7C000"/><path d="M44.647 1.418a1.464 1.464 0 00-2.5 1.036v2.93h-7.422a11.64 11.64 0 00-6.638 2.077 14.563 14.563 0 012.928 5.143c1.013-.837 2.295-1.361 3.71-1.361h7.422v2.928a1.463 1.463 0 002.5 1.036l5.86-5.859a1.463 1.463 0 000-2.07l-5.86-5.86z" fill="#F7C000"/></svg>