<svg width="51" height="49" fill="none" xmlns="http://www.w3.org/2000/svg"><path d="M46.884.479H3.552A3.338 3.338 0 00.218 3.813v27.499c0 .46.373.833.833.833h48.334c.46 0 .833-.373.833-.833v-27.5A3.338 3.338 0 0046.884.48zm1.667 30H1.885V3.813c0-.92.748-1.668 1.667-1.668h43.332a1.67 1.67 0 011.667 1.668v26.666z" fill="#F7C000"/><path d="M49.385 30.479H1.05a.834.834 0 00-.833.833v4.166a3.338 3.338 0 003.334 3.334h43.332a3.338 3.338 0 003.334-3.334v-4.166a.834.834 0 00-.833-.834zm-.834 4.999a1.67 1.67 0 01-1.667 1.667H3.552a1.67 1.67 0 01-1.667-1.667v-3.333H48.55v3.333z" fill="#F7C000"/><path d="M27.718 33.812h-5a.834.834 0 000 1.667h5a.834.834 0 000-1.667zm18.333-30H4.385a.834.834 0 00-.834.833v26.667c0 .46.374.833.834.833H46.05c.46 0 .834-.373.834-.833V4.645a.834.834 0 00-.834-.833zm-.833 26.666h-40v-25h40v25zm-9.167 13.334H14.385a2.503 2.503 0 00-2.5 2.5c0 1.378 1.121 2.5 2.5 2.5H36.05c1.379 0 2.5-1.122 2.5-2.5s-1.122-2.5-2.5-2.5zm0 3.333H14.385a.834.834 0 010-1.667H36.05a.834.834 0 010 1.667z" fill="#F7C000"/><path d="M34.385 43.812c-2.765 0-4.167-1.962-4.167-5.833a.834.834 0 00-.834-.834h-8.333a.834.834 0 00-.833.834c0 3.87-1.402 5.833-4.167 5.833a.834.834 0 000 1.667h18.334a.834.834 0 000-1.667zm-14.275 0c1.026-1.137 1.63-2.83 1.752-5h6.713c.12 2.17.724 3.863 1.751 5H20.11zm19.927-18.78l-2.011-2.012 1.119-1.119a.835.835 0 00-.35-1.387l-8.333-2.5a.832.832 0 00-1.037 1.037l2.5 8.333a.833.833 0 001.387.35l1.179-1.179 2.011 2.013a.832.832 0 001.179 0l2.356-2.358a.832.832 0 000-1.178zM35.218 7.145H11.885a.834.834 0 00-.834.834v4.166c0 .46.374.834.834.834h23.333c.46 0 .833-.374.833-.834V7.98a.834.834 0 00-.833-.834zm-13.333 9.167h-6.667a.834.834 0 00-.833.833v3.333c0 .46.373.834.833.834h6.667c.46 0 .833-.374.833-.834v-3.333a.834.834 0 00-.833-.833z" fill="#F7C000"/><path d="M35.218 7.145H11.885a.834.834 0 00-.834.834v15.833c0 .46.374.833.834.833h19.838a.833.833 0 00.798-1.073l-1.055-3.518 3.513 1.055a.83.83 0 001.072-.799V7.98a.834.834 0 00-.833-.834zm-.833 12.045l-3.923-1.176a.832.832 0 00-1.038 1.038l1.179 3.927H12.718V8.812h21.667V19.19z" fill="#F7C000"/></svg>