<svg width="46" height="51" fill="none" xmlns="http://www.w3.org/2000/svg"><path d="M44.123 13.383c-.06-1.263-.06-2.468-.06-3.674 0-.976-.783-1.722-1.806-1.722-7.522 0-13.24-2.066-17.993-6.486a1.923 1.923 0 00-2.528 0c-4.754 4.42-10.47 6.486-17.993 6.486-1.023 0-1.805.746-1.805 1.722 0 1.206 0 2.411-.06 3.674-.241 12.054-.602 28.585 20.52 35.53l.602.115.602-.115c21.062-6.945 20.761-23.419 20.52-35.53z" stroke="#F7C000" stroke-width="2"/><path d="M12.589 25.71l7.191 7.347 13.81-14.066-1.983-1.993L19.78 29.042l-5.236-5.339-1.955 2.008z" fill="#F7C000"/></svg>