<svg width="50" height="51" fill="none" xmlns="http://www.w3.org/2000/svg"><path d="M7.5 33.408c-3.728 0-7.5 1.145-7.5 3.333v10c0 2.189 3.772 3.334 7.5 3.334S15 48.93 15 46.74v-10c0-2.188-3.772-3.333-7.5-3.333zm0 1.667c3.79 0 5.833 1.183 5.833 1.666 0 .484-2.044 1.667-5.833 1.667-3.79 0-5.833-1.183-5.833-1.667 0-.483 2.044-1.666 5.833-1.666zm0 13.333c-3.79 0-5.833-1.183-5.833-1.667v-1.166A13.217 13.217 0 007.5 46.74c2.008.06 4.003-.339 5.833-1.166v1.166c0 .484-2.044 1.667-5.833 1.667zm0-3.333c-3.79 0-5.833-1.184-5.833-1.667v-1.167A13.216 13.216 0 007.5 43.408c2.008.06 4.003-.34 5.833-1.167v1.167c0 .483-2.044 1.667-5.833 1.667zm0-3.334c-3.79 0-5.833-1.183-5.833-1.666v-1.167A13.217 13.217 0 007.5 40.075c2.008.06 4.003-.34 5.833-1.167v1.167c0 .483-2.044 1.666-5.833 1.666zm17.5-15c-3.728 0-7.5 1.145-7.5 3.334V46.74c0 2.189 3.772 3.334 7.5 3.334s7.5-1.145 7.5-3.334V30.075c0-2.189-3.772-3.334-7.5-3.334zm0 1.667c3.789 0 5.833 1.183 5.833 1.667 0 .483-2.044 1.666-5.833 1.666-3.79 0-5.833-1.183-5.833-1.666 0-.484 2.044-1.667 5.833-1.667zm0 20c-3.79 0-5.833-1.183-5.833-1.667v-1.166A13.215 13.215 0 0025 46.74c2.008.06 4.003-.339 5.833-1.166v1.166c0 .484-2.044 1.667-5.833 1.667zm0-3.333c-3.79 0-5.833-1.184-5.833-1.667v-1.167A13.217 13.217 0 0025 43.408c2.008.06 4.003-.34 5.833-1.167v1.167c0 .483-2.044 1.667-5.833 1.667zm0-3.334c-3.79 0-5.833-1.183-5.833-1.666v-1.167A13.217 13.217 0 0025 40.075c2.008.06 4.003-.34 5.833-1.167v1.167c0 .483-2.044 1.666-5.833 1.666zm0-3.333c-3.79 0-5.833-1.183-5.833-1.667v-1.166A13.215 13.215 0 0025 36.74c2.008.06 4.003-.339 5.833-1.166v1.166c0 .484-2.044 1.667-5.833 1.667zm0-3.333c-3.79 0-5.833-1.184-5.833-1.667v-1.167A13.217 13.217 0 0025 33.408c2.008.06 4.003-.34 5.833-1.167v1.167c0 .483-2.044 1.667-5.833 1.667zm17.5-18.334c-3.728 0-7.5 1.145-7.5 3.334V46.74c0 2.189 3.772 3.334 7.5 3.334 3.727 0 7.5-1.145 7.5-3.334V20.075c0-2.189-3.773-3.334-7.5-3.334zm0 1.667c3.789 0 5.833 1.183 5.833 1.667 0 .483-2.044 1.666-5.833 1.666-3.79 0-5.833-1.183-5.833-1.666 0-.484 2.044-1.667 5.833-1.667zm0 30c-3.79 0-5.833-1.183-5.833-1.667v-1.166A13.217 13.217 0 0042.5 46.74a13.22 13.22 0 005.833-1.166v1.166c0 .484-2.044 1.667-5.833 1.667zm0-3.333c-3.79 0-5.833-1.184-5.833-1.667v-1.167a13.217 13.217 0 005.833 1.167c2.008.06 4.003-.34 5.833-1.167v1.167c0 .483-2.044 1.667-5.833 1.667zm0-3.334c-3.79 0-5.833-1.183-5.833-1.666v-1.167a13.217 13.217 0 005.833 1.167c2.008.059 4.003-.34 5.833-1.167v1.167c0 .483-2.044 1.666-5.833 1.666zm0-3.333c-3.79 0-5.833-1.183-5.833-1.667v-1.166A13.216 13.216 0 0042.5 36.74c2.008.06 4.003-.339 5.833-1.166v1.166c0 .484-2.044 1.667-5.833 1.667zm0-3.333c-3.79 0-5.833-1.184-5.833-1.667v-1.167a13.217 13.217 0 005.833 1.167c2.008.06 4.003-.34 5.833-1.167v1.167c0 .483-2.044 1.667-5.833 1.667zm0-3.334c-3.79 0-5.833-1.183-5.833-1.666v-1.167a13.217 13.217 0 005.833 1.167c2.008.06 4.003-.34 5.833-1.167v1.167c0 .483-2.044 1.666-5.833 1.666zm0-3.333c-3.79 0-5.833-1.183-5.833-1.667v-1.166A13.216 13.216 0 0042.5 26.74c2.008.06 4.003-.339 5.833-1.166v1.166c0 .484-2.044 1.667-5.833 1.667zm0-3.333c-3.79 0-5.833-1.184-5.833-1.667v-1.167a13.217 13.217 0 005.833 1.167c2.008.06 4.003-.34 5.833-1.167v1.167c0 .483-2.044 1.667-5.833 1.667zm-1.667-25V1.74h6.321L31.321 17.575H13.852L.283 29.447l1.099 1.255 13.097-11.46h17.532L48.333 2.92v6.32h1.666V.075h-9.166z" fill="#F7C000"/><path d="M7.187 39.241c-1 0-4.652-.972-6.354-1.458v3.49c1.39.19 4.604.687 6.354 1.145 1.75.459 5.313-.399 6.875-.885v-3.75c-1.874.486-5.875 1.458-6.875 1.458zm.313 6.563c-.875.041-4.81-.608-6.667-.938v2.344c0 .365 3.698 1.563 6.667 2.083 2.375.417 5.365-1.076 6.563-1.875v-2.916c-1.823.416-5.688 1.26-6.563 1.302zm17.381-6.563c-1 0-4.653-.972-6.354-1.458v3.49c1.389.19 4.604.687 6.354 1.145 1.75.459 5.313-.399 6.875-.885v-3.75c-1.875.486-5.875 1.458-6.875 1.458zm.313 6.563c-.875.041-4.81-.608-6.667-.938v2.344c0 .365 3.698 1.563 6.667 2.083 2.375.417 5.364-1.076 6.562-1.875v-2.916c-1.823.416-5.687 1.26-6.562 1.302zm16.771-6.563c-1 0-4.653-.972-6.355-1.458v3.49c1.39.19 4.605.687 6.355 1.145 1.75.459 5.312-.399 6.874-.885v-3.75c-1.875.486-5.875 1.458-6.874 1.458zm.312 6.563c-.875.041-4.81-.608-6.667-.938v2.344c0 .365 3.698 1.563 6.667 2.083 2.375.417 5.364-1.076 6.562-1.875v-2.916c-1.822.416-5.687 1.26-6.562 1.302zm-.312-19.434c-1 0-4.653-.973-6.355-1.459v3.49c1.39.19 4.605.687 6.355 1.146 1.75.458 5.312-.4 6.874-.886v-3.75c-1.875.486-5.875 1.458-6.874 1.458zm.312 6.562c-.875.042-4.81-.608-6.667-.938v2.344c0 .365 3.698 1.563 6.667 2.084 2.375.416 5.364-1.077 6.562-1.875V31.63c-1.822.417-5.687 1.26-6.562 1.302z" fill="#F7C000"/></svg>