<svg width="528" height="461" fill="none" xmlns="http://www.w3.org/2000/svg"><path d="M54.664 462.155s-135.628-134.498 20.349-233.63c155.977-99.133 91.776-96.883 102.397-159.686C188.031 6.036 314.825-37.507 360.439 50.924c45.614 88.431 1.845 133.82 87.43 186.885 85.585 53.066 105.291 165.757 46.162 224.358l-439.367-.012z" fill="#EBC53F"/><path opacity=".7" d="M54.664 462.155s-135.628-134.498 20.349-233.63c155.977-99.133 91.776-96.883 102.397-159.686C188.031 6.036 314.825-37.507 360.439 50.924c45.614 88.431 1.845 133.82 87.43 186.885 85.585 53.066 105.291 165.757 46.162 224.358l-439.367-.012z" fill="#fff"/><path d="M285.45 100.276h-53.58V57.257" stroke="#263238" stroke-linecap="round" stroke-linejoin="round"/><path d="M241.467 92.456h-4.287v7.82h4.287v-7.82zm8.906-2.476h-4.286v10.296h4.286V89.98zm8.906-4.13h-4.286v14.426h4.286V85.849zm8.906-4.131h-4.286v18.557h4.286V81.719zm8.907-5.833h-4.287v24.39h4.287v-24.39zM231.87 92.73s34.351-7.285 50.782-29.08" stroke="#263238" stroke-linecap="round" stroke-linejoin="round"/><path d="M280.497 62.983l3.334-.929v3.666m-11.014-29.818a64.82 64.82 0 00-4.632-.774" stroke="#263238" stroke-linecap="round" stroke-linejoin="round"/><path d="M286.438 124.31c12.728 6.547 30.362 7.058 30.362 7.058-8.882-6.082-14.966-15.01-18.05-20.319 9.418-8.118 15.216-19.153 15.216-31.33 0-18.808-13.811-34.925-33.469-41.662m-20.789 86.8a63.737 63.737 0 0021.634-3.702m-69.951-20.879c7.691 12.547 22.217 21.629 39.47 23.974m-45.412-44.531a37.217 37.217 0 00.679 7.142m53.58-52.281c-24.087 0-44.519 13.095-51.592 31.14" stroke="#263238" stroke-linecap="round" stroke-linejoin="round"/><path d="M353.699 154.938s-22.873 6.737-28.028 17.688c-5.156 10.951-15.479 41.543-15.479 41.543s-9.668 17.07-9.668 22.224c0 5.155 14.288 24.272 20.741 29.426 6.454 5.154 30.541-28.783 30.541-28.783l1.893-82.098z" fill="#fff" stroke="#263238" stroke-linecap="round" stroke-linejoin="round"/><path d="M457.096 307.16c.298.262 1.191 11.713 1.191 11.713s6.072 12.058 6.072 30.509c0 18.45 5.882 112.952 5.882 112.952H324.04s10.156-70.849 24.563-106.703c0 0 .44-29.425 8.335-37.627 0 0-3.43-12.07 3.572-13.558 7.001-1.488 96.586 2.714 96.586 2.714z" fill="#999"/><path opacity=".2" d="M470.193 462.334H324.04s10.156-70.849 24.563-106.703c0 0 .083-5.595.833-12.594 6.728 3.238 15.598 7.904 18.075 11.106 4.155 5.357-10.597 13.177-10.597 13.177a13.018 13.018 0 0010.597 4.143c6.536-.655 32.255-6.523 32.255-6.523s-9.609 5.868-8.442 10.034c1.167 4.167 11.728 17.737 17.467 21.07 5.739 3.333-11.669-3.333-11.669-3.333s19.789 31.972 31.696 38.365c11.907 6.392 36.232-13.392 32.743-15.034-3.488-1.643-17.634-20.891-15.062-24.129 1.477-1.869 10.228 3.047 19.872 5.499 1.691 31.116 3.822 64.922 3.822 64.922z" fill="#000"/><path d="M457.096 307.16c.298.262 1.191 11.713 1.191 11.713s6.072 12.058 6.072 30.509c0 18.45 5.882 112.952 5.882 112.952H324.04s10.156-70.849 24.563-106.703c0 0 .44-29.425 8.335-37.627 0 0-3.43-12.07 3.572-13.558 7.001-1.488 96.586 2.714 96.586 2.714z" stroke="#263238" stroke-linecap="round" stroke-linejoin="round"/><path d="M360.057 307.588a34.964 34.964 0 000 10.285 72.814 72.814 0 0036.434 12.165c21.027.893 50.997-4.761 59.236-9.522v-11.285l-95.67-1.643z" fill="#263238"/><path d="M373.452 313.754s-1.786 9.44 0 13.011c1.786 3.571 17.931 4.547 17.931 4.547l-.512-13.439-17.419-4.119z" fill="#BFBFBF" stroke="#263238" stroke-linecap="round" stroke-linejoin="round"/><path d="M428.818 333.038a94.43 94.43 0 00-2.453-15.213l-4.989.131s2.679 9.202 1.191 15.082" fill="#999"/><path d="M428.818 333.038a94.43 94.43 0 00-2.453-15.213l-4.989.131s2.679 9.202 1.191 15.082" stroke="#263238" stroke-linecap="round" stroke-linejoin="round"/><path opacity=".2" d="M352.437 209.61l-.619 27.379a221.883 221.883 0 01-15.979 19.867c-.298-3.571-.655-7.797-1.084-12.606-1.988-22.224 5.561-40.079 5.108-41.401l12.574 6.761z" fill="#92E3A9"/><path d="M343.209 158.937a156.086 156.086 0 0114.443-5.952c.619-1.619-.857-6.451 14.038-14.177 14.895-7.725 36.446-2.892 36.446-2.892l8.335 10.308s28.992 11.535 35.72 17.355c6.727 5.821 12.371 142.188 6.763 147.08-15.967 13.916-83.716 15.82-102.088-2.63-3.977-3.976-6.656-32.759-14.288-75.469 0 0-14.514-33.33-13.728-51.566" fill="#fff"/><path d="M343.209 158.937a156.086 156.086 0 0114.443-5.952c.619-1.619-.857-6.451 14.038-14.177 14.895-7.725 36.446-2.892 36.446-2.892l8.335 10.308s28.992 11.535 35.72 17.355c6.727 5.821 12.371 142.188 6.763 147.08-15.967 13.916-83.716 15.82-102.088-2.63-3.977-3.976-6.656-32.759-14.288-75.469 0 0-14.514-33.33-13.728-51.566" stroke="#263238" stroke-linecap="round" stroke-linejoin="round"/><path opacity=".2" d="M416.03 148.367s1.596 14.284-13.097 23.807c0 0-6.763-4.321-11.526-4.762-4.762-.44-6.394 1.191-6.394 1.191s-1-5.595 1.286-9.273 6.751-.845 14.122 9.273c.047 0 12.49-6.107 15.609-20.236zm-45.424 15.212s-5.786.262-8.692 5.024c-2.905 4.761-3.798 6.547-3.798 6.547s-4.655-4.619-1.19-18.903a45.413 45.413 0 00.559 12.356s3.001-11.047 4.453-11.19c1.453-.142 4.346.715 8.668 6.166z" fill="#92E3A9"/><path d="M361.962 131.964a21.31 21.31 0 014.953 19.736l10.442 16.903 6.43-14.975s14.895-3.869 19.241-14.01a63.25 63.25 0 01-6.882-38.425c2.881-22.426-34.184 30.771-34.184 30.771z" fill="#BFBFBF" stroke="#263238" stroke-linecap="round" stroke-linejoin="round"/><path d="M397.063 111.632c4.608-34.377-5.691-48.09-32.731-46.162-27.04 1.929-27.481 32.14-21.028 44.96 2.167 4.309 1.465 13.737 14.908 28.807 5.155 5.785 18.693 1.428 28.385-8.119" fill="#BFBFBF"/><path d="M397.063 111.632c4.608-34.377-5.691-48.09-32.731-46.162-27.04 1.929-27.481 32.14-21.028 44.96 2.167 4.309 1.465 13.737 14.908 28.807 5.155 5.785 18.693 1.428 28.385-8.119M356.842 103.3s2.655-4.761 9.883 0m-20.765 0s-3.93-3.25-5.096 0" stroke="#263238" stroke-linecap="round" stroke-linejoin="round"/><path d="M363.236 110.442c.31 1.19 0 2.285-.762 2.476-.762.19-1.572-.607-1.881-1.786-.31-1.178 0-2.285.774-2.476.774-.19 1.56.596 1.869 1.786zm-14.586 0c.31 1.19 0 2.285-.762 2.476-.762.19-1.571-.607-1.881-1.786-.309-1.178 0-2.285.774-2.476.774-.19 1.56.596 1.869 1.786z" fill="#263238"/><path d="M349.258 105.919c2.988 4.106.226 9.284-.75 13.296-.977 4.011 5.072 3.738 6.763 2.381" stroke="#263238" stroke-linecap="round" stroke-linejoin="round"/><path d="M382.442 108.561s-2.537-8.035 2.905-12.01c5.441-3.976 5.072 19.998 5.072 19.998l5.191 2.904s7.49-19.808 3.87-34.294c-3.62-14.487-18.277-24.783-38.566-19.308-27.171 7.333-21.051 29.569-21.051 29.569s1.191-6.285 2.477-5.952c1.286.333 5.596 4.464 26.659-2.785 0 0 2.381 2.059 1.845 7.142-.535 5.082 8.502 9.606 9.907 18.069l1.691-3.333z" fill="#999"/><path opacity=".4" d="M382.442 108.561s-2.537-8.035 2.905-12.01c5.441-3.976 5.072 19.998 5.072 19.998l5.191 2.904s7.49-19.808 3.87-34.294c-3.62-14.487-18.277-24.783-38.566-19.308-27.171 7.333-21.051 29.569-21.051 29.569s1.191-6.285 2.477-5.952c1.286.333 5.596 4.464 26.659-2.785 0 0 2.381 2.059 1.845 7.142-.535 5.082 8.502 9.606 9.907 18.069l1.691-3.333z" fill="#000"/><path d="M382.442 108.561s-2.537-8.035 2.905-12.01c5.441-3.976 5.072 19.998 5.072 19.998l5.191 2.904s7.49-19.808 3.87-34.294c-3.62-14.487-18.277-24.783-38.566-19.308-27.171 7.333-21.051 29.569-21.051 29.569s1.191-6.285 2.477-5.952c1.286.333 5.596 4.464 26.659-2.785 0 0 2.381 2.059 1.845 7.142-.535 5.082 8.502 9.606 9.907 18.069l1.691-3.333z" stroke="#263238" stroke-linecap="round" stroke-linejoin="round"/><path d="M347.424 122.988c1.788.675 3.721.871 5.608.572l1.191 1.321 1.095-1.19s6.644.869 9.907 0c3.262-.869 6.643 1.19 8.334 1.19 0 0 7.239-8.69 6.513-13.094a37.98 37.98 0 00-1.191-5.809s1.37 1.191 2.096 1.012a1.19 1.19 0 00.929-1.012s7.037 14.285 6.882 25.855c0 0-8.049 13.367-18.729 14.129-11.907.845-18.17-3.809-18.17-3.809a25.923 25.923 0 01-1.036-11.653 11.218 11.218 0 00-2.834-2.119 18.163 18.163 0 01-.595-5.393zm-5.084-33.484a9.248 9.248 0 01-4.906-9.785c1.12-6.928 6.275-9.332 9.978-11.427 0 0 7.549-6.452 21.587-7.25 16.907-.964 33.339 7.892 29.481 20.95 0 0-23.813-10.153-29.481 4.762 0-.036-16.431 9.475-26.659 2.75z" fill="#263238"/><path d="M383.739 101.193s5.311-10.201 8.859-6.82c3.548 3.38 2.572 8.332 1.357 13.093-1.214 4.762-1.607 3.952-3.858 6.119-2.25 2.166-4.643 4.368-5.477 2.011a8.512 8.512 0 01-.428-4.237" fill="#BFBFBF"/><path d="M383.739 101.193s5.311-10.201 8.859-6.82c3.548 3.38 2.572 8.332 1.357 13.093-1.214 4.762-1.607 3.952-3.858 6.119-2.25 2.166-4.643 4.368-5.477 2.011a8.512 8.512 0 01-.428-4.237" stroke="#263238" stroke-linecap="round" stroke-linejoin="round"/><path d="M367.404 130.809c-9.526.238-12.645-1.19-12.645-1.19a1.093 1.093 0 01-1.06.452l1.572 3.25s1.571.976 5.643.976c3.43.012 6.49-3.488 6.49-3.488z" fill="#fff"/><path opacity=".2" d="M359.247 86.968s-3.857-7.737 6.287-12.439c10.145-4.702 26.576-2.904 30.565 2.38m-47.341 11.5s-11.145-.477-2.858-11.345c8.287-10.867 25.79-14.284 25.79-14.284" stroke="#fff" stroke-linecap="round" stroke-linejoin="round"/><path d="M416.506 146.224a33.425 33.425 0 01-16.038 22.379s-7.692-11.451-11.74-11.19c-1.976.119-4.989 6.166-4.989 6.166m-26.087-10.594c-1.381 5.476-.429 16.356-.429 16.356s3.358-10.856 4.692-11.904c2.381-1.928 9.775 7.488 9.775 7.488m5.62 3.678l-5.62 3.737s6.37 7.083 5.62 13.523c-.75 6.44 1.512 20.617 1.512 20.617" stroke="#263238" stroke-linecap="round" stroke-linejoin="round"/><path d="M323.385 233.691a43.22 43.22 0 014.417 24.533s-8.335 11.547-14.717 13.273c-15.55 4.19-24.92-30.366-43.602-76.766-1.19-2.976 9.418-18.7 9.418-18.7l30.827 47.983a18.059 18.059 0 0113.657 9.677z" fill="#BFBFBF" stroke="#263238" stroke-linecap="round" stroke-linejoin="round"/><path d="M277.604 179.483l-7.93-10.654s-11.907-6.833-13.217-2.75c-1.94 6.119-11.704 7.928-11.704 7.928.857 3.131 10.395 17.081 15.8 20.236 5.406 3.154 5.954 4.083 8.18 4.702 5.656 1.512 7.001-2.548 7.001-2.548" fill="#BFBFBF"/><path d="M277.604 179.483l-7.93-10.654s-11.907-6.833-13.217-2.75c-1.94 6.119-11.704 7.928-11.704 7.928.857 3.131 10.395 17.081 15.8 20.236 5.406 3.154 5.954 4.083 8.18 4.702 5.656 1.512 7.001-2.548 7.001-2.548" stroke="#263238" stroke-linecap="round" stroke-linejoin="round"/><path d="M214.594 226.168s-43.495-40.4 10.525-54.994c54.021-14.594 39.804 38.853 39.804 38.853l-3.572.619s14.145-47.817-34.41-35.354c-48.555 12.463-10.359 48.436-10.359 48.436l-1.988 2.44z" fill="#757575" stroke="#263238" stroke-linecap="round" stroke-linejoin="round"/><path d="M272.4 186.827c-9.132-4.452-5.953-12.606-14.847-17.748-2.382-1.381-10.097-.536-12.538-2.25-3.667-2.559-2.381-4.321-2.298-4.63.131-.703 2.703 1.583 11.466-.893 3.501-.988 13.098 2.012 16.086 4.63 7.061 6.119 13.193 13.332 12.526 18.975-.381 3.249-4.001 4.559-4.001 4.559" fill="#BFBFBF"/><path d="M272.4 186.827c-9.132-4.452-5.953-12.606-14.847-17.748-2.382-1.381-10.097-.536-12.538-2.25-3.667-2.559-2.381-4.321-2.298-4.63.131-.703 2.703 1.583 11.466-.893 3.501-.988 13.098 2.012 16.086 4.63 7.061 6.119 13.193 13.332 12.526 18.975-.381 3.249-4.001 4.559-4.001 4.559" stroke="#263238" stroke-linecap="round" stroke-linejoin="round"/><path d="M246.194 173.019s7.668-1.869 10.109-1.845c3.357 0 4.417.5 5.215 1.928a3.724 3.724 0 01-.143 3.19 5.583 5.583 0 012.738 2.845 5.246 5.246 0 01-.762 3.917 7.984 7.984 0 013.489 2.118 2.643 2.643 0 01.179 3.572s4.322 2.952 1.928 4.761c-2.393 1.809-8.941 4.416-11.906 4.13-2.965-.285-21.635-22.914-10.847-24.616z" fill="#BFBFBF" stroke="#263238" stroke-linecap="round" stroke-linejoin="round"/><path d="M261.375 176.292s-12.169 3.726-15.479 3.643m17.455 3.119s-10.358 3.725-12.49 4.142m16.158 1.512a95.15 95.15 0 01-11.395 3.952" stroke="#263238" stroke-linecap="round" stroke-linejoin="round"/><path d="M213.784 220.014s13.335-22.807 46.436-18.724l27.207 56.613s-17.075 32.378-65.392 24.712l-8.251-62.601z" fill="#757575" stroke="#263238" stroke-linecap="round" stroke-linejoin="round"/><path d="M226.596 265.283s-29.112-21.593-48.818.405l8.942 6.702s9.192-19.296 40.197 4.523" fill="#757575"/><path d="M226.596 265.283s-29.112-21.593-48.818.405l8.942 6.702s9.192-19.296 40.197 4.523" stroke="#263238" stroke-linecap="round" stroke-linejoin="round"/><path d="M216.546 220.252s31.41 3.095 41.138-17.415l-41.138 17.415z" fill="#757575"/><path d="M216.546 220.252s31.41 3.095 41.138-17.415" stroke="#263238" stroke-linecap="round" stroke-linejoin="round"/><path d="M161.192 267.569s12.36-8.678 23.302-2.286a17.034 17.034 0 018.394 17.856s-16.467 1.333-31.696-15.57z" fill="#757575" stroke="#263238" stroke-linecap="round" stroke-linejoin="round"/><path d="M167.241 267.664s19.205 5.13 25.647 15.546" stroke="#263238" stroke-linecap="round" stroke-linejoin="round"/><path d="M241.407 205.67l-2.226-9.273s-12.395-.333-16.669 6.797l5.524 7.309" fill="#757575"/><path d="M241.407 205.67l-2.226-9.273s-12.395-.333-16.669 6.797l5.524 7.309m12.681-2.916a20.244 20.244 0 01-7.954 2.38m-2.441 57.161s2.798 3.798-.714 8.63" stroke="#263238" stroke-linecap="round" stroke-linejoin="round"/><path opacity=".2" d="M453.429 220.419s-11.514 39.686-36.911 59.518c-11.609 9.058-64.677-5.559-64.677-5.559l3.441-20.57 17.384-8.237s30.767-48.15 47.436-52.923c16.669-4.773 33.327 27.771 33.327 27.771z" fill="#92E3A9"/><path d="M438.427 164.579c-12.252.346-44.472 59.351-44.472 59.351-8.715 3.31-4.56 10.952-4.56 10.952s20.468 25.949 24.337 28.163c9.526 5.476 12.967-4.106 12.967-4.106s40.268-36.532 37.482-66.279c-2.786-29.747-11.907-29.081-11.907-29.081" fill="#fff"/><path d="M438.427 164.579c-12.252.346-44.472 59.351-44.472 59.351-8.715 3.31-4.56 10.952-4.56 10.952s20.468 25.949 24.337 28.163c9.526 5.476 12.967-4.106 12.967-4.106s40.268-36.532 37.482-66.279c-2.786-29.747-11.907-29.081-11.907-29.081" stroke="#263238" stroke-linecap="round" stroke-linejoin="round"/><path d="M391.538 232.572l-12.264 13.213c-26.063-2.535-73.583 17.201-87.323 10.023-8.001-4.178-27.171.119-30.029 1.559-2.857 1.441-8.894 8.916-6.667 9.88 2.226.964 7.203-3.499 9.942-3.095 2.565.201 5.143.178 7.703-.071 0 0-12.085 11.487-14.788 11.987-2.702.5-16.431 6.344-11.466 7.368 6.978 1.428 9.621.714 9.621.714s6.287 4.464 10.966 4.94c2.381.25 15.609-2.131 15.609-2.131l12.074-11.51s80.346 4.178 94.479-1.762c18.431-7.737 24.337-14.129 24.337-14.129s-7.799-22.617-22.194-26.986z" fill="#BFBFBF" stroke="#263238" stroke-linecap="round" stroke-linejoin="round"/><path d="M379.822 329.753c-.274-.06-6.215 35.103 2.179 42.543 0 0 4.87 16.796 3.953 28.342-.917 11.547 5.418 35.044 5.418 35.044l4.214 26.652" stroke="#263238" stroke-linecap="round" stroke-linejoin="round"/><path d="M385.966 330.788s-2.989 17.403-1.798 23.653c1.191 6.249-1.405 12.665-5.013 12.879m62.32-41.841s5.405 28.986 14.288 31.378" stroke="#263238" stroke-linecap="round" stroke-linejoin="round"/><path d="M452.334 321.48a200.945 200.945 0 013.381 44.043c-.703 25.533 5.072 76.718 5.608 82.968.302 4.613.302 9.242 0 13.855m-56.711-99.073c-2.286.988-30.267 9.321-35.625 15.868m16.979.666s19.336 23.462 28.719 25.843m-37.149-23.534s-29.707 29.105-34.91 25.914m44.173 8.012s-8.167 32.377-7.644 36.031c.524 3.655-2.786 10.321-2.786 10.321m2.453-173.28s1.798 9.332 0 15.01c-1.798 5.678.167 14.285 2.631 14.737m-71.725-94.847s9.525 10.284 9.525 18.272m-130.056 46.828s-.786 2.536-1.893 6.88" stroke="#263238" stroke-linecap="round" stroke-linejoin="round"/><path d="M185.601 303.077a258.825 258.825 0 00-2.167 10.713" stroke="#263238" stroke-linecap="round" stroke-linejoin="round" stroke-dasharray="6.11 6.11"/><path d="M182.815 317.361a218.951 218.951 0 00-1.06 7.071m-8.775-41.52s-1.465 2.274-3.572 6.166" stroke="#263238" stroke-linecap="round" stroke-linejoin="round"/><path d="M164.752 298.28a145.101 145.101 0 00-5.798 14.284" stroke="#263238" stroke-linecap="round" stroke-linejoin="round" stroke-dasharray="8.66 8.66"/><path d="M157.37 317.564a117.565 117.565 0 00-1.809 6.915m5.631-51.375a26.601 26.601 0 00-6.227 3.476" stroke="#263238" stroke-linecap="round" stroke-linejoin="round"/><path d="M148.547 281.52a75.176 75.176 0 00-8.572 8.618" stroke="#263238" stroke-linecap="round" stroke-linejoin="round" stroke-dasharray="6.82 6.82"/><path d="M137.451 293.328a62.887 62.887 0 00-3.93 5.952m260.434-75.35c8.966 1.357 22.063 17.725 24.445 23.974m42.923-45.067s-21.491 13.094-42.923 14.415m-109.875.001s11.05-2.238 16.669 6.761a59.809 59.809 0 017.442 18.272m-8.596-44.722s5.346 11.725 11.608 16.594m43.174 17.379c.497 4.744.649 9.518.452 14.284m-17.729 40.472s23.516 26.509 59.831 19.367" stroke="#263238" stroke-linecap="round" stroke-linejoin="round"/><path d="M380.798 175.531a1.342 1.342 0 01-1.635 1.265 1.343 1.343 0 01-.948-1.838 1.342 1.342 0 011.238-.82 1.379 1.379 0 011.345 1.393zm1.655 35.115a1.345 1.345 0 11-1.345-1.393 1.36 1.36 0 01.961.418 1.352 1.352 0 01.384.975z" fill="#263238"/><path d="M113.911 393.96s19.217-6.749 6.692-44.733c-12.526-37.984 3.512-37.151 10.656-56.363 7.144-19.213-3.405-32.223-3.405-32.223" stroke="#263238" stroke-width="3" stroke-linecap="round" stroke-linejoin="round"/><path d="M123.413 384.568H67.451s7.537 56.852 9.728 73.302c.393 2.988 2.774 4.464 5.656 4.464h77.583c2.882 0 5.263-1.476 5.656-4.464 2.179-16.45 9.728-73.302 9.728-73.302h-52.389z" fill="#263238"/><path d="M65.38 379.807h112.494a2.666 2.666 0 012.667 2.666v4.202a2.653 2.653 0 01-2.656 2.655H65.38a2.667 2.667 0 01-2.667-2.667v-4.202a2.655 2.655 0 012.667-2.654z" fill="#263238"/><path d="M73.417 389.33h56.759m7.144 0h4.369m26.195 0h-7.942m-82.156 18.641h22.23m12.693 0h5.953m47.626 0h-21.432m19.051 15.474h-3.965m-59.926 0h-8.335m47.817 15.082h13.693m-45.638 0H86.121m-4.37 13.487h7.144m11.121 0h41.673m20.242 0h-6.359" stroke="#fff" stroke-linecap="round" stroke-linejoin="round"/><path d="M142.07 421.124a20.434 20.434 0 01-12.612 18.891 20.449 20.449 0 01-22.283-4.423 20.434 20.434 0 013.092-31.449 20.443 20.443 0 0131.803 16.981z" fill="#F7C001" stroke="#263238" stroke-linecap="round" stroke-linejoin="round"/><path d="M138.594 421.124a16.962 16.962 0 01-10.474 15.671 16.975 16.975 0 01-18.491-3.677 16.955 16.955 0 012.571-26.098 16.97 16.97 0 019.427-2.858 16.978 16.978 0 0116.967 16.962v0z" stroke="#263238" stroke-linecap="round" stroke-linejoin="round"/><path d="M119.067 344.287s4.084-21.153 21.182-22.807c17.097-1.655 19.05-15.046 19.05-15.046m-38.482 1.178s-4.132-1.952-19.61-11.38c-15.479-9.427-14.765-24.331-14.765-24.331m37.673 91.372s-30.16-1.19-34.636-25.926" stroke="#263238" stroke-width="3" stroke-linecap="round" stroke-linejoin="round"/><path d="M143.178 250.07a13.596 13.596 0 01-17.724 11.28 13.592 13.592 0 01-1.948-25.032 13.601 13.601 0 017.765-1.389 13.599 13.599 0 019.094 5.102 13.599 13.599 0 012.813 10.039z" fill="#fff"/><path d="M143.178 250.07a13.596 13.596 0 01-17.724 11.28 13.592 13.592 0 01-1.948-25.032 13.601 13.601 0 017.765-1.389 13.599 13.599 0 019.094 5.102 13.599 13.599 0 012.813 10.039v0z" stroke="#263238" stroke-linecap="round" stroke-linejoin="round"/><path d="M140.582 249.713a10.98 10.98 0 01-7.969 9.242 10.986 10.986 0 01-11.588-3.833 10.977 10.977 0 01-.882-12.17 10.984 10.984 0 0110.914-5.464 10.981 10.981 0 017.289 4.145 10.97 10.97 0 012.236 8.08z" stroke="#263238" stroke-linecap="round" stroke-linejoin="round"/><path d="M100.373 260.867a13.582 13.582 0 01-21.691 12.623 13.577 13.577 0 01-.776-20.978 13.585 13.585 0 017.167-3.287 13.602 13.602 0 0115.3 11.642z" fill="#fff"/><path d="M100.373 260.867a13.582 13.582 0 01-21.691 12.623 13.577 13.577 0 01-.776-20.978 13.585 13.585 0 017.167-3.287 13.602 13.602 0 0115.3 11.642v0z" stroke="#263238" stroke-linecap="round" stroke-linejoin="round"/><path d="M97.79 261.212a10.975 10.975 0 01-11.546 12.438 10.977 10.977 0 01-6.607-19.174 10.984 10.984 0 015.793-2.656 10.989 10.989 0 0112.36 9.392z" stroke="#263238" stroke-linecap="round" stroke-linejoin="round"/><path d="M99.587 325.896a13.593 13.593 0 01-15.142 14.577 13.602 13.602 0 01-11.496-9.801 13.59 13.59 0 014.657-14.368 13.592 13.592 0 0112.618-2.264 13.599 13.599 0 019.363 11.856z" fill="#fff"/><path d="M99.587 325.896a13.593 13.593 0 01-15.142 14.577 13.602 13.602 0 01-11.496-9.801 13.59 13.59 0 014.657-14.368 13.592 13.592 0 0112.618-2.264 13.599 13.599 0 019.363 11.856z" stroke="#263238" stroke-linecap="round" stroke-linejoin="round"/><path d="M96.992 326.086a10.972 10.972 0 01-5.95 10.644 10.98 10.98 0 01-15.44-13.15 10.974 10.974 0 0117.562-4.975 10.986 10.986 0 013.828 7.481z" stroke="#263238" stroke-linecap="round" stroke-linejoin="round"/><path d="M178.862 302.529a13.594 13.594 0 01-12.897 7.87 13.597 13.597 0 01-12.657-16.781 13.595 13.595 0 0118.934-9.134 13.59 13.59 0 016.62 18.045z" fill="#fff"/><path d="M178.862 302.529a13.594 13.594 0 01-12.897 7.87 13.597 13.597 0 01-12.657-16.781 13.595 13.595 0 0118.934-9.134 13.59 13.59 0 016.62 18.045v0z" stroke="#263238" stroke-linecap="round" stroke-linejoin="round"/><path d="M176.492 301.434a10.975 10.975 0 01-10.414 6.344 10.972 10.972 0 01-1.242-21.808 10.983 10.983 0 019.774 3.407 10.992 10.992 0 012.233 3.658 10.96 10.96 0 01-.351 8.399v0z" stroke="#263238" stroke-linecap="round" stroke-linejoin="round"/><path d="M158.728 308.719c-.06.845 12.68-8.332 25.004-2.488 0 0-12.895 11.713-25.35 4.428-12.454-7.285-10.716-25.116-10.716-25.116s12.062 8.416 11.062 23.176zm-29.041-46.388c.417.738 6.132-13.891 19.694-15.677 0 0-4.465 16.82-18.884 17.463-14.419.642-22.623-15.296-22.623-15.296s14.646.559 21.813 13.51zm-41.244 15.344c.524.666 3.846-14.689 16.967-18.594 0 0-1.762 17.32-15.896 20.236-14.133 2.917-24.73-11.534-24.73-11.534s14.526-1.762 23.659 9.892zm2.75 64.803c.631.559 1.286-15.142 13.538-21.224 0 0 1.191 17.367-12.192 22.616-13.383 5.25-26.35-7.142-26.35-7.142s14.026-4.178 25.004 5.75z" fill="#F7C001" stroke="#263238" stroke-linecap="round" stroke-linejoin="round"/><path d="M266.292 384.568h-55.961s7.537 56.852 9.728 73.302c.393 2.988 2.774 4.464 5.655 4.464h77.584c2.881 0 5.263-1.476 5.656-4.464 2.179-16.45 9.727-73.302 9.727-73.302h-52.389z" fill="#263238"/><path d="M208.259 379.807h112.494a2.666 2.666 0 012.667 2.666v4.202a2.652 2.652 0 01-2.655 2.655H208.259a2.67 2.67 0 01-2.667-2.667v-4.202a2.655 2.655 0 012.655-2.654h.012z" fill="#263238"/><path d="M216.296 389.33h56.759m7.144 0h4.37m26.194 0h-7.941m-82.156 18.641h22.23m12.692 0h5.954m47.626 0h-21.432m19.051 15.474h-3.965m-59.926 0h-8.335m47.817 15.082h13.693m-45.638 0h-21.432m-4.37 13.487h7.144m11.121 0h41.673m20.241 0h-6.358" stroke="#fff" stroke-linecap="round" stroke-linejoin="round"/><path d="M284.95 421.124a20.435 20.435 0 01-12.612 18.891 20.449 20.449 0 01-22.283-4.423 20.429 20.429 0 01-4.437-22.275 20.439 20.439 0 0118.888-12.619 20.445 20.445 0 0120.444 20.426z" fill="#F7C001" stroke="#263238" stroke-linecap="round" stroke-linejoin="round"/><path d="M281.473 421.124a16.96 16.96 0 01-10.474 15.671 16.968 16.968 0 01-23.134-12.362 16.964 16.964 0 0128.635-15.3 16.97 16.97 0 014.973 11.991v0z" stroke="#263238" stroke-linecap="round" stroke-linejoin="round"/><path d="M121.632 411.482l-5.001 4.952v-3.368h-1.583v4.951l-2.715 2.679h2.381v8.177h13.836v-8.177h2.369l-9.287-9.214z" fill="#fff" stroke="#263238" stroke-linecap="round" stroke-linejoin="round"/><path d="M265.518 390.449s7.144-13.689-9.966-25.593c-17.109-11.903-20.836-24.235-18.086-33.544" stroke="#263238" stroke-width="3" stroke-linecap="round" stroke-linejoin="round"/><path d="M262.732 371.463s-2-8.916 13.657-15.201 17.991-24.997 17.991-24.997" stroke="#263238" stroke-width="3" stroke-linecap="round" stroke-linejoin="round"/><path d="M246.206 316.373c2.524 0 2.083 15.76-9.526 18.736 0 0-5.655-1.773-6.548-9.368a11.274 11.274 0 014.429-10.927 36.244 36.244 0 002.941 7.142s3.941-5.583 8.704-5.583z" fill="#F7C001" stroke="#263238" stroke-linecap="round" stroke-linejoin="round"/><path d="M237.502 321.932s-3.215 2.667-.881 7.511l.881-7.511z" fill="#92E3A9"/><path d="M237.502 321.932s-3.215 2.667-.881 7.511" stroke="#263238" stroke-linecap="round" stroke-linejoin="round"/><path d="M293.57 335.097s-8.334-7.582-5.834-13.165a18.253 18.253 0 017.882-8.178s1.798 3.464 2.834 5.119l4.275-2.512s8.739 16.951-9.157 18.736z" fill="#F7C001" stroke="#263238" stroke-linecap="round" stroke-linejoin="round"/><path d="M298.452 318.873s5.203 8.332-1.345 12.439l1.345-12.439z" fill="#F7C001"/><path d="M298.452 318.873s5.203 8.332-1.345 12.439" stroke="#263238" stroke-linecap="round" stroke-linejoin="round"/><path d="M268.257 360.797s-8.049-20.236-1.369-42.924" stroke="#263238" stroke-width="3" stroke-linecap="round" stroke-linejoin="round"/><path d="M267.269 318.004s10.716-3.44 10.716-9.523a18.222 18.222 0 00-3.775-10.713s-3.072 2.381-4.762 3.488l-2.739-4.095s-14.99 11.796.56 20.843z" fill="#F7C001" stroke="#263238" stroke-linecap="round" stroke-linejoin="round"/><path d="M269.555 301.22s-8.204 5.44-3.941 11.904l3.941-11.904z" fill="#F7C001"/><path d="M269.555 301.22s-8.204 5.44-3.941 11.904" stroke="#263238" stroke-linecap="round" stroke-linejoin="round"/><path d="M409.172 384.568h-55.961s7.537 56.852 9.727 73.302c.393 2.988 2.775 4.464 5.656 4.464h77.584c2.881 0 5.262-1.476 5.655-4.464 2.179-16.45 9.728-73.302 9.728-73.302h-52.389z" fill="#263238"/><path d="M351.139 379.807h112.494a2.658 2.658 0 012.655 2.654v4.202a2.653 2.653 0 01-2.655 2.655H351.139a2.668 2.668 0 01-2.667-2.666v-4.202a2.656 2.656 0 011.65-2.445c.323-.132.668-.2 1.017-.198z" fill="#263238"/><path d="M359.176 389.33h56.759m7.144 0h4.37m26.194 0h-7.942m-82.155 18.641h22.229m12.693 0h5.953m47.627 0h-21.432m19.05 15.474h-3.965m-59.926 0h-8.334m47.817 15.082h13.692m-45.638 0H371.88m-4.369 13.487h7.144m11.12 0h41.674m20.241 0h-6.358" stroke="#fff" stroke-linecap="round" stroke-linejoin="round"/><path d="M427.83 421.124a20.435 20.435 0 01-12.612 18.891 20.45 20.45 0 01-22.284-4.423 20.435 20.435 0 013.093-31.449 20.449 20.449 0 0125.811 2.537 20.441 20.441 0 015.992 14.444z" fill="#F7C001" stroke="#263238" stroke-linecap="round" stroke-linejoin="round"/><path d="M415.185 418.827v7.142s-1.489 2.5-7.799 2.5c-6.311 0-7.811-2.5-7.811-2.5v-7.142" fill="#fff"/><path d="M415.185 418.827v7.142s-1.489 2.5-7.799 2.5c-6.311 0-7.811-2.5-7.811-2.5v-7.142" stroke="#263238" stroke-linecap="round" stroke-linejoin="round"/><path d="M407.386 413.673l10.835 4.023-10.835 4.023-10.835-4.023 10.835-4.023z" fill="#fff" stroke="#263238" stroke-linecap="round" stroke-linejoin="round"/><path d="M407.386 417.696l4.524 2.345v10.796" stroke="#263238" stroke-linecap="round" stroke-linejoin="round"/><path d="M424.353 421.124a16.96 16.96 0 01-10.474 15.671 16.975 16.975 0 01-18.491-3.677 16.958 16.958 0 012.571-26.098 16.972 16.972 0 019.427-2.858 16.974 16.974 0 0116.967 16.962z" stroke="#263238" stroke-linecap="round" stroke-linejoin="round"/><path d="M407.386 395.008s-5.418-13.88 0-31.735" stroke="#263238" stroke-width="3" stroke-linecap="round" stroke-linejoin="round"/><path d="M407.386 348.191s16.967 11.511-2.381 23.01c-.036 0-19.23-11.499 2.381-23.01z" fill="#F7C001" stroke="#263238" stroke-linecap="round" stroke-linejoin="round"/><path d="M407.386 348.191s2.905 4.369 0 8.333a11.891 11.891 0 00-1.703 8.987" stroke="#263238" stroke-linecap="round" stroke-linejoin="round"/><path d="M258.102 426.583h0a2.212 2.212 0 002.21-2.21v-.001a2.21 2.21 0 10-4.421 0c0 1.221.99 2.211 2.211 2.211z" fill="#fff" stroke="#263238"/><path d="M275.306 421.534a1.664 1.664 0 00-.968-1.523l-.002-.001.47 1.522m.5.002v.002l-.5-.004m.5.002v-.002h-.5m.5.002v1.48c0 .905-.712 1.685-1.652 1.685h-1.029l-.035-.462a1.94 1.94 0 00-2.081-1.787m4.297-.918v1.482c0 .647-.506 1.185-1.152 1.185h-.566a2.439 2.439 0 00-2.617-2.248m.038.499l-.038-.499m.038.499s0 0 0 0a1.939 1.939 0 00-1.787 1.787l-.035.462h-8.617l-.035-.462a1.94 1.94 0 00-3.867 0l-.036.462h-.772c-.941 0-1.652-.78-1.652-1.685v-1.298h.5m16.301.734l.326-5.891a2.167 2.167 0 00-1.854-1.017h-6.713v.5m8.203 5.909a2.439 2.439 0 00-2.247 2.248h-7.691a2.438 2.438 0 00-4.864 0m14.802-2.248l-14.802 2.248m16.817-5.009l.001.003-.115.072-.005.003-.303.19.304-.193.006-.004.112-.071zm0 0l-.022-.034-.035-.016h0l-.004-.002.004.002a.138.138 0 01.057.05zm-10.218-3.148a1.683 1.683 0 00-1.339.656l-2.125 2.784a.368.368 0 01-.192.131l-3.551.971a1.167 1.167 0 00-.853 1.132m8.06-5.674h6.715-6.715zm-8.06 5.674v1.298c0 .647.505 1.185 1.152 1.185h.309m-1.461-2.483l1.461 2.483" fill="#fff" stroke="#263238"/><path d="M270.656 426.583h0a2.213 2.213 0 002.211-2.21v-.001a2.21 2.21 0 10-2.211 2.211z" fill="#fff" stroke="#263238"/></svg>