<svg width="62" height="60" fill="none" xmlns="http://www.w3.org/2000/svg"><path d="M18.688 28.48H.313v31.5h18.375v-31.5z" fill="#F7C000"/><path d="M50.843 58.667H26.562a14.732 14.732 0 01-8.805-3.009 1.313 1.313 0 01-.383-.929V31.104c0-.497.28-.95.725-1.173l2.212-1.108 7.563-16.38V3.54c0-.398.18-.776.49-1.026a8.237 8.237 0 014.76-1.598c3.037 0 7.875 4.806 7.875 10.5a37.812 37.812 0 01-2.1 10.5h16.538a6.562 6.562 0 016.562 6.562 6.481 6.481 0 01-1.706 4.4 5.87 5.87 0 01-1.536 9.384 5.883 5.883 0 01-2.625 7.875c.408.815.62 1.714.617 2.625a5.914 5.914 0 01-5.906 5.904zm-30.844-4.539a13.522 13.522 0 006.563 1.914h24.28a3.284 3.284 0 003.282-3.282 3.24 3.24 0 00-1.037-2.375 1.313 1.313 0 01.751-2.26 3.252 3.252 0 001.874-5.615 1.313 1.313 0 01.751-2.26 3.252 3.252 0 001.11-6.145 1.313 1.313 0 01-.086-2.284 3.937 3.937 0 00-2.05-7.28H37.062a1.312 1.312 0 01-1.226-1.78 40.809 40.809 0 002.538-11.345c0-4.3-3.811-7.875-5.25-7.875-.92.015-1.823.26-2.625.712v8.476c0 .19-.041.378-.12.551l-7.876 17.063a1.31 1.31 0 01-.603.622l-1.9.95v22.213z" fill="#F7C000"/></svg>