<svg width="110" height="154" fill="none" xmlns="http://www.w3.org/2000/svg"><g opacity=".5"><path d="M3.943 42.62l105.79 61.24v-4.97L3.943 37.64v4.98z" fill="#fff" opacity=".3"/><path d="M.893 44.663l81.375 47.154v-4.874L.893 39.692v4.97z" fill="url(#paint0_linear)"/><path d="M82.063 92.483l3.18-1.81-3.18-5.48-3.17 1.81 3.17 5.48z" fill="#fff"/><path d="M3.943 30.12l105.79 61.24v-4.97L3.943 25.14v4.98z" fill="#fff" opacity=".3"/><path d="M.893 32.248l44.625 25.57v-5L.893 27.278v4.97z" fill="url(#paint1_linear)"/><path d="M45.543 59.203l3.17-1.81-3.17-5.47-3.18 1.81 3.18 5.47z" fill="#fff"/><path d="M45.243 52.583l-2.66 1.52-.22-.37 3.18-1.81 3.17 5.47-.51.29-2.96-5.1z" fill="#fff"/><path d="M3.943 17.62l105.79 61.24v-4.97L3.943 12.64v4.98z" fill="#fff" opacity=".3"/><path d="M.893 19.663l56.25 32.404v-4.874l-56.25-32.5v4.97z" fill="url(#paint2_linear)"/><path d="M56.793 53.083l3.17-1.81-3.17-5.48-3.18 1.81 3.18 5.48z" fill="#fff"/><path d="M56.493 46.463l-2.66 1.52-.22-.38 3.18-1.81 3.17 5.48-.51.29-2.96-5.1z" fill="#fff"/><path d="M3.943 5.11l105.79 61.25v-4.97L3.943.14v4.97z" fill="#fff" opacity=".3"/><path d="M.893 7.288l44.375 25.53v-5.125L.893 2.318v4.97z" fill="url(#paint3_linear)"/><path d="M45.543 34.203l3.17-1.81-3.17-5.47-3.18 1.81 3.18 5.47z" fill="#fff"/><path d="M45.243 27.582l-2.66 1.52-.22-.37 3.18-1.81 3.17 5.47-.51.29-2.96-5.1z" fill="#fff"/><path d="M3.943 92.61l105.79 61.25v-4.97L3.943 87.64v4.97z" fill="#fff" opacity=".3"/><path d="M.893 94.662l57 33.031v-5l-57-33v4.97z" fill="url(#paint4_linear)"/><path d="M58.053 128.683l3.18-1.81-3.18-5.47-3.17 1.81 3.17 5.47z" fill="#fff"/><path d="M57.763 122.062l-2.67 1.52-.21-.37 3.17-1.81 3.18 5.47-.51.29-2.96-5.1z" fill="#fff"/><path d="M3.943 80.11l105.79 61.25v-4.97L3.943 75.14v4.97z" fill="#fff" opacity=".3"/><path d="M.893 82.163l42 24.53-.5-5.5-41.5-24v4.97z" fill="url(#paint5_linear)"/><path d="M42.613 107.373l3.18-1.81-3.18-5.48-3.17 1.81 3.17 5.48z" fill="#fff"/><path style="mix-blend-mode:color-dodge" d="M42.323 100.752l-2.66 1.52-.22-.38 3.17-1.81 3.18 5.48-.51.29-2.96-5.1z" fill="url(#paint6_radial)"/><path d="M3.943 67.61l105.79 61.25v-4.97L3.943 62.64v4.97z" fill="#fff" opacity=".3"/><path d="M.893 69.662L28.206 85.38l-.438-5.125L.893 64.692v4.97z" fill="url(#paint7_linear)"/><path d="M28.113 86.683l3.18-1.81-3.18-5.47-3.17 1.81 3.17 5.47z" fill="#fff"/><path style="mix-blend-mode:color-dodge" d="M27.823 80.063l-2.66 1.52-.22-.37 3.17-1.81 3.18 5.47-.51.29-2.96-5.1z" fill="url(#paint8_radial)"/><path d="M3.943 55.12l105.79 61.24v-4.97L3.943 50.14v4.98z" fill="#fff" opacity=".3"/><path d="M.893 57.163L28.206 72.88l-.438-5.125L.893 52.193v4.97z" fill="url(#paint9_linear)"/><path d="M28.113 74.183l3.18-1.81-3.18-5.47-3.17 1.81 3.17 5.47z" fill="#fff"/><path style="mix-blend-mode:color-dodge" d="M27.823 67.563l-2.66 1.52-.22-.37 3.17-1.81 3.18 5.47-.51.29-2.96-5.1z" fill="url(#paint10_radial)"/></g><defs><linearGradient id="paint0_linear" x1="82.268" y1="42.723" x2="37.251" y2="111.405" gradientUnits="userSpaceOnUse"><stop stop-color="#F7C000"/><stop offset=".067" stop-color="#F7C001"/><stop offset=".133" stop-color="#F7C002"/><stop offset=".2" stop-color="#F6C005"/><stop offset=".267" stop-color="#F5C109"/><stop offset=".333" stop-color="#F4C10F"/><stop offset=".4" stop-color="#F3C215"/><stop offset=".467" stop-color="#F2C21C"/><stop offset=".533" stop-color="#F0C323"/><stop offset=".6" stop-color="#EFC32A"/><stop offset=".667" stop-color="#EEC430"/><stop offset=".733" stop-color="#EDC436"/><stop offset=".8" stop-color="#ECC53A"/><stop offset=".867" stop-color="#EBC53D"/><stop offset=".933" stop-color="#EBC53E"/><stop offset="1" stop-color="#EBC53F"/></linearGradient><linearGradient id="paint1_linear" x1="45.518" y1="29.053" x2="18.488" y2="67.653" gradientUnits="userSpaceOnUse"><stop stop-color="#F7C000"/><stop offset=".067" stop-color="#F7C001"/><stop offset=".133" stop-color="#F7C002"/><stop offset=".2" stop-color="#F6C005"/><stop offset=".267" stop-color="#F5C109"/><stop offset=".333" stop-color="#F4C10F"/><stop offset=".4" stop-color="#F3C215"/><stop offset=".467" stop-color="#F2C21C"/><stop offset=".533" stop-color="#F0C323"/><stop offset=".6" stop-color="#EFC32A"/><stop offset=".667" stop-color="#EEC430"/><stop offset=".733" stop-color="#EDC436"/><stop offset=".8" stop-color="#ECC53A"/><stop offset=".867" stop-color="#EBC53D"/><stop offset=".933" stop-color="#EBC53E"/><stop offset="1" stop-color="#EBC53F"/></linearGradient><linearGradient id="paint2_linear" x1="57.143" y1="16.866" x2="24.408" y2="65.013" gradientUnits="userSpaceOnUse"><stop stop-color="#F7C000"/><stop offset=".067" stop-color="#F7C001"/><stop offset=".133" stop-color="#F7C002"/><stop offset=".2" stop-color="#F6C005"/><stop offset=".267" stop-color="#F5C109"/><stop offset=".333" stop-color="#F4C10F"/><stop offset=".4" stop-color="#F3C215"/><stop offset=".467" stop-color="#F2C21C"/><stop offset=".533" stop-color="#F0C323"/><stop offset=".6" stop-color="#EFC32A"/><stop offset=".667" stop-color="#EEC430"/><stop offset=".733" stop-color="#EDC436"/><stop offset=".8" stop-color="#ECC53A"/><stop offset=".867" stop-color="#EBC53D"/><stop offset=".933" stop-color="#EBC53E"/><stop offset="1" stop-color="#EBC53F"/></linearGradient><linearGradient id="paint3_linear" x1="45.268" y1="4.091" x2="18.233" y2="42.531" gradientUnits="userSpaceOnUse"><stop stop-color="#F7C000"/><stop offset=".067" stop-color="#F7C001"/><stop offset=".133" stop-color="#F7C002"/><stop offset=".2" stop-color="#F6C005"/><stop offset=".267" stop-color="#F5C109"/><stop offset=".333" stop-color="#F4C10F"/><stop offset=".4" stop-color="#F3C215"/><stop offset=".467" stop-color="#F2C21C"/><stop offset=".533" stop-color="#F0C323"/><stop offset=".6" stop-color="#EFC32A"/><stop offset=".667" stop-color="#EEC430"/><stop offset=".733" stop-color="#EDC436"/><stop offset=".8" stop-color="#ECC53A"/><stop offset=".867" stop-color="#EBC53D"/><stop offset=".933" stop-color="#EBC53E"/><stop offset="1" stop-color="#EBC53F"/></linearGradient><linearGradient id="paint4_linear" x1="57.893" y1="91.902" x2="24.57" y2="140.751" gradientUnits="userSpaceOnUse"><stop stop-color="#F7C000"/><stop offset=".067" stop-color="#F7C001"/><stop offset=".133" stop-color="#F7C002"/><stop offset=".2" stop-color="#F6C005"/><stop offset=".267" stop-color="#F5C109"/><stop offset=".333" stop-color="#F4C10F"/><stop offset=".4" stop-color="#F3C215"/><stop offset=".467" stop-color="#F2C21C"/><stop offset=".533" stop-color="#F0C323"/><stop offset=".6" stop-color="#EFC32A"/><stop offset=".667" stop-color="#EEC430"/><stop offset=".733" stop-color="#EDC436"/><stop offset=".8" stop-color="#ECC53A"/><stop offset=".867" stop-color="#EBC53D"/><stop offset=".933" stop-color="#EBC53E"/><stop offset="1" stop-color="#EBC53F"/></linearGradient><linearGradient id="paint5_linear" x1="42.893" y1="78.908" x2="16.558" y2="115.55" gradientUnits="userSpaceOnUse"><stop stop-color="#F7C000"/><stop offset=".067" stop-color="#F7C001"/><stop offset=".133" stop-color="#F7C002"/><stop offset=".2" stop-color="#F6C005"/><stop offset=".267" stop-color="#F5C109"/><stop offset=".333" stop-color="#F4C10F"/><stop offset=".4" stop-color="#F3C215"/><stop offset=".467" stop-color="#F2C21C"/><stop offset=".533" stop-color="#F0C323"/><stop offset=".6" stop-color="#EFC32A"/><stop offset=".667" stop-color="#EEC430"/><stop offset=".733" stop-color="#EDC436"/><stop offset=".8" stop-color="#ECC53A"/><stop offset=".867" stop-color="#EBC53D"/><stop offset=".933" stop-color="#EBC53E"/><stop offset="1" stop-color="#EBC53F"/></linearGradient><linearGradient id="paint7_linear" x1="28.206" y1="65.895" x2="9.337" y2="90.24" gradientUnits="userSpaceOnUse"><stop stop-color="#F7C000"/><stop offset=".067" stop-color="#F7C001"/><stop offset=".133" stop-color="#F7C002"/><stop offset=".2" stop-color="#F6C005"/><stop offset=".267" stop-color="#F5C109"/><stop offset=".333" stop-color="#F4C10F"/><stop offset=".4" stop-color="#F3C215"/><stop offset=".467" stop-color="#F2C21C"/><stop offset=".533" stop-color="#F0C323"/><stop offset=".6" stop-color="#EFC32A"/><stop offset=".667" stop-color="#EEC430"/><stop offset=".733" stop-color="#EDC436"/><stop offset=".8" stop-color="#ECC53A"/><stop offset=".867" stop-color="#EBC53D"/><stop offset=".933" stop-color="#EBC53E"/><stop offset="1" stop-color="#EBC53F"/></linearGradient><linearGradient id="paint9_linear" x1="28.206" y1="53.395" x2="9.337" y2="77.74" gradientUnits="userSpaceOnUse"><stop stop-color="#F7C000"/><stop offset=".067" stop-color="#F7C001"/><stop offset=".133" stop-color="#F7C002"/><stop offset=".2" stop-color="#F6C005"/><stop offset=".267" stop-color="#F5C109"/><stop offset=".333" stop-color="#F4C10F"/><stop offset=".4" stop-color="#F3C215"/><stop offset=".467" stop-color="#F2C21C"/><stop offset=".533" stop-color="#F0C323"/><stop offset=".6" stop-color="#EFC32A"/><stop offset=".667" stop-color="#EEC430"/><stop offset=".733" stop-color="#EDC436"/><stop offset=".8" stop-color="#ECC53A"/><stop offset=".867" stop-color="#EBC53D"/><stop offset=".933" stop-color="#EBC53E"/><stop offset="1" stop-color="#EBC53F"/></linearGradient><radialGradient id="paint6_radial" cx="0" cy="0" r="1" gradientUnits="userSpaceOnUse" gradientTransform="matrix(-19.2405 0 0 -17.4831 -425.822 681.583)"><stop stop-color="#fff"/><stop offset="1"/></radialGradient><radialGradient id="paint8_radial" cx="0" cy="0" r="1" gradientUnits="userSpaceOnUse" gradientTransform="matrix(-19.2405 0 0 -17.4528 -532.397 540.721)"><stop stop-color="#fff"/><stop offset="1"/></radialGradient><radialGradient id="paint10_radial" cx="0" cy="0" r="1" gradientUnits="userSpaceOnUse" gradientTransform="matrix(-19.2405 0 0 -17.4528 -532.397 456.221)"><stop stop-color="#fff"/><stop offset="1"/></radialGradient></defs></svg>