<svg width="120" height="153" fill="none" xmlns="http://www.w3.org/2000/svg"><g opacity=".5"><path d="M25.12 100.86a.47.47 0 00.25-.07l.86-.51a.486.486 0 00.245-.496.51.51 0 00-.755-.364l-.86.51a.503.503 0 00-.17.69.51.51 0 00.43.24zm-9.51 5.61a.592.592 0 00.25-.07l1.9-1.12a.51.51 0 00.18-.69.5.5 0 00-.68-.18l-1.91 1.13a.5.5 0 00.26.93zm4.74-2.81c.09 0 .179-.02.26-.06l1.9-1.13a.48.48 0 00.17-.68.496.496 0 00-.68-.18l-1.9 1.12a.51.51 0 00-.18.69.492.492 0 00.43.24zm-8.46 5a.591.591 0 00.26-.07l.86-.51a.501.501 0 00-.51-.86l-.86.51a.486.486 0 00-.246.496.511.511 0 00.495.434zm30.35 2.26c.09 0 .179-.02.26-.06l.86-.51a.504.504 0 00.237-.506.5.5 0 00-.068-.184.492.492 0 00-.68-.17l-.86.5a.51.51 0 00-.18.69.491.491 0 00.43.24zm-9.51 5.61a.477.477 0 00.26-.07l1.9-1.12a.502.502 0 00-.135-.909.498.498 0 00-.376.049l-1.9 1.12a.498.498 0 00-.05.825.499.499 0 00.3.105zm4.76-2.8a.592.592 0 00.25-.07l1.9-1.12a.51.51 0 00.18-.69.493.493 0 00-.498-.237.494.494 0 00-.183.067l-1.91 1.12a.5.5 0 00.26.93zm-8.47 4.99a.47.47 0 00.25-.07l.86-.51a.5.5 0 00-.5-.86l-.87.51a.5.5 0 00.26.93zM59.35 121a.592.592 0 00.25-.07l.86-.51a.502.502 0 00.18-.68.513.513 0 00-.69-.18l-.86.51a.5.5 0 00.26.93zm-9.49 5.59a.47.47 0 00.25-.07l1.9-1.12a.505.505 0 00.29-.51.5.5 0 00-.79-.35l-1.91 1.12a.5.5 0 00.26.93zm4.75-2.8a.477.477 0 00.26-.07l1.9-1.12a.49.49 0 00.17-.69.5.5 0 00-.68-.17l-1.9 1.12a.498.498 0 00-.052.825.498.498 0 00.301.105zm-8.47 4.99a.477.477 0 00.26-.07l.86-.51a.5.5 0 00.233-.302.493.493 0 00-.054-.378.513.513 0 00-.69-.18l-.86.51a.502.502 0 00-.18.68.511.511 0 00.43.25zm30.35 2.27a.477.477 0 00.26-.07l.86-.51a.499.499 0 00.17-.68.496.496 0 00-.68-.18l-.86.51a.503.503 0 00-.228.56.5.5 0 00.477.37zm-9.51 5.6a.477.477 0 00.26-.07l1.9-1.12a.48.48 0 00.17-.68.496.496 0 00-.68-.18l-1.9 1.12a.51.51 0 00-.18.69.492.492 0 00.43.24zm4.76-2.8a.47.47 0 00.25-.07l1.9-1.12a.5.5 0 00-.5-.86l-1.91 1.12a.5.5 0 00.26.93zm-8.47 4.99a.47.47 0 00.25-.07l.86-.5a.51.51 0 00.18-.69.5.5 0 00-.68-.18l-.87.51a.51.51 0 00-.17.69.492.492 0 00.43.24zm30.35 2.27a.47.47 0 00.25-.07l.86-.51a.486.486 0 00.245-.496.513.513 0 00-.755-.364l-.86.51a.504.504 0 00-.238.506.499.499 0 00.497.424zm-9.51 5.61a.578.578 0 00.25-.07l1.9-1.12a.51.51 0 00.18-.69.5.5 0 00-.68-.18l-1.91 1.13a.5.5 0 00.26.93zm4.75-2.81c.09.001.179-.02.26-.06l1.9-1.13a.502.502 0 00-.135-.909.502.502 0 00-.376.049l-1.9 1.12a.51.51 0 00-.18.69.491.491 0 00.43.24zm-8.51 5a.591.591 0 00.26-.07l.86-.51a.51.51 0 00.18-.69.51.51 0 00-.69-.17l-.86.51a.486.486 0 00-.246.496.511.511 0 00.495.434zm38.379-86.63a.502.502 0 00.478-.37.497.497 0 00-.228-.56L13.409.07a.49.49 0 00-.68.18.491.491 0 00.18.68l105.57 61.28a.451.451 0 00.25.07zm0 13.34a.502.502 0 00.481-.632.51.51 0 00-.231-.308L13.409 13.4a.491.491 0 00-.68.18.51.51 0 00.18.69l105.57 61.28a.553.553 0 00.25.07zm0 13a.502.502 0 00.481-.632.51.51 0 00-.231-.308L13.409 26.4a.491.491 0 00-.68.18.51.51 0 00.18.69l105.57 61.28a.553.553 0 00.25.07zm0 13.38a.5.5 0 00.25-.93L13.409 39.73a.51.51 0 00-.745.373.49.49 0 00.245.497l105.57 61.28a.458.458 0 00.25.12zm0 12.78a.5.5 0 00.25-.93L13.409 52.57a.5.5 0 00-.5.86l105.57 61.28a.453.453 0 00.25.07zm0 13.34a.506.506 0 00.43-.25.505.505 0 00-.18-.69L13.409 65.9a.491.491 0 00-.68.18.51.51 0 00.18.69l105.57 61.28a.553.553 0 00.25.07zm0 13.16a.5.5 0 00.25-.93L13.409 79.07a.5.5 0 00-.5.86l105.57 61.28a.453.453 0 00.25.07z" fill="#fff" opacity=".1"/><path opacity=".3" d="M17.01 87.72l96.559 55.75v-58.3l-7.51-8.64-7.79-.19-11.32-19.59-11.26.12-13.22-19.78-7.51 2.31-9.52-8.83-14.43 6.6-9.81-8.67-4.19 1.25v57.97z" fill="url(#paint0_linear)"/><path opacity=".4" d="M8.34 92.13l96.559 55.75v-44.06l-7.51-8.64-7.79-.2-17.32-22.25-9.24-.7L51.78 54.6l-8.37 3.45-9.52-8.83-11.55-2.67-9.81-8.68-4.19 1.25v53.01z" fill="#fff"/><path d="M.01 97l96.56 55.75v-35.78l-11.84-10.14-11.26-4.52-17.32-23.25-6.06 1.14-6.64-10.46-8.37-1.52-9.52-8.83-11.55 3.62-9.81-10-4.19-.4V97z" fill="url(#paint1_linear)" opacity=".8"/><path style="mix-blend-mode:color-dodge" opacity=".3" d="M113.229 86l-7.5-8.64-7.8-.19-11.31-19.59-11.26.12-13.22-19.78-7.51 2.31-9.53-8.83-14.43 6.61-9.8-8.68L17 30.49v-.74l4.2-1.25 9.81 8.67 14.43-6.6 9.52 8.83 7.51-2.31 13.22 19.78 11.26-.12 11.32 19.59 7.79.19 7.51 8.64v58.3l-.34-.19V86z" fill="url(#paint2_radial)"/><path d="M104.569 104.65l-7.51-8.64-7.79-.19-17.32-22.26-9.24-.69-11.26-17.43-8.37 3.44-9.52-8.83-11.55-2.67-9.81-8.68-3.86 1.16v-.74l4.19-1.25 9.81 8.68 11.55 2.67 9.52 8.83 8.37-3.45 11.26 17.43 9.24.7L89.6 94.98l7.79.2 7.51 8.64v44.06l-.33-.2v-43.03z" fill="#fff" opacity=".3"/><path d="M96.23 117.81L84.4 107.66l-11.26-4.51L55.82 79.9l-6.06 1.13-6.64-10.45-8.38-1.52-9.52-8.83-11.55 3.62-9.8-10.01L0 53.48v-.87l4.2.4 9.81 10 11.55-3.62 9.52 8.83 8.37 1.52 6.64 10.46 6.06-1.14 17.32 23.25 11.26 4.52 11.84 10.14v35.78l-.34-.19v-34.75z" fill="#fff" opacity=".3"/></g><defs><linearGradient id="paint0_linear" x1="113.569" y1="35.184" x2="7.362" y2="122.358" gradientUnits="userSpaceOnUse"><stop stop-color="#F7C000"/><stop offset=".067" stop-color="#F7C001"/><stop offset=".133" stop-color="#F7C002"/><stop offset=".2" stop-color="#F6C005"/><stop offset=".267" stop-color="#F5C109"/><stop offset=".333" stop-color="#F4C10F"/><stop offset=".4" stop-color="#F3C215"/><stop offset=".467" stop-color="#F2C21C"/><stop offset=".533" stop-color="#F0C323"/><stop offset=".6" stop-color="#EFC32A"/><stop offset=".667" stop-color="#EEC430"/><stop offset=".733" stop-color="#EDC436"/><stop offset=".8" stop-color="#ECC53A"/><stop offset=".867" stop-color="#EBC53D"/><stop offset=".933" stop-color="#EBC53E"/><stop offset="1" stop-color="#EBC53F"/></linearGradient><linearGradient id="paint1_linear" x1="96.569" y1="58.432" x2="2.418" y2="147.155" gradientUnits="userSpaceOnUse"><stop stop-color="#F7C000"/><stop offset=".067" stop-color="#F7C001"/><stop offset=".133" stop-color="#F7C002"/><stop offset=".2" stop-color="#F6C005"/><stop offset=".267" stop-color="#F5C109"/><stop offset=".333" stop-color="#F4C10F"/><stop offset=".4" stop-color="#F3C215"/><stop offset=".467" stop-color="#F2C21C"/><stop offset=".533" stop-color="#F0C323"/><stop offset=".6" stop-color="#EFC32A"/><stop offset=".667" stop-color="#EEC430"/><stop offset=".733" stop-color="#EDC436"/><stop offset=".8" stop-color="#ECC53A"/><stop offset=".867" stop-color="#EBC53D"/><stop offset=".933" stop-color="#EBC53E"/><stop offset="1" stop-color="#EBC53F"/></linearGradient><radialGradient id="paint2_radial" cx="0" cy="0" r="1" gradientUnits="userSpaceOnUse" gradientTransform="rotate(180 36.08 20.805) scale(53.08)"><stop stop-color="#fff"/><stop offset="1"/></radialGradient></defs></svg>