<svg width="113" height="150" fill="none" xmlns="http://www.w3.org/2000/svg"><path style="mix-blend-mode:color-dodge" d="M111.89 144.81V67.3c0-2.69-1.63-5.8-3.65-7L5.07.77A2.78 2.78 0 003.54.35a2.25 2.25 0 012.53.08L109.24 60c2.02 1.16 3.65 4.28 3.65 7v77.5c0 1.95-.87 3.12-2.11 3.18a3.376 3.376 0 001.11-2.87z" fill="url(#paint0_radial)"/><path d="M108.76 149.61c1.62 0 2.7-1.48 2.7-3.69V68.41c0-2.89-1.71-6.14-3.89-7.4L4.39 1.45A3.36 3.36 0 002.7.94C1.08.94 0 2.43 0 4.64v77.5c0 2.89 1.71 6.14 3.89 7.4l103.18 59.57c.51.311 1.092.483 1.69.5zM2.7 1.94a2.44 2.44 0 011.19.37l103.18 59.57c1.82 1.12 3.39 4.01 3.39 6.53v77.51c0 1.64-.67 2.69-1.7 2.69a2.34 2.34 0 01-1.19-.37L4.39 88.68C2.52 87.6 1 84.68 1 82.14V4.64c0-1.64.67-2.7 1.7-2.7z" fill="#EBC53F"/><path d="M108.76 147.85a1.64 1.64 0 01-.81-.27L4.78 88a7.48 7.48 0 01-3-5.88V4.64c0-1 .29-1.93.94-1.93.287.018.565.107.81.26l103.15 59.57c1.64.94 3 3.63 3 5.87v77.51c.02.96-.27 1.93-.92 1.93z" fill="#fff" opacity=".1"/><path d="M71.5 117.06a.5.5 0 00.5-.5v-2a.5.5 0 10-1 0v2a.5.5 0 00.5.5zm0-5a.5.5 0 00.5-.5v-2a.5.5 0 10-1 0v2a.5.5 0 00.5.5zm0-5a.5.5 0 00.5-.5v-2a.5.5 0 10-1 0v2a.5.5 0 00.5.5zm0-5a.5.5 0 00.5-.5v-2a.5.5 0 10-1 0v2a.5.5 0 00.5.5zm0-5a.5.5 0 00.5-.5v-2a.5.5 0 10-1 0v2a.5.5 0 00.5.5zm30.58 37.68a.5.5 0 00.5-.5v-2a.51.51 0 00-.5-.5.5.5 0 00-.5.5v2a.5.5 0 00.5.5zm0-5a.5.5 0 00.5-.5v-1.68a.5.5 0 00-1 0v1.68a.5.5 0 00.5.5zm-15.25-4.16a.503.503 0 00.5-.5v-2a.5.5 0 00-.5-.5.513.513 0 00-.5.5v2a.5.5 0 00.5.5zm0-5a.503.503 0 00.5-.5v-2a.5.5 0 00-.5-.5.513.513 0 00-.5.5v2a.5.5 0 00.5.5zm0-5a.503.503 0 00.5-.5v-2a.5.5 0 00-.5-.5.513.513 0 00-.5.5v2a.5.5 0 00.5.5zm0-5a.503.503 0 00.5-.5v-2a.5.5 0 00-.5-.5.513.513 0 00-.5.5v2a.5.5 0 00.5.5zm0-5a.503.503 0 00.5-.5v-1.85a.5.5 0 10-1 0v1.85a.5.5 0 00.5.5zm-30.57 2.81a.5.5 0 00.5-.5v-2a.5.5 0 10-1 0v2a.5.5 0 00.5.5zm0-5a.5.5 0 00.5-.5v-2a.5.5 0 10-1 0v2a.5.5 0 00.5.5zm0-5a.5.5 0 00.5-.5v-2a.5.5 0 10-1 0v2a.5.5 0 00.5.5zm0-5a.5.5 0 00.5-.5v-2a.5.5 0 10-1 0v2a.5.5 0 00.5.5zm0-5a.5.5 0 00.5-.5v-2a.5.5 0 10-1 0v2a.5.5 0 00.5.5zm0-5a.5.5 0 00.5-.5v-2a.5.5 0 10-1 0v2a.5.5 0 00.5.5zm0-5a.5.5 0 00.5-.5v-2a.5.5 0 10-1 0v2a.5.5 0 00.5.5zm0-5a.5.5 0 00.5-.5v-2a.5.5 0 10-1 0v2a.5.5 0 00.5.5zm0-5a.5.5 0 00.5-.5v-2a.5.5 0 10-1 0v2a.5.5 0 00.5.5zm0-5a.5.5 0 00.5-.5v-.83a.5.5 0 10-1 0v.83a.5.5 0 00.5.5zM41.02 99.56a.5.5 0 00.5-.5v-2a.5.5 0 10-1 0v2a.5.5 0 00.5.5zm0-5a.5.5 0 00.5-.5v-2a.5.5 0 10-1 0v2a.5.5 0 00.5.5zm0-5a.5.5 0 00.5-.5v-2a.5.5 0 10-1 0v2a.5.5 0 00.5.5zm0-5a.5.5 0 00.5-.5v-2a.5.5 0 10-1 0v2a.5.5 0 00.5.5zm0-5a.5.5 0 00.5-.5v-2a.5.5 0 10-1 0v2a.5.5 0 00.5.5zm0-5a.5.5 0 00.5-.5v-2a.5.5 0 10-1 0v2a.5.5 0 00.5.5zm0-5a.5.5 0 00.5-.5v-2a.5.5 0 10-1 0v2a.5.5 0 00.5.5zm0-5a.5.5 0 00.5-.5v-2a.5.5 0 00-1 0v2a.5.5 0 00.5.5zm0-5a.5.5 0 00.5-.5v-2a.5.5 0 00-1 0v2a.5.5 0 00.5.5zm0-5a.5.5 0 00.5-.5v-2a.5.5 0 00-1 0v2a.5.5 0 00.5.5zm0-5a.5.5 0 00.5-.5v-2a.5.5 0 00-1 0v2a.5.5 0 00.5.5zm0-5a.5.5 0 00.5-.5v-2a.5.5 0 00-1 0v2a.5.5 0 00.5.5zM25.78 90.35a.51.51 0 00.5-.5v-2a.5.5 0 10-1 0v2a.5.5 0 00.5.5zm0-5a.51.51 0 00.5-.5v-2a.5.5 0 10-1 0v2a.5.5 0 00.5.5zm0-5a.51.51 0 00.5-.5v-2a.5.5 0 10-1 0v2a.5.5 0 00.5.5zm0-5a.51.51 0 00.5-.5v-2a.5.5 0 10-1 0v2a.5.5 0 00.5.5zm0-5a.51.51 0 00.5-.5v-2a.5.5 0 10-1 0v2a.5.5 0 00.5.5zm0-5a.51.51 0 00.5-.5v-2a.5.5 0 10-1 0v2a.5.5 0 00.5.5zm0-5a.51.51 0 00.5-.5v-2a.5.5 0 10-1 0v2a.5.5 0 00.5.5zM10.53 81.69a.5.5 0 00.5-.5v-2a.5.5 0 00-1 0v2a.51.51 0 00.5.5zm0-5a.5.5 0 00.5-.5v-2a.5.5 0 00-1 0v2a.51.51 0 00.5.5zm0-5a.5.5 0 00.5-.5v-2a.5.5 0 00-1 0v2a.51.51 0 00.5.5zm0-5a.5.5 0 00.5-.5v-2a.5.5 0 00-1 0v2a.51.51 0 00.5.5zm0-5a.5.5 0 00.5-.5v-2a.5.5 0 00-1 0v2a.51.51 0 00.5.5zm0-5a.48.48 0 00.5-.48.5.5 0 00-.5-.5.51.51 0 000 1v-.02z" fill="#fff" opacity=".2"/><path opacity=".2" d="M38.43 107.24l4.83 2.7V39.16l-2.9-1.48-1.93.18v69.38z" fill="#fff"/><path d="M106.89 125.24a.749.749 0 00.35-1.41c-6.4-3.47-9.28-9.65-12.06-15.62-2.26-4.84-4.39-9.41-8.24-11.7a22.881 22.881 0 00-9.34-3.24c-2.27-.33-3.9-.57-6-2.61-1.54-1.49-2-5.88-2.53-10.52-.9-8.25-1.92-17.61-9-19-5.56-1.13-8.53-7.47-11.41-13.6-2.18-4.66-4.25-9.07-7.38-10.67-4.5-2.29-6.8 2.12-9 6.37-2 3.93-4.38 8.38-8.6 8.89-7 .84-10-3.17-12.65-6.72-1.56-2.12-2.92-4-4.92-4.43a.75.75 0 00-.35 1.46c1.47.35 2.67 2 4.07 3.86 2.73 3.69 6.13 8.28 14 7.32 5-.6 7.53-5.43 9.75-9.68 2.45-4.69 4-7.27 7-5.73 2.67 1.37 4.63 5.54 6.71 10 2.89 6.16 6.17 13.15 12.46 14.43 6 1.23 7 10 7.84 17.74.56 5.14 1.05 9.57 3 11.44 2.44 2.37 4.47 2.67 6.82 3a21 21 0 018.79 3c3.46 2 5.49 6.41 7.65 11 2.75 5.91 5.87 12.61 12.71 16.31.1.061.213.099.33.11z" fill="url(#paint1_linear)"/><g style="mix-blend-mode:color-dodge"><path style="mix-blend-mode:color-dodge" d="M23.46 52.41c-7 .84-10-3.17-12.64-6.72-1.57-2.12-2.93-3.94-4.93-4.43a.75.75 0 00-.69.21.77.77 0 01.9-.54c2 .48 3.36 2.31 4.92 4.43 2.63 3.55 5.62 7.56 12.65 6.72 2.84-.34 4.82-2.47 6.44-5-1.65 2.67-3.68 4.98-6.65 5.33z" fill="url(#paint2_radial)"/><path style="mix-blend-mode:color-dodge" d="M33.39 44.22c.68-1.29 1.28-2.42 1.87-3.34-.52.86-1.06 1.87-1.66 3-.71 1.36-1.46 2.78-2.3 4.1.76-1.21 1.44-2.51 2.09-3.76z" fill="url(#paint3_radial)"/><path style="mix-blend-mode:color-dodge" d="M107.08 124.17c-6.41-3.47-9.29-9.65-12.07-15.63-2.25-4.84-4.38-9.41-8.24-11.69a22.73 22.73 0 00-9.34-3.24c-2.26-.34-3.9-.58-6-2.61-1.54-1.49-2-5.88-2.53-10.53-.9-8.25-1.92-17.6-9-19-5.55-1.12-8.53-7.46-11.4-13.6-2.19-4.66-4.26-9.06-7.39-10.66-3.28-1.68-5.39.22-7.16 3 1.81-3 4-5.1 7.37-3.36 3.13 1.6 5.2 6 7.38 10.67 2.85 6.1 5.82 12.48 11.38 13.57 7.11 1.44 8.13 10.8 9 19 .51 4.64 1 9 2.53 10.52 2.1 2 3.73 2.28 6 2.61a22.88 22.88 0 019.34 3.24c3.85 2.29 6 6.86 8.24 11.7 2.78 6 5.66 12.15 12.06 15.62a.76.76 0 01.31 1 .866.866 0 01-.16.16.741.741 0 00-.32-.77z" fill="url(#paint4_radial)"/></g><path d="M37.24 35.11a7.24 7.24 0 003.29 5.67c1.81 1 3.28.21 3.28-1.87a7.24 7.24 0 00-3.28-5.67c-1.82-1.05-3.29-.24-3.29 1.87z" fill="#F4C211"/><path d="M42 41.73c1.4 0 2.31-1.11 2.31-2.82a7.71 7.71 0 00-3.53-6.11 3.52 3.52 0 00-1.73-.51c-1.4 0-2.31 1.1-2.31 2.82a7.661 7.661 0 003.54 6.1 3.38 3.38 0 001.72.52zm-3-8.44c.435.02.859.15 1.23.38a6.72 6.72 0 013 5.24c0 1.14-.49 1.82-1.31 1.82a2.52 2.52 0 01-1.22-.38 6.701 6.701 0 01-3-5.24c.04-1.11.53-1.82 1.35-1.82H39z" fill="#EBDEF3"/><defs><radialGradient id="paint0_radial" cx="0" cy="0" r="1" gradientUnits="userSpaceOnUse" gradientTransform="matrix(-64.96 0 0 -64.96 81.05 54.99)"><stop stop-color="#fff"/><stop offset="1"/></radialGradient><radialGradient id="paint2_radial" cx="0" cy="0" r="1" gradientUnits="userSpaceOnUse" gradientTransform="matrix(-242.125 0 0 -112.846 -2342.07 583.317)"><stop stop-color="#fff"/><stop offset="1"/></radialGradient><radialGradient id="paint3_radial" cx="0" cy="0" r="1" gradientUnits="userSpaceOnUse" gradientTransform="matrix(-11.4048 0 0 -20.448 -279.996 356.333)"><stop stop-color="#fff"/><stop offset="1"/></radialGradient><radialGradient id="paint4_radial" cx="0" cy="0" r="1" gradientUnits="userSpaceOnUse" gradientTransform="matrix(-2148.03 0 0 -2586.22 -4602.55 3805.97)"><stop stop-color="#fff"/><stop offset="1"/></radialGradient><linearGradient id="paint1_linear" x1="107.633" y1="41.417" x2="24.389" y2="135.067" gradientUnits="userSpaceOnUse"><stop stop-color="#F7C000"/><stop offset=".067" stop-color="#F7C001"/><stop offset=".133" stop-color="#F7C002"/><stop offset=".2" stop-color="#F6C005"/><stop offset=".267" stop-color="#F5C109"/><stop offset=".333" stop-color="#F4C10F"/><stop offset=".4" stop-color="#F3C215"/><stop offset=".467" stop-color="#F2C21C"/><stop offset=".533" stop-color="#F0C323"/><stop offset=".6" stop-color="#EFC32A"/><stop offset=".667" stop-color="#EEC430"/><stop offset=".733" stop-color="#EDC436"/><stop offset=".8" stop-color="#ECC53A"/><stop offset=".867" stop-color="#EBC53D"/><stop offset=".933" stop-color="#EBC53E"/><stop offset="1" stop-color="#EBC53F"/></linearGradient></defs></svg>