<?xml version="1.0" encoding="utf-8"?><svg xmlns="http://www.w3.org/2000/svg" xmlns:xlink="http://www.w3.org/1999/xlink"><symbol viewBox="0 0 130 75" id="Logo" xmlns="http://www.w3.org/2000/svg"><path d="M40.324 62.5c.45-.7.942-1.32 1.419-1.675 1.508-1.123 5.172-1.854 7.743-1.676l-.668-3.27c-2.42 2.02-6.233 3.389-9.222 3.057l.728 3.563z"/><path d="M33.496 7.537C33.593 3.474 30.39.099 26.343.002c-4.046-.097-7.406 3.12-7.503 7.183a7.365 7.365 0 004.908 7.127c1.28.45 3.931 1.792 4.837 3.028 1.636 2.229 2.417 9.121.742 10.348-2.148 1.573-13.2-2.655-13.123-5.932.107-4.493-3.434-8.223-7.907-8.33C3.824 13.32.11 16.874.002 21.367c-.1 4.247 3.058 7.813 7.183 8.281 3.974.447 17.928 22.926 14.931 26.463a11.445 11.445 0 00-2.715 7.15c-.151 6.33 4.837 11.584 11.14 11.736 6.3.15 11.533-4.86 11.683-11.188.151-6.328-4.837-11.582-11.138-11.733-.654-.016-2.005-.058-2.632.033-3.657.531-17.38-22.36-15.042-24.4.169-.146.33-.3.485-.46 1.92-1.972 12.95 1.136 12.984 4.771.022 2.279 1.575 6.961 5.9 7.254 4.325.293 6.792-2.862 6.88-6.588a6.756 6.756 0 00-3.798-6.243c-4.081-1.982-7.316-10.668-4.2-14.213a7.34 7.34 0 001.833-4.693zM47.416 27.843c0-.294.11-.552.33-.773.205-.206.462-.309.77-.309.263 0 .52.103.769.31.205.25.308.507.308.772v13.338c0 .309-.103.566-.308.773-.22.22-.476.33-.77.33-.307 0-.564-.11-.77-.33a1.015 1.015 0 01-.329-.773V27.843zm14.49 13.316c0 .309-.103.566-.308.773-.22.22-.484.33-.792.33-.293 0-.55-.11-.77-.33a1.051 1.051 0 01-.307-.773V36.72c0-.898-.323-1.693-.968-2.385-.689-.648-1.48-.971-2.374-.971-.924 0-1.708.324-2.353.971a3.26 3.26 0 00-.99 2.385v4.439c0 .309-.102.566-.307.773-.22.22-.484.33-.792.33-.293 0-.55-.11-.77-.33a1.051 1.051 0 01-.307-.773V36.72c0-1.531.542-2.841 1.627-3.93 1.07-1.075 2.367-1.613 3.892-1.613 1.524 0 2.821.538 3.892 1.612 1.084 1.09 1.627 2.4 1.627 3.931v4.439zm9.982-1.105c.264 0 .52.103.77.31.22.22.33.485.33.795 0 .309-.11.566-.33.773-.22.22-.477.33-.77.33h-7.652a1.01 1.01 0 01-.77-.33 1.016 1.016 0 01-.33-.773V27.953c0-.309.11-.574.33-.794.206-.207.462-.31.77-.31.264 0 .52.103.77.31.22.22.33.485.33.794v12.101h6.552zm12.049 1.082c0 .324-.103.59-.308.795-.205.207-.47.31-.792.31-.205 0-.432-.103-.681-.31-.25-.25-.374-.515-.374-.794-.909.736-1.994 1.104-3.254 1.104-1.554 0-2.866-.516-3.936-1.546-1.085-1.045-1.627-2.34-1.627-3.887 0-1.545.542-2.863 1.627-3.952 1.085-1.09 2.397-1.634 3.936-1.634 1.539 0 2.829.544 3.87 1.634 1.026 1.074 1.539 2.392 1.539 3.952v4.328zm-7.806-2.009c.63.633 1.43.95 2.397.95.923 0 1.7-.317 2.33-.95.616-.618.924-1.391.924-2.319 0-.942-.308-1.744-.923-2.407a3.058 3.058 0 00-2.331-1.015c-.924 0-1.723.338-2.397 1.015-.674.678-1.011 1.48-1.011 2.407 0 .913.337 1.686 1.011 2.319zm9.08-12.366c0-.294.11-.552.33-.773.206-.206.463-.309.77-.309.264 0 .52.103.77.31.205.25.308.507.308.772v5.498a5.42 5.42 0 013.342-1.126c1.539 0 2.843.538 3.913 1.612 1.07 1.075 1.605 2.385 1.605 3.93 0 1.532-.534 2.835-1.605 3.91-1.084 1.089-2.389 1.633-3.913 1.633-1.51 0-2.807-.544-3.892-1.634-1.085-1.089-1.627-2.392-1.627-3.908V26.76zm2.178 9.915c0 .927.33 1.715.99 2.363a3.16 3.16 0 002.352.993c.923 0 1.715-.33 2.374-.993.645-.692.968-1.48.968-2.363 0-.898-.323-1.693-.968-2.385-.689-.648-1.48-.972-2.374-.972-.924 0-1.708.324-2.353.972-.66.663-.99 1.45-.99 2.363v.022zM61.532 55.18c.264 0 .52.103.77.309.22.22.33.486.33.795 0 1.03-.199 2.024-.594 2.98a7.825 7.825 0 01-1.65 2.43 7.79 7.79 0 01-2.418 1.656 7.585 7.585 0 01-2.99.596 7.637 7.637 0 01-2.969-.596 7.791 7.791 0 01-2.418-1.656 7.825 7.825 0 01-1.65-2.43 7.727 7.727 0 01-.593-2.98c0-1.06.198-2.061.594-3.003a7.826 7.826 0 011.649-2.43 7.791 7.791 0 012.418-1.656 7.583 7.583 0 012.947-.596c2.594-.059 4.712 1.001 6.354 3.18.176.25.22.53.132.84-.074.308-.25.537-.528.684-.542.309-1.055.176-1.539-.398-1.187-1.398-2.66-2.098-4.42-2.098-1.51.03-2.785.567-3.825 1.612-1.056 1.06-1.583 2.348-1.583 3.865 0 1.501.535 2.782 1.605 3.842 1.055 1.075 2.33 1.612 3.825 1.612 1.305 0 2.463-.42 3.474-1.259 1.012-.824 1.635-1.854 1.87-3.091H55.55c-.308 0-.564-.11-.77-.331a1.062 1.062 0 01-.33-.773c0-.31.11-.574.33-.795.206-.206.462-.31.77-.31h5.98zm4.595 4.35a3.294 3.294 0 001.21 1.634c.6.427 1.253.64 1.956.64.279 0 .425-.007.44-.022l.176-.022.176-.022.132-.022.11-.022c.454-.103.93-.31 1.429-.618.249-.162.52-.184.813-.067.308.118.52.31.638.575.264.544.088 1.03-.528 1.457-.733.427-1.378.707-1.935.839l-.153.022-.176.022-.22.022-.242.022-.33.022h-.33c-1.524 0-2.829-.544-3.913-1.634-1.07-1.074-1.606-2.377-1.606-3.908 0-1.546.535-2.856 1.606-3.93 1.07-1.075 2.374-1.613 3.913-1.613 1.48 0 2.734.471 3.76 1.413 1.173 1.06 1.76 2.437 1.76 4.13 0 .265-.103.523-.309.773-.249.206-.513.309-.791.309h-7.586zm6.354-2.186c-.22-.736-.645-1.303-1.275-1.7-.542-.369-1.18-.553-1.913-.553a3.31 3.31 0 00-1.957.64c-.571.413-.974.95-1.209 1.613h6.354zm14.688 5.542c0 .31-.103.567-.308.773-.22.221-.484.331-.791.331-.294 0-.55-.11-.77-.33a1.051 1.051 0 01-.308-.774V58.45c0-.898-.322-1.693-.967-2.385-.69-.648-1.48-.972-2.375-.972-.923 0-1.708.324-2.353.972a3.26 3.26 0 00-.989 2.385v4.438c0 .31-.103.567-.308.773-.22.221-.484.331-.791.331-.294 0-.55-.11-.77-.33a1.051 1.051 0 01-.308-.774V58.45c0-1.531.543-2.841 1.627-3.93 1.07-1.075 2.368-1.613 3.892-1.613s2.822.538 3.892 1.612c1.084 1.09 1.627 2.4 1.627 3.93v4.44zm3.65-3.356a3.294 3.294 0 001.209 1.634 3.31 3.31 0 001.957.64c.278 0 .425-.007.44-.022l.175-.022.176-.022.132-.022.11-.022c.455-.103.931-.31 1.43-.618.249-.162.52-.184.813-.067.308.118.52.31.638.575.263.544.088 1.03-.528 1.457-.733.427-1.378.707-1.935.839l-.154.022-.176.022-.22.022-.242.022-.33.022h-.33c-1.524 0-2.828-.544-3.913-1.634-1.07-1.074-1.605-2.377-1.605-3.908 0-1.546.535-2.856 1.605-3.93 1.07-1.075 2.375-1.613 3.914-1.613 1.48 0 2.734.471 3.76 1.413 1.172 1.06 1.759 2.437 1.759 4.13 0 .265-.103.523-.308.773-.25.206-.513.309-.792.309H90.82zm6.354-2.186c-.22-.736-.645-1.303-1.275-1.7-.543-.369-1.18-.553-1.913-.553a3.31 3.31 0 00-1.957.64c-.572.413-.975.95-1.21 1.613h6.355zm8.773-4.417c.278 0 .542.103.791.31.206.25.308.507.308.772s-.102.523-.308.773a1.073 1.073 0 01-.791.331h-1.561v7.795c0 .265-.103.523-.308.773-.22.221-.484.331-.792.331-.293 0-.549-.11-.769-.33-.205-.251-.308-.509-.308-.774v-7.795h-1.583c-.293 0-.55-.11-.77-.33-.205-.251-.307-.509-.307-.774s.102-.522.307-.773c.25-.206.506-.309.77-.309h1.583v-4.416c0-.265.103-.523.308-.773.249-.206.506-.31.769-.31.279 0 .543.104.792.31.205.25.308.508.308.773v4.416h1.561zm2.441 1.082c0-.294.109-.552.329-.773.206-.206.462-.309.77-.309.264 0 .52.103.769.31.206.25.308.507.308.772v8.9c0 .309-.102.566-.308.772a1.05 1.05 0 01-.769.331 1.01 1.01 0 01-.77-.33 1.014 1.014 0 01-.329-.774V54.01zm1.868-3.6a1.04 1.04 0 01-.769.31c-.308 0-.564-.103-.77-.31a1.06 1.06 0 01-.329-.772c0-.294.109-.552.329-.773a1.057 1.057 0 011.539 0c.206.206.308.464.308.773 0 .31-.102.567-.308.773zm11.962 6.118a1.2 1.2 0 01-.506.662 1.038 1.038 0 01-.836.089.993.993 0 01-.659-.486c-.631-1.12-1.598-1.679-2.903-1.679-.879 0-1.663.324-2.352.972-.66.663-.99 1.457-.99 2.385 0 .913.33 1.7.99 2.363.659.662 1.444.993 2.352.993 1.217 0 2.155-.515 2.815-1.545.146-.236.381-.39.703-.464a.991.991 0 01.814.132c.234.148.388.376.462.685.058.177.007.456-.154.84a5.22 5.22 0 01-1.979 1.854 5.306 5.306 0 01-2.661.684c-1.509 0-2.807-.544-3.891-1.634-1.07-1.074-1.605-2.377-1.605-3.908 0-1.546.535-2.856 1.605-3.93 1.07-1.075 2.367-1.613 3.891-1.613.997 0 1.921.25 2.771.751.821.442 1.495 1.111 2.023 2.01.146.147.183.426.11.839zm2.088 3.776c.513-.118.946.17 1.298.86.249.443.615.663 1.099.663.308 0 .571-.11.791-.33.22-.222.33-.494.33-.818 0-.309-.11-.574-.33-.795a1.076 1.076 0 00-.791-.331 3.17 3.17 0 01-2.331-.972c-.645-.618-.967-1.398-.967-2.34 0-.913.322-1.693.967-2.341a3.17 3.17 0 012.331-.972c.762 0 1.458.229 2.089.685.615.47.974 1.008 1.077 1.612.059.176.007.456-.154.839-.146.236-.374.39-.681.464-.631.132-1.063-.14-1.298-.817-.146-.398-.491-.597-1.033-.597-.308 0-.572.11-.792.332-.22.22-.329.486-.329.795 0 .309.109.574.329.795.22.22.484.33.792.33a3.17 3.17 0 012.331.972A3.2 3.2 0 01130 60.68c0 .883-.323 1.671-.967 2.363a3.17 3.17 0 01-2.331.971c-.748 0-1.429-.242-2.045-.728a3.406 3.406 0 01-1.187-1.678c-.103-.28-.059-.553.132-.817.19-.265.425-.427.703-.486zM48.411 16.058a3.904 3.904 0 013.896 3.912 3.904 3.904 0 01-3.896 3.912 3.904 3.904 0 01-3.895-3.912 3.904 3.904 0 013.895-3.912z"/><path d="M109.494 46.26a2.343 2.343 0 012.338 2.347 2.343 2.343 0 01-2.338 2.348 2.343 2.343 0 01-2.337-2.348 2.343 2.343 0 012.337-2.347z"/><defs><linearGradient id="apaint0_linear" x1="79.771" y1="8.936" x2="82.577" y2="14.927" gradientUnits="userSpaceOnUse"><stop stop-color="#74DBFD"/><stop offset="1" stop-color="#fff"/></linearGradient><linearGradient id="apaint1_linear" x1="13.397" y1="-103.494" x2="88.064" y2="-102.196" gradientUnits="userSpaceOnUse"><stop stop-color="#4ACEF9"/><stop offset="1" stop-color="#fff"/></linearGradient><linearGradient id="apaint2_linear" x1="68.724" y1="-7.334" x2="80.611" y2="29.094" gradientUnits="userSpaceOnUse"><stop stop-color="#4ACEF9"/><stop offset="1" stop-color="#fff"/></linearGradient><linearGradient id="apaint3_linear" x1="70.191" y1="-43.317" x2="74.345" y2="-36.698" gradientUnits="userSpaceOnUse"><stop stop-color="#4ACEF9"/><stop offset="1" stop-color="#fff"/></linearGradient><linearGradient id="apaint4_linear" x1="131.936" y1="-6.321" x2="133.392" y2="-1.86" gradientUnits="userSpaceOnUse"><stop stop-color="#4ACEF9"/><stop offset="1" stop-color="#fff"/></linearGradient></defs></symbol><symbol viewBox="0 0 27 20" id="exit" xmlns="http://www.w3.org/2000/svg"><path d="M22.81 11.223H8.59A1.225 1.225 0 017.364 10c0-.675.55-1.222 1.227-1.222H22.81l-1.587-1.581a1.22 1.22 0 010-1.729 1.23 1.23 0 011.736 0l3.681 3.667a.982.982 0 01.081.09l.018.023c.018.023.037.047.054.072l.013.023c.017.026.034.053.049.08l.008.017c.015.03.03.06.043.091l.005.012c.013.033.025.066.036.1l.003.014c.01.034.019.068.026.102l.005.032a1.179 1.179 0 01.013.331c-.003.03-.008.059-.013.088l-.005.03c-.007.036-.016.07-.026.104l-.003.012a.958.958 0 01-.037.102l-.004.01a1.158 1.158 0 01-.043.093l-.008.016a1.253 1.253 0 01-.049.08l-.013.023a1.3 1.3 0 01-.054.073l-.018.023a1.26 1.26 0 01-.08.089l-3.682 3.667a1.23 1.23 0 01-1.736 0 1.22 1.22 0 010-1.729l1.587-1.58z"/><path d="M10.04 0a10.04 10.04 0 018.337 4.428 1.22 1.22 0 01-.334 1.697 1.23 1.23 0 01-1.704-.333 7.589 7.589 0 00-6.3-3.347c-4.182 0-7.584 3.39-7.584 7.555 0 4.166 3.402 7.555 7.584 7.555a7.591 7.591 0 006.29-3.332 1.23 1.23 0 011.704-.328 1.22 1.22 0 01.33 1.697A10.045 10.045 0 0110.04 20C4.504 20 0 15.514 0 10S4.504 0 10.04 0z"/></symbol><symbol viewBox="0 0 18 18" id="search" xmlns="http://www.w3.org/2000/svg"><path d="M17.89 17.36l-5.477-5.477a7.088 7.088 0 001.837-4.758A7.133 7.133 0 007.125 0 7.133 7.133 0 000 7.125a7.133 7.133 0 007.125 7.125c1.83 0 3.495-.7 4.758-1.837l5.477 5.477a.374.374 0 00.53 0 .375.375 0 000-.53zM7.125 13.5A6.382 6.382 0 01.75 7.125 6.382 6.382 0 017.125.75 6.382 6.382 0 0113.5 7.125 6.382 6.382 0 017.125 13.5z"/></symbol></svg>