<svg width="271" height="243" fill="none" xmlns="http://www.w3.org/2000/svg"><path fill-rule="evenodd" clip-rule="evenodd" d="M268.775 96.64c6.294 22.535-5.807 45.176-14.392 66.936-8.763 22.212-16.212 46.291-35.711 60.057-20.143 14.222-48.409 25.785-70.582 14.987-22.619-11.015-14.606-48.931-33.425-65.636-18.219-16.173-50.22-6.255-67.22-23.706-23.929-24.564-58.066-59.101-43.832-90.296C18.03 27.38 68.617 42.764 101.339 31.156c23.353-8.285 41.368-33.6 65.919-30.228 24.38 3.349 36.86 29.917 54.772 46.805 16.82 15.857 40.526 26.637 46.745 48.905z" fill="url(#paint0_linear)"/><defs><linearGradient id="paint0_linear" x1="268.99" y1="97.39" x2="18.681" y2="156.92" gradientUnits="userSpaceOnUse"><stop stop-color="#EB3A67"/><stop offset="1" stop-color="#822F8B"/></linearGradient></defs></svg>