<svg width="256" height="198" fill="none" xmlns="http://www.w3.org/2000/svg"><path fill-rule="evenodd" clip-rule="evenodd" d="M61.9 194.034c-20.177-9.399-29.047-32.154-39.456-51.823C11.818 122.134-.97 101.85 1.15 79.241 3.34 55.888 12.48 28.309 34.003 18.97c21.957-9.526 44.393 19.729 68.109 16.47 22.96-3.155 35.599-32.415 58.729-33.898 32.555-2.087 78.635-5.378 92.366 24.211 13.91 29.974-28.511 57.003-40.374 87.829-8.467 22-1.325 50.683-18.955 66.335-17.507 15.543-44.426 8.118-67.714 10.609-21.866 2.339-44.325 12.796-64.263 3.509z" fill="url(#paint0_linear)"/><defs><linearGradient id="paint0_linear" x1="61.225" y1="193.724" x2="173.119" y2="-23.971" gradientUnits="userSpaceOnUse"><stop stop-color="#EB3A67"/><stop offset="1" stop-color="#822F8B"/></linearGradient></defs></svg>