<svg width="70" height="70" fill="none" xmlns="http://www.w3.org/2000/svg"><path d="M35 67.813a32.812 32.812 0 110-65.625 32.812 32.812 0 010 65.624zm0-63.438a30.625 30.625 0 100 61.25 30.625 30.625 0 000-61.25z" fill="url(#paint0_linear)"/><path d="M35 61.25c14.498 0 26.25-11.752 26.25-26.25C61.25 20.503 49.498 8.75 35 8.75 20.503 8.75 8.75 20.503 8.75 35c0 14.498 11.753 26.25 26.25 26.25z" fill="url(#paint1_linear)"/><path d="M40.08 37.043a1.424 1.424 0 00-2.014 0l-1.842 1.843V22.378a1.425 1.425 0 10-2.85 0v16.508l-1.842-1.843a1.425 1.425 0 00-2.015 2.015l4.274 4.275a1.425 1.425 0 002.015 0l4.275-4.275a1.424 1.424 0 000-2.015z" fill="#fff"/><path d="M43.348 30.927h-7.124v7.959l1.842-1.843a1.425 1.425 0 012.015 2.015l-4.275 4.275a1.423 1.423 0 01-2.015 0l-4.274-4.275a1.424 1.424 0 012.015-2.015l1.842 1.843v-7.96H26.25a4.28 4.28 0 00-4.274 4.275v9.974a4.279 4.279 0 004.274 4.274h17.098a4.279 4.279 0 004.274-4.274V35.2a4.279 4.279 0 00-4.274-4.274z" fill="url(#paint2_linear)"/><defs><linearGradient id="paint0_linear" x1="35" y1="2.188" x2="35" y2="67.813" gradientUnits="userSpaceOnUse"><stop stop-color="#ED017F"/><stop offset="1" stop-color="#7F33B5"/></linearGradient><linearGradient id="paint1_linear" x1="35" y1="8.75" x2="35" y2="61.25" gradientUnits="userSpaceOnUse"><stop stop-color="#FFE5FF"/><stop offset="1" stop-color="#FF1EA5" stop-opacity=".14"/></linearGradient><linearGradient id="paint2_linear" x1="34.799" y1="30.927" x2="34.799" y2="49.449" gradientUnits="userSpaceOnUse"><stop stop-color="#ED017F"/><stop offset="1" stop-color="#7F33B5"/></linearGradient></defs></svg>