<svg width="70" height="70" fill="none" xmlns="http://www.w3.org/2000/svg"><path d="M35 67.813a32.812 32.812 0 110-65.625 32.812 32.812 0 010 65.624zm0-63.438a30.625 30.625 0 100 61.25 30.625 30.625 0 000-61.25z" fill="url(#paint0_linear)"/><path d="M35 61.25c14.498 0 26.25-11.752 26.25-26.25C61.25 20.503 49.498 8.75 35 8.75 20.503 8.75 8.75 20.503 8.75 35c0 14.498 11.753 26.25 26.25 26.25z" fill="url(#paint1_linear)"/><path d="M27.319 28.148c4.721 0 8.549-1.052 8.549-2.35 0-1.299-3.828-2.351-8.55-2.351-4.72 0-8.548 1.052-8.548 2.35 0 1.299 3.827 2.351 8.549 2.351z" fill="#fff"/><path d="M34.799 24.643a.558.558 0 010 .225c0 1.282-3.826 2.35-8.549 2.35a18.936 18.936 0 01-7.48-1.207c.395 1.197 4.05 2.137 8.549 2.137 4.723 0 8.549-1.068 8.549-2.35 0-.417-.407-.813-1.07-1.155z" fill="#fff"/><path d="M35.867 25.797v6.262c0 1.304-3.825 2.351-8.548 2.351-4.724 0-8.55-1.068-8.55-2.35v-6.263c0 1.293 3.826 2.351 8.55 2.351 4.723 0 8.549-1.058 8.549-2.35z" fill="#883089"/><path d="M27.853 33.545c-4.723 0-8.549-1.069-8.549-2.351v-4.542a1.068 1.068 0 01-.534-.855v6.262c0 1.304 3.825 2.351 8.549 2.351 4.723 0 8.549-1.068 8.549-2.35v-.065c-1.208.909-4.275 1.55-8.015 1.55z" fill="#ED017F"/><path d="M35.867 32.06v6.283c0 1.293-3.825 2.35-8.548 2.35-4.724 0-8.55-1.068-8.55-2.35v-6.284c0 1.304 3.826 2.351 8.55 2.351 4.723 0 8.549-1.047 8.549-2.35z" fill="#fff"/><path d="M27.853 39.818c-4.723 0-8.549-1.07-8.549-2.351v-4.585a1.068 1.068 0 01-.534-.812v6.273c0 1.303 3.825 2.35 8.549 2.35 4.723 0 8.549-1.068 8.549-2.35v-.054c-1.208.898-4.275 1.529-8.015 1.529z" fill="#fff"/><path d="M35.867 38.343v6.262c0 1.282-3.825 2.35-8.548 2.35-4.724 0-8.55-1.068-8.55-2.35v-6.262c0 1.293 3.826 2.35 8.55 2.35 4.723 0 8.549-1.057 8.549-2.35z" fill="#883089"/><path d="M27.853 46.09c-4.723 0-8.549-1.068-8.549-2.35v-4.585a1.067 1.067 0 01-.534-.812v6.262c0 1.282 3.825 2.35 8.549 2.35 4.723 0 8.549-1.068 8.549-2.35v-.053c-1.208.897-4.275 1.538-8.015 1.538z" fill="#ED017F"/><path d="M41.21 46.956a9.617 9.617 0 009.618-9.618 9.617 9.617 0 10-9.617 9.618z" fill="#883089"/><path d="M42.375 45.994a9.618 9.618 0 01-6.657-16.542 9.617 9.617 0 1012.15 14.81 9.554 9.554 0 01-5.493 1.732z" fill="#ED017F"/><path d="M41.21 43.75a6.412 6.412 0 100-12.823 6.412 6.412 0 000 12.823z" fill="#fff"/><path d="M42.279 42.681a6.412 6.412 0 01-5.087-10.301 6.41 6.41 0 109.105 8.88 6.412 6.412 0 01-4.018 1.421z" fill="#fff"/><defs><linearGradient id="paint0_linear" x1="35" y1="2.188" x2="35" y2="67.813" gradientUnits="userSpaceOnUse"><stop stop-color="#ED017F"/><stop offset="1" stop-color="#7F33B5"/></linearGradient><linearGradient id="paint1_linear" x1="35" y1="8.75" x2="35" y2="61.25" gradientUnits="userSpaceOnUse"><stop stop-color="#FFE5FF"/><stop offset="1" stop-color="#FF1EA5" stop-opacity=".14"/></linearGradient></defs></svg>