<svg width="70" height="70" fill="none" xmlns="http://www.w3.org/2000/svg"><path d="M35 67.813a32.812 32.812 0 110-65.625 32.812 32.812 0 010 65.624zm0-63.438a30.625 30.625 0 100 61.25 30.625 30.625 0 000-61.25z" fill="url(#paint0_linear)"/><path d="M35 61.25c14.498 0 26.25-11.752 26.25-26.25C61.25 20.503 49.498 8.75 35 8.75 20.503 8.75 8.75 20.503 8.75 35c0 14.498 11.753 26.25 26.25 26.25z" fill="url(#paint1_linear)"/><path d="M42.195 23.958H21.812a3.218 3.218 0 00-3.218 3.218V47.56a3.218 3.218 0 003.218 3.219h20.383a3.218 3.218 0 003.219-3.219V27.176a3.218 3.218 0 00-3.219-3.218z" fill="url(#paint2_linear)"/><path d="M36.23 43.268h-8.453a4.291 4.291 0 00-4.291 4.291v2.146a1.073 1.073 0 001.073 1.073h15.019a1.073 1.073 0 001.073-1.073v-2.146a4.293 4.293 0 00-4.42-4.291z" fill="#6512B9"/><path d="M34.15 39.513h-4.292a1.073 1.073 0 00-1.073 1.073v4.828a1.03 1.03 0 00.43.858l2.145 1.61a1.073 1.073 0 001.288 0l2.145-1.61a1.03 1.03 0 00.43-.858v-4.828a1.073 1.073 0 00-1.074-1.073z" fill="#fff"/><path d="M37.368 35.866H26.64a2.682 2.682 0 100 5.364h10.728a2.682 2.682 0 100-5.364z" fill="#fff"/><path d="M34.32 33.184h-4.634a3.047 3.047 0 00-3.046 3.047v2.317a5.364 5.364 0 0010.728 0V36.23a3.047 3.047 0 00-3.047-3.046z" fill="#fff"/><path d="M38.376 29.965h-6.093a5.643 5.643 0 00-5.643 5.643 1.073 1.073 0 001.072 1.073h6.094a5.643 5.643 0 005.643-5.643 1.073 1.073 0 00-1.073-1.073zm5.964 1.502a6.437 6.437 0 100-12.873 6.437 6.437 0 000 12.873z" fill="#6512B9"/><path d="M45.95 23.958h-.536v-.537a1.072 1.072 0 10-2.146 0v.537h-.536a1.073 1.073 0 000 2.145h.536v.537a1.073 1.073 0 002.146 0v-.537h.536a1.073 1.073 0 100-2.145z" fill="#fff"/><defs><linearGradient id="paint0_linear" x1="35" y1="2.188" x2="35" y2="67.813" gradientUnits="userSpaceOnUse"><stop stop-color="#ED017F"/><stop offset="1" stop-color="#7F33B5"/></linearGradient><linearGradient id="paint1_linear" x1="35" y1="8.75" x2="35" y2="61.25" gradientUnits="userSpaceOnUse"><stop stop-color="#FFE5FF"/><stop offset="1" stop-color="#FF1EA5" stop-opacity=".14"/></linearGradient><linearGradient id="paint2_linear" x1="32.004" y1="23.958" x2="32.004" y2="50.778" gradientUnits="userSpaceOnUse"><stop stop-color="#ED017F"/><stop offset="1" stop-color="#7F33B5"/></linearGradient></defs></svg>