<svg width="347" height="220" fill="none" xmlns="http://www.w3.org/2000/svg"><path d="M107.806 209.183l-97.175-99.265 97.175-99.265v57.469h133.747v83.592H107.806v57.469z" fill="#00EFD1"/><path d="M107.806.204h4.18a11.492 11.492 0 016.269 10.449v47.02h123.298a8.88 8.88 0 017.314 3.135 10.45 10.45 0 013.135 7.314v83.592c0 5.771-4.678 10.449-10.449 10.449H118.255v47.02a11.497 11.497 0 01-6.269 9.927 10.448 10.448 0 01-11.494-2.612L2.794 117.233a10.972 10.972 0 010-14.629l97.698-99.265a10.446 10.446 0 017.314-3.135zm123.298 78.367H107.806c-5.771 0-10.449-4.678-10.449-10.449V36.253L25.26 109.918l72.098 73.665v-31.869c0-5.771 4.678-10.449 10.449-10.449h123.298V78.571zm41.796 83.592c-5.771 0-10.449-4.678-10.449-10.449V68.122c0-5.771 4.678-10.449 10.449-10.449s10.449 4.678 10.449 10.449v83.592c0 5.771-4.678 10.449-10.449 10.449zm31.347 0c-5.771 0-10.449-4.678-10.449-10.449V68.122c0-5.771 4.678-10.449 10.449-10.449s10.449 4.678 10.449 10.449v83.592c0 5.771-4.678 10.449-10.449 10.449zm31.347 0c-5.771 0-10.449-4.678-10.449-10.449V68.122c0-5.771 4.678-10.449 10.449-10.449s10.449 4.678 10.449 10.449v83.592c0 5.771-4.678 10.449-10.449 10.449z" fill="#083863"/></svg>