<svg xmlns="http://www.w3.org/2000/svg" viewBox="0 0 346.043 346.043"><path fill="#00efd1" d="M238.237 73.86l97.175 99.265-97.175 99.265v-57.469H104.49v-83.592h133.747z"/><path d="M238.237 282.839h-4.18a11.492 11.492 0 01-6.269-10.449v-47.02H104.49a8.88 8.88 0 01-7.314-3.135 10.45 10.45 0 01-3.135-7.314v-83.592c0-5.771 4.678-10.449 10.449-10.449h123.298V73.86a11.497 11.497 0 016.269-9.927 10.448 10.448 0 0111.494 2.612l97.698 99.265a10.972 10.972 0 010 14.629l-97.698 99.265a10.446 10.446 0 01-7.314 3.135zm-123.298-78.367h123.298c5.771 0 10.449 4.678 10.449 10.449v31.869l72.098-73.665-72.098-73.665v31.869c0 5.771-4.678 10.449-10.449 10.449H114.939v62.694zM73.143 120.88c5.771 0 10.449 4.678 10.449 10.449v83.592c0 5.771-4.678 10.449-10.449 10.449s-10.449-4.678-10.449-10.449v-83.592c0-5.771 4.678-10.449 10.449-10.449zm-31.347 0c5.771 0 10.449 4.678 10.449 10.449v83.592c0 5.771-4.678 10.449-10.449 10.449s-10.449-4.678-10.449-10.449v-83.592c0-5.771 4.678-10.449 10.449-10.449zm-31.347 0c5.771 0 10.449 4.678 10.449 10.449v83.592c0 5.771-4.678 10.449-10.449 10.449S0 220.692 0 214.921v-83.592c0-5.771 4.678-10.449 10.449-10.449z" fill="#083863"/></svg>