<svg width="449" height="390" fill="none" xmlns="http://www.w3.org/2000/svg"><path fill-rule="evenodd" clip-rule="evenodd" d="M296.269.13c26.749 2.083 44.873 25.659 68.342 38.66 28.134 15.585 72.352 14.536 82.674 44.997 10.295 30.379-28.72 55.079-38.398 85.66-9.801 30.974.486 66.763-18.237 93.312-22.723 32.219-58.203 50.704-94.381 66.373-59.145 25.617-122.551 79.973-181.054 52.923-56.297-26.03-50.68-108.714-68.255-168.195C29.962 156.329-26.247 85.308 14.538 41.315c47.775-51.532 135.658-3.645 205.19-13.81C247.212 23.487 268.576-2.028 296.269.13z" fill="url(#paint0_linear)"/><defs><linearGradient id="paint0_linear" x1="224.5" y1="0" x2="224.5" y2="389.413" gradientUnits="userSpaceOnUse"><stop stop-color="#ED017F"/><stop offset="1" stop-color="#7F33B5"/></linearGradient></defs></svg>