<svg width="368" height="502" fill="none" xmlns="http://www.w3.org/2000/svg"><path fill-rule="evenodd" clip-rule="evenodd" d="M133.481.068c45.534-1.773 82.98 31.417 120.341 57.536 38.136 26.66 80.403 51.67 97.7 94.897 17.869 44.655 27.04 103.529-3.41 140.742-31.063 37.963-99.292 5.636-139.424 33.815-38.853 27.282-34.481 92.504-75.207 116.895-57.324 34.33-138.145 83.536-190.838 42.436-53.377-41.634-1.434-130.709-8.683-198.061-5.173-48.068-45.02-93.692-27.568-138.77 17.33-44.766 73.292-56.46 113.363-82.839C57.378 41.952 88.486 1.82 133.48.07z" fill="url(#paint0_linear)"/><defs><linearGradient id="paint0_linear" x1="135" y1="0" x2="135" y2="502" gradientUnits="userSpaceOnUse"><stop stop-color="#EB3A67"/><stop offset="1" stop-color="#822F8B"/></linearGradient></defs></svg>