<svg width="529" height="458" fill="none" xmlns="http://www.w3.org/2000/svg"><path fill-rule="evenodd" clip-rule="evenodd" d="M348.451.152c31.46 2.45 52.776 30.179 80.379 45.47 33.09 18.33 85.095 17.096 97.236 52.922 12.107 35.73-33.779 64.78-45.161 100.748-11.528 36.429.572 78.521-21.45 109.747-26.725 37.893-68.454 59.634-111.004 78.063-69.562 30.129-144.136 94.059-212.944 62.244-66.212-30.614-59.606-127.861-80.276-197.819C35.24 183.864-30.869 100.333 17.1 48.592c56.19-60.608 159.551-4.287 241.33-16.242 32.324-4.726 57.452-34.735 90.022-32.198z" fill="url(#paint0_linear)"/><defs><linearGradient id="paint0_linear" x1="264.041" y1="0" x2="264.041" y2="458" gradientUnits="userSpaceOnUse"><stop stop-color="#ED017F"/><stop offset="1" stop-color="#7F33B5"/></linearGradient></defs></svg>