<svg width="50" height="50" fill="none" xmlns="http://www.w3.org/2000/svg"><path d="M49.863 14.7c-.117-2.656-.546-4.483-1.162-6.066A12.202 12.202 0 0045.81 4.2a12.306 12.306 0 00-4.425-2.881C39.793.703 37.976.274 35.32.156 32.643.03 31.793 0 25.005 0 18.217 0 17.367.03 14.7.147c-2.656.117-4.483.547-6.065 1.162A12.2 12.2 0 004.2 4.2a12.31 12.31 0 00-2.88 4.425C.703 10.217.274 12.034.156 14.69.03 17.367 0 18.217 0 25.005c0 6.788.03 7.638.147 10.305.117 2.656.547 4.483 1.162 6.066A12.33 12.33 0 004.2 45.81a12.305 12.305 0 004.425 2.881c1.592.616 3.409 1.045 6.066 1.162 2.666.118 3.516.147 10.304.147 6.789 0 7.639-.029 10.305-.147 2.657-.117 4.483-.546 6.066-1.162a12.79 12.79 0 007.316-7.316c.615-1.592 1.045-3.409 1.162-6.065.117-2.667.146-3.517.146-10.305s-.01-7.638-.127-10.305zm-4.502 20.414c-.108 2.442-.518 3.76-.86 4.64a8.295 8.295 0 01-4.747 4.747c-.88.342-2.207.752-4.64.86-2.637.117-3.428.146-10.1.146-6.67 0-7.471-.03-10.099-.147-2.442-.107-3.76-.517-4.64-.859a7.694 7.694 0 01-2.871-1.866 7.773 7.773 0 01-1.866-2.871c-.342-.88-.752-2.208-.86-4.64-.117-2.637-.146-3.428-.146-10.1 0-6.67.03-7.472.147-10.1.107-2.441.517-3.76.86-4.639a7.6 7.6 0 011.875-2.872 7.762 7.762 0 012.871-1.865c.88-.342 2.208-.752 4.64-.86 2.637-.117 3.428-.146 10.1-.146 6.68 0 7.472.03 10.1.146 2.441.108 3.76.518 4.639.86a7.688 7.688 0 012.871 1.865 7.772 7.772 0 011.866 2.872c.342.88.752 2.208.86 4.64.117 2.637.146 3.428.146 10.1 0 6.67-.03 7.452-.146 10.09z" fill="#1D181C"/><path d="M25.005 12.16c-7.091 0-12.844 5.754-12.844 12.845 0 7.091 5.753 12.844 12.844 12.844 7.091 0 12.844-5.753 12.844-12.844 0-7.091-5.753-12.844-12.844-12.844zm0 21.177a8.333 8.333 0 01-8.332-8.332 8.333 8.333 0 118.332 8.332zm16.351-21.685a2.999 2.999 0 11-5.998 0 2.999 2.999 0 015.998 0z" fill="#1D181C"/></svg>