<svg width="895" height="799" fill="none" xmlns="http://www.w3.org/2000/svg"><path d="M124.574 164.74c-6.974 0-13.238-1.45-18.792-4.351-5.555-2.9-9.906-6.912-13.053-12.034-3.148-5.184-4.722-11.017-4.722-17.497s1.574-12.282 4.721-17.404c3.148-5.184 7.499-9.227 13.054-12.127 5.554-2.901 11.818-4.351 18.792-4.351 6.974 0 13.238 1.45 18.793 4.351 5.554 2.9 9.905 6.943 13.053 12.127 3.148 5.122 4.721 10.924 4.721 17.404s-1.573 12.313-4.721 17.497c-3.148 5.122-7.499 9.134-13.053 12.034-5.555 2.901-11.819 4.351-18.793 4.351zm0-17.681c2.716 0 5.154-.648 7.314-1.944 2.221-1.358 3.98-3.24 5.276-5.647 1.296-2.469 1.944-5.339 1.944-8.61 0-3.271-.648-6.11-1.944-8.517-1.296-2.468-3.055-4.351-5.276-5.647-2.16-1.358-4.598-2.037-7.314-2.037-2.715 0-5.184.679-7.406 2.037-2.16 1.296-3.888 3.179-5.184 5.647-1.296 2.407-1.944 5.246-1.944 8.517 0 3.271.648 6.141 1.944 8.61 1.296 2.407 3.024 4.289 5.184 5.647 2.222 1.296 4.691 1.944 7.406 1.944zm127.377-16.479c0 8.517-2.839 15.275-8.516 20.274-5.678 4.938-13.948 7.777-24.81 8.517v7.221h-19.997v-7.313c-10.924-.926-19.224-3.827-24.902-8.702-5.617-4.876-8.425-11.541-8.425-19.997 0-8.455 2.808-15.089 8.425-19.903 5.678-4.876 13.978-7.777 24.902-8.702v-6.758h19.997v6.758c10.923.802 19.193 3.672 24.81 8.609 5.677 4.876 8.516 11.541 8.516 19.996zm-33.326 11.757c4.32-.617 7.436-1.851 9.35-3.703 1.913-1.913 2.869-4.628 2.869-8.146 0-3.456-.987-6.11-2.962-7.962-1.913-1.851-4.999-3.085-9.257-3.703v23.514zm-32.217-11.757c0 3.395.988 6.018 2.963 7.869 2.036 1.852 5.122 3.117 9.257 3.796v-23.329c-4.382.617-7.529 1.851-9.442 3.703-1.852 1.79-2.778 4.444-2.778 7.961zm105.949 34.16c-6.85 0-13.022-1.419-18.514-4.258-5.493-2.901-9.813-6.912-12.961-12.035-3.086-5.184-4.629-11.047-4.629-17.589 0-6.542 1.543-12.374 4.629-17.497 3.148-5.184 7.468-9.195 12.961-12.034 5.492-2.901 11.664-4.351 18.514-4.351 6.296 0 11.912 1.11 16.849 3.332 4.937 2.222 9.011 5.431 12.22 9.628l-13.794 12.313c-4.011-5.061-8.733-7.592-14.164-7.592-4.567 0-8.239 1.482-11.016 4.444-2.777 2.901-4.166 6.82-4.166 11.757 0 4.937 1.389 8.887 4.166 11.85 2.777 2.9 6.449 4.351 11.016 4.351 5.431 0 10.153-2.531 14.164-7.591l13.794 12.312c-3.209 4.197-7.283 7.406-12.22 9.628-4.937 2.222-10.553 3.332-16.849 3.332zm89.549-17.959v16.478h-53.879V98.457h52.675v16.478h-31.198v7.591h27.403v15.738h-27.403v8.517h32.402zm64.037-31.383h-18.978v47.861h-21.477v-47.861H386.51V98.457h59.433v16.941zm71.081-16.941v64.802h-21.847v-23.884h-20.182v23.884h-21.847V98.457h21.847v22.958h20.182V98.457h21.847zm57.254 53.508h-24.625l-4.351 11.294h-22.218l28.328-64.802h21.477l28.328 64.802h-22.588l-4.351-11.294zm-6.018-15.738l-6.295-16.293-6.295 16.293h12.59zm92.072-37.77v64.802h-21.477v-15.367h-5.832l-9.906 15.367h-22.866l12.776-18.515c-4.197-1.975-7.437-4.752-9.721-8.331-2.221-3.642-3.332-7.931-3.332-12.868 0-5.123 1.203-9.566 3.61-13.331 2.469-3.765 5.956-6.665 10.461-8.702s9.813-3.055 15.923-3.055h30.364zm-29.994 16.849c-5.554 0-8.332 2.622-8.332 7.868 0 5.493 2.778 8.24 8.332 8.24h8.517v-16.108h-8.517zM146.792 228.398h-18.978v47.861h-21.477v-47.861H87.359v-16.941h59.433v16.941zm7.205-16.941h21.477v33.697l22.311-33.697h20.552v64.802h-21.478v-33.604l-22.218 33.604h-20.644v-64.802zm138.523 0v64.802h-21.477v-47.861h-19.719v47.861h-21.477v-64.802h62.673zm44.416 66.283c-6.974 0-13.238-1.45-18.793-4.351-5.554-2.9-9.905-6.912-13.053-12.034-3.147-5.184-4.721-11.017-4.721-17.497s1.574-12.282 4.721-17.404c3.148-5.184 7.499-9.227 13.053-12.127 5.555-2.901 11.819-4.351 18.793-4.351 6.974 0 13.238 1.45 18.793 4.351 5.554 2.9 9.905 6.943 13.053 12.127 3.147 5.122 4.721 10.924 4.721 17.404s-1.574 12.313-4.721 17.497c-3.148 5.122-7.499 9.134-13.053 12.034-5.555 2.901-11.819 4.351-18.793 4.351zm0-17.681c2.715 0 5.153-.648 7.313-1.944 2.222-1.358 3.981-3.24 5.277-5.647 1.296-2.469 1.944-5.339 1.944-8.61 0-3.271-.648-6.11-1.944-8.517-1.296-2.468-3.055-4.351-5.277-5.647-2.16-1.358-4.598-2.037-7.313-2.037-2.716 0-5.184.679-7.406 2.037-2.16 1.296-3.888 3.179-5.184 5.647-1.296 2.407-1.944 5.246-1.944 8.517 0 3.271.648 6.141 1.944 8.61 1.296 2.407 3.024 4.289 5.184 5.647 2.222 1.296 4.69 1.944 7.406 1.944zm93.772-31.661h-27.865v47.861h-21.477v-64.802h49.342v16.941zm38.449-16.941c5.987 0 11.202.987 15.646 2.962 4.443 1.975 7.868 4.814 10.275 8.517 2.407 3.703 3.611 8.023 3.611 12.961 0 4.937-1.204 9.257-3.611 12.96-2.407 3.703-5.832 6.542-10.275 8.517-4.444 1.975-9.659 2.962-15.646 2.962h-9.35v15.923H437.96v-64.802h31.197zm-1.388 32.031c2.962 0 5.184-.648 6.665-1.944 1.481-1.358 2.222-3.24 2.222-5.647s-.741-4.259-2.222-5.555c-1.481-1.358-3.703-2.036-6.665-2.036h-7.962v15.182h7.962zm80.02 21.477h-24.625l-4.351 11.294h-22.218l28.328-64.802H546.4l28.328 64.802H552.14l-4.351-11.294zm-6.017-15.738l-6.296-16.293-6.295 16.293h12.591zm120.98-5.647c0 8.517-2.839 15.275-8.516 20.274-5.678 4.938-13.948 7.777-24.811 8.517v7.221h-19.996v-7.313c-10.924-.926-19.224-3.827-24.902-8.702-5.617-4.876-8.425-11.541-8.425-19.997 0-8.455 2.808-15.089 8.425-19.903 5.678-4.876 13.978-7.777 24.902-8.702v-6.758h19.996v6.758c10.924.802 19.194 3.672 24.811 8.609 5.677 4.876 8.516 11.541 8.516 19.996zm-33.327 11.757c4.321-.617 7.437-1.851 9.351-3.703 1.913-1.913 2.869-4.628 2.869-8.146 0-3.456-.987-6.11-2.962-7.962-1.913-1.851-4.999-3.085-9.258-3.703v23.514zm-32.216-11.757c0 3.395.988 6.018 2.963 7.869 2.036 1.852 5.122 3.117 9.257 3.796v-23.329c-4.382.617-7.529 1.851-9.442 3.703-1.852 1.79-2.778 4.444-2.778 7.961zm73.363-32.123h21.477v33.697l22.311-33.697h20.552v64.802h-21.478v-33.604l-22.218 33.604h-20.644v-64.802zm132.691 0v64.802h-21.477v-15.367h-5.833l-9.905 15.367h-22.866l12.775-18.515c-4.197-1.975-7.437-4.752-9.72-8.331-2.222-3.642-3.333-7.931-3.333-12.868 0-5.123 1.204-9.566 3.611-13.331 2.468-3.765 5.955-6.665 10.461-8.702 4.505-2.037 9.812-3.055 15.922-3.055h30.365zm-29.994 16.849c-5.555 0-8.332 2.622-8.332 7.868 0 5.493 2.777 8.24 8.332 8.24h8.517v-16.108h-8.517z" fill="#fff"/><path stroke="#fff" stroke-width="23.954" d="M11.977 11.977h870.599v775.046H11.977z"/></svg>