<svg width="252" height="163" fill="none" xmlns="http://www.w3.org/2000/svg"><ellipse cx="124.035" cy="81" rx="77.665" ry="75" fill="#039099"/><path d="M97.844 90.906H73v13.25h28.156l28.156-31.469h28.157l14.906-21.53 4.969 3.312-4.969-14.907-16.563 1.657 6.626 4.968-11.594 16.563h-26.5l-26.5 28.156z" fill="#3DFAFF"/><path d="M99.62 97.531l27.947-30.215h27.638l16.906-27.727-16.299 1.63 6.625 4.968-11.593 16.563h-26.5l-26.5 28.156H73v6.625h26.62z" fill="#2DD"/><path d="M126 115.75c-7.913 0-14.383-2.741-14.873-6.203l-.033 11.172c0 3.659 6.673 6.625 14.906 6.625s14.906-2.966 14.906-6.625v-11.594c0 3.659-6.673 6.625-14.906 6.625z" fill="#D1AF20"/><path d="M111.163 97.531l-.036 12.016c.49 3.462 6.96 6.203 14.873 6.203 8.233 0 14.906-2.966 14.906-6.625V97.531h-29.743zm-6.694 11.594v11.594c0 3.659-6.674 6.625-14.906 6.625-8.233 0-14.907-2.966-14.907-6.625l.07-11.594h29.743z" fill="#EAC734"/><path d="M126 104.156c8.232 0 14.906-2.966 14.906-6.625s-6.674-6.625-14.906-6.625-14.906 2.966-14.906 6.625 6.674 6.625 14.906 6.625zm-36.437 11.676c8.232 0 14.906-2.966 14.906-6.625s-6.674-6.625-14.906-6.625c-8.233 0-14.907 2.966-14.907 6.625s6.674 6.625 14.906 6.625z" fill="#F7D74F"/><path d="M147.6 85.637l-.024 12.383c.563 3.43 6.999 6.136 14.862 6.136 8.232 0 14.906-2.966 14.906-6.625V85.637H147.6zm14.838 30.113c-7.964 0-14.467-2.775-14.885-6.268l-.022 11.237c0 3.659 6.674 6.625 14.907 6.625 8.232 0 14.906-2.966 14.906-6.625v-11.594c0 3.659-6.674 6.625-14.906 6.625z" fill="#EAC734"/><path d="M162.438 104.156c-7.863 0-14.299-2.706-14.862-6.136l-.023 11.462c.418 3.493 6.922 6.268 14.885 6.268 8.232 0 14.906-2.966 14.906-6.625V97.531c0 3.659-6.674 6.625-14.906 6.625z" fill="#D1AF20"/><path d="M81.35 69.375l3.313-26.5h21.531v23.188H89.631l-1.725 3.312h-6.625" fill="#23A3DB"/><path d="M97.94 61.39l-3.367-18.515h3.367l3.258 17.922-3.259.593z" fill="#3DFAFF"/><path d="M91.288 34.594v8.281h5.606v-4.204h2.452c2.515 0 3.535-2.04 3.535-4.555v-4.491h-4.968l-6.625 4.969z" fill="#FDCAA7"/><path d="M94.09 24.656a2.803 2.803 0 00-2.802 2.803v7.135l6.625-4.969h4.968v-4.969h-8.79z" fill="#894619"/><path d="M106.194 66.063l11.594 3.312-.069 19.875 4.969 4.969h-11.594l.069-19.875-14.906-1.656-3.313 31.468 3.313 3.313h-9.938l3.243-41.406h16.632z" fill="#1990BA"/><path d="M106.194 42.875l6.556 13.25 9.938-4.969v4.969l-11.594 6.625-4.9-6.625v-13.25z" fill="#23A3DB"/><path d="M87.906 52.813h3.313v13.25h-3.313v-13.25z" fill="#1C81A5"/><path d="M89.632 80.969H74.725V69.375h14.907v11.594z" fill="#894619"/><path d="M162.438 92.158c8.232 0 14.906-2.966 14.906-6.625s-6.674-6.625-14.906-6.625c-8.233 0-14.907 2.966-14.907 6.625 0 3.66 6.674 6.625 14.907 6.625z" fill="#F7D74F"/><path d="M86.25 69.375h3.313v11.594H86.25V69.375z" fill="#753A12"/><path opacity=".3" d="M102.881 34.116v-9.46h-3.209v10.378a3.188 3.188 0 01-1.321 2.584l-1.458 1.053h2.453c2.515 0 3.535-2.04 3.535-4.555z" fill="#E28F56"/></svg>